<svg width="221" height="142" viewBox="0 0 221 142" fill="none" xmlns="http://www.w3.org/2000/svg">
<g clip-path="url(#clip0)">
<path d="M221 0.125717H0.0946655V142H221V0.125717Z" fill="#E6E6E6"/>
<path d="M215.406 17.9202H7.1337V133.606H215.406V17.9202Z" fill="white"/>
<path d="M220.905 0H0V9.41114H220.905V0Z" fill="#0078D4"/>
<path d="M6.9744 6.55597C7.93512 6.55597 8.71394 5.77497 8.71394 4.81155C8.71394 3.84814 7.93512 3.06714 6.9744 3.06714C6.01368 3.06714 5.23486 3.84814 5.23486 4.81155C5.23486 5.77497 6.01368 6.55597 6.9744 6.55597Z" fill="white"/>
<path d="M13.5767 6.55597C14.5374 6.55597 15.3162 5.77497 15.3162 4.81155C15.3162 3.84814 14.5374 3.06714 13.5767 3.06714C12.616 3.06714 11.8372 3.84814 11.8372 4.81155C11.8372 5.77497 12.616 6.55597 13.5767 6.55597Z" fill="white"/>
<path d="M20.179 6.55597C21.1397 6.55597 21.9185 5.77497 21.9185 4.81155C21.9185 3.84814 21.1397 3.06714 20.179 3.06714C19.2182 3.06714 18.4394 3.84814 18.4394 4.81155C18.4394 5.77497 19.2182 6.55597 20.179 6.55597Z" fill="white"/>
<path d="M43.5715 34.1351L29.795 47.7778L43.5715 61.42L46.6713 58.3116L36.2539 47.8636L46.7583 37.3297L43.5715 34.1351Z" fill="#0078D4"/>
<path d="M54.8596 34.1351L68.6357 47.7778L54.8596 61.42L51.7599 58.3116L62.1779 47.864L51.6728 37.3297L54.8596 34.1351Z" fill="#0078D4"/>
<path d="M99.4206 37.5587C98.2938 37.5587 97.3805 38.2086 97.3805 39.01C97.3805 39.8114 98.2938 40.4613 99.4206 40.4613H195.597C196.724 40.4613 197.637 39.8114 197.637 39.01C197.637 38.2086 196.724 37.5587 195.597 37.5587H99.4206Z" fill="#E6E6E6"/>
<path d="M194.641 117.073H32.8482C31.1943 117.073 29.854 116.116 29.8522 114.936V86.2997C29.854 85.1198 31.1943 84.1622 32.8482 84.1622H194.641C196.295 84.1622 197.635 85.1198 197.637 86.2997V114.935C197.635 116.115 196.295 117.072 194.641 117.073ZM32.8482 85.0165C31.8558 85.0165 31.0516 85.5911 31.0505 86.299V114.935C31.0505 115.642 31.8558 116.216 32.8482 116.217H194.641C195.633 116.217 196.437 115.642 196.438 114.935V86.2997C196.438 85.5918 195.633 85.018 194.641 85.0172L32.8482 85.0165Z" fill="#E6E6E6"/>
<path d="M49.5091 107.864C53.5068 107.864 56.7476 104.614 56.7476 100.605C56.7476 96.5965 53.5068 93.3466 49.5091 93.3466C45.5114 93.3466 42.2706 96.5965 42.2706 100.605C42.2706 104.614 45.5114 107.864 49.5091 107.864Z" fill="#E6E6E6"/>
<path d="M69.9247 94.8001C69.5409 94.7996 69.1726 94.952 68.9008 95.2238C68.629 95.4957 68.4761 95.8646 68.4756 96.2495C68.4751 96.6344 68.6271 97.0038 68.8982 97.2763C69.1692 97.5488 69.5371 97.7022 69.921 97.7027H138.155C138.539 97.7027 138.907 97.5498 139.179 97.2776C139.45 97.0055 139.603 96.6363 139.603 96.2514C139.603 95.8665 139.45 95.4973 139.179 95.2252C138.907 94.953 138.539 94.8001 138.155 94.8001H69.9247Z" fill="#0078D4"/>
<path d="M69.9247 103.508C69.7347 103.508 69.5464 103.545 69.3707 103.618C69.1951 103.691 69.0354 103.798 68.9008 103.932C68.629 104.204 68.4761 104.573 68.4756 104.958C68.4751 105.343 68.6271 105.712 68.8982 105.985C69.1692 106.257 69.5371 106.411 69.921 106.411H99.2841C99.6679 106.412 100.036 106.259 100.308 105.987C100.58 105.716 100.733 105.347 100.733 104.962C100.734 104.577 100.582 104.207 100.311 103.935C100.04 103.662 99.6717 103.509 99.2878 103.508H69.9247Z" fill="#0078D4"/>
<path d="M98.7183 46.2536C98.3546 46.283 98.0153 46.4486 97.7678 46.7176C97.5204 46.9865 97.383 47.339 97.383 47.7049C97.383 48.0708 97.5204 48.4233 97.7678 48.6922C98.0153 48.9612 98.3546 49.1268 98.7183 49.1562H161.75C162.114 49.1268 162.453 48.9612 162.7 48.6922C162.948 48.4233 163.085 48.0708 163.085 47.7049C163.085 47.339 162.948 46.9865 162.7 46.7176C162.453 46.4486 162.114 46.283 161.75 46.2536H98.7183Z" fill="#E6E6E6"/>
<path d="M99.133 54.9485C98.1652 54.9485 97.3805 55.5984 97.3805 56.3998C97.3805 57.2012 98.1652 57.8511 99.133 57.8511H181.757C182.724 57.8511 183.509 57.2012 183.509 56.3998C183.509 55.5984 182.724 54.9485 181.757 54.9485H99.133Z" fill="#E6E6E6"/>
</g>
<defs>
<clipPath id="clip0">
<rect width="221" height="142" fill="white"/>
</clipPath>
</defs>
</svg>
