<svg width="234" height="125" viewBox="0 0 234 125" fill="none" xmlns="http://www.w3.org/2000/svg">
<path d="M233.662 123.59H0.33815C0.248467 123.59 0.162457 123.516 0.0990417 123.383C0.0356262 123.251 0 123.072 0 122.885C0 122.698 0.0356262 122.518 0.0990417 122.386C0.162457 122.254 0.248467 122.18 0.33815 122.18H233.662C233.752 122.18 233.838 122.254 233.901 122.386C233.964 122.518 234 122.698 234 122.885C234 123.072 233.964 123.251 233.901 123.383C233.838 123.516 233.752 123.59 233.662 123.59Z" fill="#CCCCCC"/>
<path d="M202.242 48.5742H28.5633C27.8259 48.5742 27.1186 48.8679 26.5972 49.3906C26.0757 49.9132 25.7828 50.6222 25.7828 51.3614C25.7828 52.1006 26.0757 52.8095 26.5972 53.3322C27.1186 53.8549 27.8259 54.1485 28.5633 54.1485H33.4828V120.826C33.4828 121.565 33.7758 122.274 34.2972 122.796C34.8187 123.319 35.5259 123.613 36.2634 123.613C37.0009 123.613 37.7081 123.319 38.2296 122.796C38.751 122.274 39.044 121.565 39.044 120.826L39.0862 54.1485H191.334V120.826C191.334 121.565 191.627 122.274 192.148 122.796C192.67 123.319 193.377 123.613 194.114 123.613C194.852 123.613 195.559 123.319 196.081 122.796C196.602 122.274 196.895 121.565 196.895 120.826V55.6181L197.704 54.1485H202.242C202.98 54.1485 203.687 53.8549 204.208 53.3322C204.73 52.8095 205.023 52.1006 205.023 51.3614C205.023 50.6222 204.73 49.9132 204.208 49.3906C203.687 48.8679 202.98 48.5742 202.242 48.5742Z" fill="#CCCCCC"/>
<path d="M124.852 50.0328H72.2431C71.2244 50.0317 70.2478 49.6256 69.5275 48.9036C68.8072 48.1815 68.402 47.2026 68.4009 46.1815V17.1484C68.402 16.1273 68.8072 15.1484 69.5275 14.4264C70.2478 13.7044 71.2244 13.2983 72.2431 13.2971H124.852C125.871 13.2983 126.848 13.7044 127.568 14.4264C128.288 15.1484 128.693 16.1273 128.695 17.1484V46.1815C128.693 47.2026 128.288 48.1815 127.568 48.9036C126.848 49.6256 125.871 50.0317 124.852 50.0328Z" fill="#3F3D56"/>
<path d="M124.852 16.2612H72.2434C72.0087 16.2617 71.7838 16.3554 71.6178 16.5218C71.4519 16.6881 71.3584 16.9136 71.358 17.1488V46.1823C71.3585 46.4175 71.4519 46.643 71.6178 46.8094C71.7838 46.9757 72.0087 47.0694 72.2434 47.0699H124.852C125.087 47.0694 125.312 46.9757 125.478 46.8094C125.644 46.643 125.737 46.4175 125.737 46.1823V17.1488C125.737 16.9136 125.644 16.6881 125.478 16.5218C125.312 16.3554 125.087 16.2617 124.852 16.2612Z" fill="white"/>
<path d="M129.286 46.4778H123.67C123.67 46.3206 123.608 46.1699 123.497 46.0588C123.386 45.9477 123.236 45.8853 123.079 45.8853H121.306C121.149 45.8853 120.999 45.9477 120.888 46.0588C120.777 46.1699 120.715 46.3206 120.715 46.4778H118.941C118.941 46.3206 118.879 46.1699 118.768 46.0588C118.657 45.9477 118.507 45.8853 118.35 45.8853H116.577C116.42 45.8853 116.27 45.9477 116.159 46.0588C116.048 46.1699 115.986 46.3206 115.986 46.4778H114.212C114.212 46.3206 114.15 46.1699 114.039 46.0588C113.928 45.9477 113.778 45.8853 113.621 45.8853H111.848C111.691 45.8853 111.541 45.9477 111.43 46.0588C111.319 46.1699 111.257 46.3206 111.257 46.4778H109.483C109.483 46.3206 109.421 46.1699 109.31 46.0588C109.199 45.9477 109.049 45.8853 108.892 45.8853H107.119C106.962 45.8853 106.812 45.9477 106.701 46.0588C106.59 46.1699 106.528 46.3206 106.528 46.4778H104.754C104.754 46.3206 104.692 46.1699 104.581 46.0588C104.47 45.9477 104.32 45.8853 104.163 45.8853H102.39C102.233 45.8853 102.083 45.9477 101.972 46.0588C101.861 46.1699 101.799 46.3206 101.799 46.4778H100.026C100.025 46.3206 99.9632 46.1699 99.8524 46.0588C99.7415 45.9477 99.5911 45.8853 99.4344 45.8853H97.661C97.5043 45.8853 97.3539 45.9477 97.2431 46.0588C97.1322 46.1699 97.0699 46.3206 97.0699 46.4778H95.2966C95.2966 46.3206 95.2343 46.1699 95.1234 46.0588C95.0126 45.9477 94.8623 45.8853 94.7055 45.8853H92.9321C92.7754 45.8853 92.625 45.9477 92.5141 46.0588C92.4033 46.1699 92.341 46.3206 92.341 46.4778H90.5677C90.5677 46.3206 90.5054 46.1699 90.3945 46.0588C90.2837 45.9477 90.1333 45.8853 89.9766 45.8853H88.2032C88.0464 45.8853 87.8961 45.9477 87.7852 46.0588C87.6744 46.1699 87.6121 46.3206 87.6121 46.4778H85.8387C85.8387 46.3206 85.7765 46.1699 85.6656 46.0588C85.5548 45.9477 85.4044 45.8853 85.2476 45.8853H83.4743C83.3175 45.8853 83.1672 45.9477 83.0563 46.0588C82.9455 46.1699 82.8832 46.3206 82.8832 46.4778H81.1098C81.1098 46.3206 81.0475 46.1699 80.9367 46.0588C80.8258 45.9477 80.6755 45.8853 80.5187 45.8853H78.7454C78.5886 45.8853 78.4383 45.9477 78.3274 46.0588C78.2165 46.1699 78.1543 46.3206 78.1543 46.4778H76.3809C76.3809 46.3206 76.3186 46.1699 76.2078 46.0588C76.0969 45.9477 75.9466 45.8853 75.7898 45.8853H74.0165C73.8597 45.8853 73.7093 45.9477 73.5985 46.0588C73.4876 46.1699 73.4253 46.3206 73.4253 46.4778H67.8098C67.3399 46.4785 66.8896 46.6661 66.5576 46.9994C66.2256 47.3326 66.0392 47.7844 66.0392 48.2553C66.0392 48.7263 66.2256 49.178 66.5576 49.5112C66.8896 49.8445 67.3399 50.0321 67.8098 50.0328H129.286C129.756 50.0328 130.207 49.8456 130.54 49.5122C130.872 49.1789 131.059 48.7267 131.059 48.2553C131.059 47.7839 130.872 47.3318 130.54 46.9984C130.207 46.665 129.756 46.4778 129.286 46.4778Z" fill="#3F3D56"/>
<path d="M58.6683 36.155V47.9578H29.1676C28.3772 47.9854 27.5894 47.8532 26.851 47.569C26.1127 47.2849 25.439 46.8546 24.8702 46.3039C24.3013 45.7532 23.8489 45.0933 23.5399 44.3635C23.2309 43.6338 23.0717 42.8492 23.0717 42.0564C23.0717 41.2637 23.2309 40.4791 23.5399 39.7493C23.8489 39.0196 24.3013 38.3597 24.8702 37.809C25.439 37.2583 26.1127 36.828 26.851 36.5439C27.5894 36.2597 28.3772 36.1275 29.1676 36.155H58.6683Z" fill="#F2F2F2"/>
<path d="M59.3929 47.8671C59.3928 47.9874 59.3451 48.1029 59.2602 48.188C59.1753 48.2731 59.0601 48.321 58.94 48.321H28.6421C26.9966 48.321 25.4184 47.6658 24.2548 46.4995C23.0913 45.3331 22.4376 43.7513 22.4376 42.1019C22.4376 40.4524 23.0913 38.8706 24.2548 37.7042C25.4184 36.5379 26.9966 35.8827 28.6421 35.8827H58.94C59.0601 35.8827 59.1753 35.9305 59.2602 36.0157C59.3451 36.1008 59.3929 36.2162 59.3929 36.3366C59.3929 36.457 59.3451 36.5725 59.2602 36.6576C59.1753 36.7428 59.0601 36.7906 58.94 36.7906H28.6421C27.2376 36.7919 25.8911 37.352 24.8984 38.3479C23.9057 39.3438 23.3481 40.694 23.3481 42.1019C23.3481 43.5097 23.9057 44.8599 24.8984 45.8558C25.8911 46.8517 27.2376 47.4118 28.6421 47.4131H58.94C59.0601 47.4132 59.1752 47.461 59.2602 47.5461C59.3451 47.6312 59.3928 47.7467 59.3929 47.8671Z" fill="#0078D4"/>
<path d="M58.6683 38.8788H26.9664C26.9545 38.8789 26.9427 38.8766 26.9316 38.8721C26.9205 38.8675 26.9105 38.8609 26.902 38.8524C26.8935 38.844 26.8868 38.834 26.8822 38.8229C26.8776 38.8118 26.8752 38.8 26.8752 38.788C26.8752 38.776 26.8776 38.7642 26.8822 38.7531C26.8868 38.7421 26.8935 38.732 26.902 38.7236C26.9105 38.7151 26.9205 38.7085 26.9316 38.7039C26.9427 38.6994 26.9545 38.6971 26.9664 38.6972H58.6683C58.6922 38.6974 58.7151 38.707 58.7319 38.724C58.7488 38.741 58.7582 38.764 58.7582 38.788C58.7582 38.812 58.7488 38.835 58.7319 38.852C58.7151 38.869 58.6922 38.8786 58.6683 38.8788Z" fill="#CCCCCC"/>
<path d="M58.6683 41.0578H26.9664C26.9545 41.0579 26.9427 41.0556 26.9316 41.0511C26.9205 41.0465 26.9105 41.0399 26.902 41.0314C26.8935 41.023 26.8868 41.0129 26.8822 41.0019C26.8776 40.9908 26.8752 40.979 26.8752 40.967C26.8752 40.955 26.8776 40.9432 26.8822 40.9321C26.8868 40.9211 26.8935 40.911 26.902 40.9026C26.9105 40.8942 26.9205 40.8875 26.9316 40.8829C26.9427 40.8784 26.9545 40.8761 26.9664 40.8762H58.6683C58.6922 40.8764 58.7151 40.886 58.7319 40.903C58.7488 40.92 58.7582 40.943 58.7582 40.967C58.7582 40.991 58.7488 41.014 58.7319 41.031C58.7151 41.048 58.6922 41.0576 58.6683 41.0578Z" fill="#CCCCCC"/>
<path d="M58.6683 43.2368H26.9664C26.9545 43.2369 26.9427 43.2346 26.9316 43.2301C26.9205 43.2255 26.9105 43.2189 26.902 43.2104C26.8935 43.202 26.8868 43.192 26.8822 43.1809C26.8776 43.1698 26.8752 43.158 26.8752 43.146C26.8752 43.134 26.8776 43.1222 26.8822 43.1111C26.8868 43.1001 26.8935 43.09 26.902 43.0816C26.9105 43.0731 26.9205 43.0665 26.9316 43.0619C26.9427 43.0574 26.9545 43.0551 26.9664 43.0552H58.6683C58.6922 43.0554 58.7151 43.065 58.7319 43.082C58.7488 43.099 58.7582 43.122 58.7582 43.146C58.7582 43.17 58.7488 43.193 58.7319 43.21C58.7151 43.227 58.6922 43.2366 58.6683 43.2368Z" fill="#CCCCCC"/>
<path d="M58.6683 45.4157H26.9664C26.9545 45.4158 26.9427 45.4135 26.9316 45.409C26.9205 45.4045 26.9105 45.3978 26.902 45.3894C26.8935 45.3809 26.8868 45.3709 26.8822 45.3598C26.8776 45.3488 26.8752 45.3369 26.8752 45.3249C26.8752 45.3129 26.8776 45.3011 26.8822 45.29C26.8868 45.279 26.8935 45.269 26.902 45.2605C26.9105 45.2521 26.9205 45.2454 26.9316 45.2409C26.9427 45.2363 26.9545 45.2341 26.9664 45.2341H58.6683C58.6922 45.2343 58.7151 45.244 58.7319 45.261C58.7488 45.278 58.7582 45.301 58.7582 45.3249C58.7582 45.3489 58.7488 45.3719 58.7319 45.3889C58.7151 45.4059 58.6922 45.4155 58.6683 45.4157Z" fill="#CCCCCC"/>
<path d="M53.1071 23.7201V35.5229H23.6064C22.816 35.5504 22.0282 35.4182 21.2899 35.134C20.5515 34.8499 19.8779 34.4196 19.309 33.8689C18.7401 33.3182 18.2877 32.6583 17.9787 31.9286C17.6697 31.1988 17.5105 30.4142 17.5105 29.6215C17.5105 28.8287 17.6697 28.0441 17.9787 27.3144C18.2877 26.5847 18.7401 25.9248 19.309 25.3741C19.8779 24.8233 20.5515 24.3931 21.2899 24.1089C22.0282 23.8247 22.816 23.6925 23.6064 23.7201H53.1071Z" fill="#F2F2F2"/>
<path d="M53.8318 35.4321C53.8317 35.5525 53.784 35.6679 53.6991 35.753C53.6142 35.8381 53.499 35.886 53.3789 35.886H23.081C22.2662 35.886 21.4594 35.7252 20.7066 35.4126C19.9539 35.1001 19.2699 34.642 18.6938 34.0645C18.1176 33.487 17.6606 32.8014 17.3488 32.0468C17.037 31.2923 16.8765 30.4836 16.8765 29.6669C16.8765 28.8502 17.037 28.0414 17.3488 27.2869C17.6606 26.5324 18.1176 25.8468 18.6938 25.2693C19.2699 24.6918 19.9539 24.2337 20.7066 23.9211C21.4594 23.6086 22.2662 23.4477 23.081 23.4477H53.3789C53.499 23.4477 53.6142 23.4955 53.6991 23.5807C53.784 23.6658 53.8318 23.7813 53.8318 23.9017C53.8318 24.0221 53.784 24.1375 53.6991 24.2227C53.6142 24.3078 53.499 24.3556 53.3789 24.3556H23.081C21.6765 24.3569 20.33 24.917 19.3373 25.9129C18.3446 26.9089 17.787 28.2591 17.787 29.6669C17.787 31.0747 18.3446 32.4249 19.3373 33.4208C20.33 34.4167 21.6765 34.9769 23.081 34.9781H53.3789C53.499 34.9782 53.6141 35.026 53.6991 35.1111C53.784 35.1963 53.8317 35.3117 53.8318 35.4321Z" fill="#3F3D56"/>
<path d="M53.1071 26.4438H21.4053C21.3933 26.4439 21.3815 26.4416 21.3704 26.4371C21.3594 26.4326 21.3493 26.4259 21.3408 26.4175C21.3324 26.409 21.3256 26.399 21.321 26.3879C21.3165 26.3769 21.3141 26.365 21.3141 26.3531C21.3141 26.3411 21.3165 26.3292 21.321 26.3182C21.3256 26.3071 21.3324 26.2971 21.3408 26.2886C21.3493 26.2802 21.3594 26.2735 21.3704 26.269C21.3815 26.2645 21.3933 26.2622 21.4053 26.2623H53.1071C53.131 26.2624 53.1539 26.2721 53.1708 26.2891C53.1876 26.3061 53.1971 26.3291 53.1971 26.3531C53.1971 26.377 53.1876 26.4 53.1708 26.417C53.1539 26.434 53.131 26.4437 53.1071 26.4438Z" fill="#CCCCCC"/>
<path d="M53.1071 28.6228H21.4053C21.3933 28.6229 21.3815 28.6206 21.3704 28.6161C21.3594 28.6116 21.3493 28.6049 21.3408 28.5965C21.3324 28.588 21.3256 28.578 21.321 28.5669C21.3165 28.5559 21.3141 28.544 21.3141 28.5321C21.3141 28.5201 21.3165 28.5082 21.321 28.4971C21.3256 28.4861 21.3324 28.4761 21.3408 28.4676C21.3493 28.4592 21.3594 28.4525 21.3704 28.448C21.3815 28.4435 21.3933 28.4412 21.4053 28.4413H53.1071C53.131 28.4414 53.1539 28.451 53.1708 28.4681C53.1876 28.4851 53.1971 28.5081 53.1971 28.5321C53.1971 28.556 53.1876 28.579 53.1708 28.596C53.1539 28.613 53.131 28.6227 53.1071 28.6228Z" fill="#CCCCCC"/>
<path d="M53.1071 30.8017H21.4053C21.3933 30.8018 21.3815 30.7995 21.3704 30.795C21.3594 30.7905 21.3493 30.7838 21.3408 30.7754C21.3324 30.7669 21.3256 30.7569 21.321 30.7458C21.3165 30.7348 21.3141 30.7229 21.3141 30.711C21.3141 30.699 21.3165 30.6871 21.321 30.6761C21.3256 30.665 21.3324 30.655 21.3408 30.6465C21.3493 30.6381 21.3594 30.6314 21.3704 30.6269C21.3815 30.6224 21.3933 30.6201 21.4053 30.6202H53.1071C53.131 30.6203 53.1539 30.63 53.1708 30.647C53.1876 30.664 53.1971 30.687 53.1971 30.711C53.1971 30.7349 53.1876 30.7579 53.1708 30.7749C53.1539 30.7919 53.131 30.8016 53.1071 30.8017Z" fill="#CCCCCC"/>
<path d="M53.1071 32.9808H21.4053C21.3933 32.9808 21.3815 32.9785 21.3704 32.974C21.3594 32.9695 21.3493 32.9628 21.3408 32.9544C21.3324 32.946 21.3256 32.9359 21.321 32.9249C21.3165 32.9138 21.3141 32.9019 21.3141 32.89C21.3141 32.878 21.3165 32.8661 21.321 32.8551C21.3256 32.844 21.3324 32.834 21.3408 32.8255C21.3493 32.8171 21.3594 32.8104 21.3704 32.8059C21.3815 32.8014 21.3933 32.7991 21.4053 32.7992H53.1071C53.131 32.7993 53.1539 32.809 53.1708 32.826C53.1876 32.843 53.1971 32.866 53.1971 32.89C53.1971 32.9139 53.1876 32.9369 53.1708 32.9539C53.1539 32.971 53.131 32.9806 53.1071 32.9808Z" fill="#CCCCCC"/>
<path d="M87.4254 89.9105V79.6195C87.4254 79.1646 87.2451 78.7283 86.9242 78.4067C86.6033 78.085 86.1681 77.9043 85.7143 77.9043H46.7863C46.3325 77.9043 45.8972 78.085 45.5763 78.4067C45.2554 78.7283 45.0752 79.1646 45.0752 79.6195V89.9105H87.4254Z" fill="#CCCCCC"/>
<path d="M87.4254 93.7695H45.0751V107.062H87.4254V93.7695Z" fill="#CCCCCC"/>
<path d="M45.0752 110.921V121.212C45.0752 121.667 45.2554 122.103 45.5763 122.425C45.8972 122.747 46.3325 122.927 46.7863 122.927H85.7143C86.1681 122.927 86.6033 122.747 86.9242 122.425C87.2451 122.103 87.4254 121.667 87.4254 121.212V110.921H45.0752Z" fill="#CCCCCC"/>
<path d="M66.0364 85.6226C66.7452 85.6226 67.3197 85.0466 67.3197 84.3362C67.3197 83.6257 66.7452 83.0498 66.0364 83.0498C65.3276 83.0498 64.7531 83.6257 64.7531 84.3362C64.7531 85.0466 65.3276 85.6226 66.0364 85.6226Z" fill="white"/>
<path d="M66.0364 102.774C66.7452 102.774 67.3197 102.198 67.3197 101.488C67.3197 100.777 66.7452 100.201 66.0364 100.201C65.3276 100.201 64.7531 100.777 64.7531 101.488C64.7531 102.198 65.3276 102.774 66.0364 102.774Z" fill="white"/>
<path d="M66.1052 119.563C66.8139 119.563 67.3885 118.987 67.3885 118.276C67.3885 117.566 66.8139 116.99 66.1052 116.99C65.3964 116.99 64.8218 117.566 64.8218 118.276C64.8218 118.987 65.3964 119.563 66.1052 119.563Z" fill="white"/>
<path d="M82.624 66.1705V77.9733H53.1233C52.3329 78.0009 51.545 77.8687 50.8067 77.5845C50.0684 77.3003 49.3947 76.8701 48.8259 76.3193C48.257 75.7686 47.8046 75.1087 47.4956 74.379C47.1866 73.6493 47.0273 72.8646 47.0273 72.0719C47.0273 71.2792 47.1866 70.4946 47.4956 69.7648C47.8046 69.0351 48.257 68.3752 48.8259 67.8245C49.3947 67.2738 50.0684 66.8435 50.8067 66.5593C51.545 66.2752 52.3329 66.1429 53.1233 66.1705H82.624Z" fill="#F2F2F2"/>
<path d="M83.3486 77.8825C83.3486 78.0029 83.3009 78.1183 83.2159 78.2035C83.131 78.2886 83.0158 78.3364 82.8957 78.3365H52.5978C51.7826 78.3371 50.9753 78.1768 50.2219 77.8645C49.4685 77.5523 48.7839 77.0943 48.2072 76.5167C47.6306 75.9392 47.1731 75.2533 46.861 74.4985C46.5488 73.7436 46.3882 72.9344 46.3882 72.1173C46.3882 71.3001 46.5488 70.491 46.861 69.7361C47.1731 68.9813 47.6306 68.2954 48.2072 67.7179C48.7839 67.1403 49.4685 66.6823 50.2219 66.3701C50.9753 66.0578 51.7826 65.8975 52.5978 65.8981H82.8957C83.0158 65.8981 83.131 65.946 83.216 66.0311C83.3009 66.1162 83.3486 66.2317 83.3486 66.3521C83.3486 66.4725 83.3009 66.5879 83.216 66.6731C83.131 66.7582 83.0158 66.806 82.8957 66.806H52.5978C51.1934 66.8073 49.8468 67.3674 48.8541 68.3633C47.8615 69.3593 47.3038 70.7095 47.3038 72.1173C47.3038 73.5251 47.8615 74.8753 48.8541 75.8712C49.8468 76.8671 51.1934 77.4273 52.5978 77.4286H82.8957C83.0158 77.4286 83.131 77.4764 83.2159 77.5616C83.3008 77.6467 83.3486 77.7621 83.3486 77.8825Z" fill="#3F3D56"/>
<path d="M82.624 68.8942H50.9222C50.9102 68.8943 50.8984 68.892 50.8873 68.8875C50.8762 68.883 50.8662 68.8763 50.8577 68.8679C50.8492 68.8594 50.8425 68.8494 50.8379 68.8383C50.8333 68.8273 50.831 68.8154 50.831 68.8034C50.831 68.7915 50.8333 68.7796 50.8379 68.7685C50.8425 68.7575 50.8492 68.7475 50.8577 68.739C50.8662 68.7306 50.8762 68.7239 50.8873 68.7194C50.8984 68.7148 50.9102 68.7126 50.9222 68.7126H82.624C82.6479 68.7128 82.6708 68.7225 82.6876 68.7395C82.7045 68.7565 82.7139 68.7795 82.7139 68.8034C82.7139 68.8274 82.7045 68.8504 82.6876 68.8674C82.6708 68.8844 82.6479 68.894 82.624 68.8942Z" fill="#CCCCCC"/>
<path d="M82.624 71.0732H50.9222C50.9102 71.0733 50.8984 71.071 50.8873 71.0664C50.8762 71.0619 50.8662 71.0552 50.8577 71.0468C50.8492 71.0383 50.8425 71.0283 50.8379 71.0173C50.8333 71.0062 50.831 70.9943 50.831 70.9824C50.831 70.9704 50.8333 70.9585 50.8379 70.9475C50.8425 70.9364 50.8492 70.9264 50.8577 70.9179C50.8662 70.9095 50.8762 70.9028 50.8873 70.8983C50.8984 70.8938 50.9102 70.8915 50.9222 70.8916H82.624C82.6479 70.8917 82.6708 70.9014 82.6876 70.9184C82.7045 70.9354 82.7139 70.9584 82.7139 70.9824C82.7139 71.0063 82.7045 71.0293 82.6876 71.0463C82.6708 71.0634 82.6479 71.073 82.624 71.0732Z" fill="#CCCCCC"/>
<path d="M82.624 73.2522H50.9222C50.9102 73.2522 50.8984 73.25 50.8873 73.2454C50.8762 73.2409 50.8662 73.2342 50.8577 73.2258C50.8492 73.2173 50.8425 73.2073 50.8379 73.1963C50.8333 73.1852 50.831 73.1734 50.831 73.1614C50.831 73.1494 50.8333 73.1375 50.8379 73.1265C50.8425 73.1154 50.8492 73.1054 50.8577 73.0969C50.8662 73.0885 50.8762 73.0818 50.8873 73.0773C50.8984 73.0728 50.9102 73.0705 50.9222 73.0706H82.624C82.6479 73.0708 82.6708 73.0804 82.6876 73.0974C82.7045 73.1144 82.7139 73.1374 82.7139 73.1614C82.7139 73.1853 82.7045 73.2084 82.6876 73.2254C82.6708 73.2424 82.6479 73.252 82.624 73.2522Z" fill="#CCCCCC"/>
<path d="M82.624 75.4312H50.9222C50.9102 75.4312 50.8984 75.429 50.8873 75.4244C50.8762 75.4199 50.8662 75.4132 50.8577 75.4048C50.8492 75.3964 50.8425 75.3863 50.8379 75.3753C50.8333 75.3642 50.831 75.3523 50.831 75.3404C50.831 75.3284 50.8333 75.3165 50.8379 75.3055C50.8425 75.2944 50.8492 75.2844 50.8577 75.276C50.8662 75.2675 50.8762 75.2608 50.8873 75.2563C50.8984 75.2518 50.9102 75.2495 50.9222 75.2496H82.624C82.6479 75.2497 82.6708 75.2594 82.6876 75.2764C82.7045 75.2934 82.7139 75.3164 82.7139 75.3404C82.7139 75.3643 82.7045 75.3874 82.6876 75.4044C82.6708 75.4214 82.6479 75.431 82.624 75.4312Z" fill="#CCCCCC"/>
<path d="M152.131 44.8874H138.691C138.563 44.8872 138.437 44.9166 138.323 44.9731L134.93 46.6754C134.819 46.723 134.724 46.8024 134.657 46.9038C134.59 47.0052 134.554 47.1241 134.554 47.2457C134.554 47.3673 134.59 47.4862 134.657 47.5876C134.724 47.689 134.819 47.7684 134.93 47.816L138.323 49.5183C138.437 49.5748 138.563 49.6042 138.691 49.6041H152.131C152.317 49.6148 152.499 49.552 152.638 49.4292C152.777 49.3064 152.863 49.1335 152.876 48.948V45.5434C152.863 45.3579 152.777 45.185 152.638 45.0622C152.499 44.9394 152.317 44.8766 152.131 44.8874Z" fill="#3F3D56"/>
<path d="M152.876 45.5433V48.9479C152.863 49.1334 152.777 49.3063 152.638 49.4291C152.499 49.5519 152.317 49.6147 152.131 49.604H149.454V44.8873H152.131C152.317 44.8765 152.499 44.9394 152.638 45.0622C152.777 45.185 152.863 45.3578 152.876 45.5433Z" fill="#0078D4"/>
<path d="M152.03 19.4171C152.639 19.1537 153.297 19.0223 153.96 19.0314C154.623 19.0405 155.276 19.1899 155.878 19.4698C156.479 19.7497 157.015 20.1538 157.449 20.6557C157.884 21.1576 158.208 21.7459 158.4 22.382C158.46 22.5837 158.506 22.7893 158.537 22.9973L177.333 32.3399L181.683 29.4505L187.095 35.6959L180.453 41.1029C179.655 41.7481 178.67 42.1179 177.645 42.1575C176.62 42.1972 175.609 41.9045 174.763 41.3229L155.693 28.104C155.551 28.1644 155.406 28.2173 155.259 28.2627C154.624 28.4552 153.956 28.511 153.298 28.4265C152.641 28.3421 152.008 28.1193 151.442 27.7727C150.876 27.4261 150.39 26.9636 150.015 26.4154C149.64 25.8673 149.384 25.2459 149.266 24.5919C149.23 24.4021 149.207 24.2103 149.196 24.0176C149.143 23.0524 149.386 22.0941 149.893 21.2716C150.4 20.4491 151.146 19.8019 152.03 19.4171Z" fill="#FFB8B8"/>
<path d="M191.178 76.9388H170.641C170.641 77.5306 149.474 78.0108 149.474 78.0108C149.142 78.2616 148.839 78.5493 148.572 78.8684C147.768 79.8295 147.328 81.0445 147.331 82.2987V83.1563C147.331 84.5777 147.895 85.9407 148.898 86.9458C149.9 87.9508 151.26 88.5157 152.678 88.5162H191.178C192.596 88.515 193.956 87.9499 194.958 86.945C195.961 85.9401 196.524 84.5775 196.526 83.1563V82.2987C196.524 80.8778 195.96 79.5157 194.957 78.5109C193.955 77.5062 192.596 76.9408 191.178 76.9388Z" fill="#3F3D56"/>
<path d="M168.838 124.322H174.399V88.3033H168.838V124.322Z" fill="#3F3D56"/>
<path d="M153.01 124.126C153.01 124.728 161.437 124.359 171.833 124.359C182.228 124.359 190.655 124.728 190.655 124.126C190.655 123.524 182.228 118.748 171.833 118.748C161.437 118.748 153.01 123.524 153.01 124.126Z" fill="#3F3D56"/>
<path d="M158.031 119.904L152.786 119.904L150.291 106.27L158.031 106.27L158.031 119.904Z" fill="#FFB8B8"/>
<path d="M159.368 125L142.458 124.999V124.785C142.458 123.919 142.628 123.061 142.959 122.26C143.289 121.46 143.774 120.732 144.386 120.12C144.997 119.507 145.722 119.021 146.521 118.69C147.319 118.358 148.175 118.187 149.04 118.188H149.04L159.368 118.188L159.368 125Z" fill="#2F2E41"/>
<path d="M150.187 111.449L139.731 87.9484C138.858 85.9677 138.762 83.73 139.461 81.6811C140.16 79.6322 141.603 77.9224 143.504 76.8924L166.182 64.7028L176.53 63.8205L186.076 62.9508L186.145 63.0676C186.233 63.2167 188.285 66.7701 186.898 70.6665C185.846 73.622 183.108 75.9305 178.762 77.528C168.618 81.2565 156.899 84.4432 152.331 85.6399C152.129 85.6917 151.941 85.7856 151.778 85.9157C151.615 86.0457 151.481 86.2089 151.385 86.3945C151.289 86.5779 151.232 86.7792 151.218 86.9857C151.204 87.1923 151.232 87.3996 151.301 87.5946L161.015 109.469C161.116 109.747 161.153 110.044 161.121 110.338C161.09 110.631 160.992 110.914 160.835 111.164C160.677 111.414 160.465 111.624 160.213 111.778C159.962 111.933 159.679 112.027 159.385 112.055L152.127 112.584C152.066 112.59 152.004 112.593 151.943 112.593C151.571 112.593 151.208 112.485 150.896 112.282C150.584 112.079 150.338 111.79 150.187 111.449Z" fill="#2F2E41"/>
<path d="M160.597 119.904L155.353 119.904L152.858 106.27L160.598 106.27L160.597 119.904Z" fill="#FFB8B8"/>
<path d="M161.935 125L145.024 124.999V124.785C145.024 123.919 145.195 123.061 145.525 122.26C145.856 121.46 146.341 120.732 146.952 120.12C147.563 119.507 148.289 119.021 149.088 118.69C149.886 118.358 150.742 118.187 151.606 118.188H151.607L161.935 118.188L161.935 125Z" fill="#2F2E41"/>
<path d="M153.181 112.736L142.726 89.2347C141.853 87.254 141.756 85.0163 142.455 82.9674C143.154 80.9185 144.598 79.2087 146.498 78.1787L169.176 65.9891L179.525 65.1068L189.071 64.2371L189.139 64.3539C189.227 64.503 191.28 68.0564 189.892 71.9528C188.84 74.9083 186.103 77.2168 181.757 78.8143C171.612 82.5428 159.893 85.7295 155.326 86.9262C155.124 86.978 154.935 87.0719 154.772 87.202C154.609 87.332 154.475 87.4952 154.38 87.6808C154.284 87.8642 154.227 88.0655 154.212 88.272C154.198 88.4786 154.226 88.6859 154.296 88.8809L164.009 110.756C164.111 111.033 164.147 111.33 164.116 111.624C164.085 111.918 163.987 112.2 163.829 112.45C163.672 112.7 163.459 112.91 163.208 113.065C162.956 113.219 162.673 113.314 162.38 113.341L155.122 113.871C155.06 113.876 154.999 113.879 154.938 113.879C154.566 113.879 154.202 113.771 153.89 113.568C153.579 113.365 153.332 113.076 153.181 112.736Z" fill="#2F2E41"/>
<path d="M147.97 40.9429C143.576 35.0851 140.103 28.5878 137.671 21.6766C137.53 21.2632 137.54 20.8131 137.699 20.4064C137.858 19.9997 138.156 19.6628 138.54 19.4557L153.574 11.3809C153.818 11.2493 154.088 11.175 154.364 11.1638C154.64 11.1525 154.915 11.2046 155.168 11.316C155.426 11.4283 155.655 11.5981 155.837 11.8124C156.02 12.0266 156.151 12.2799 156.221 12.5527C157.971 19.2125 161.26 25.3659 165.823 30.5151C166.011 30.7246 166.148 30.9744 166.225 31.2454C166.302 31.5164 166.316 31.8013 166.267 32.0787C166.219 32.3516 166.11 32.61 165.948 32.8343C165.786 33.0585 165.574 33.2427 165.33 33.3728L150.296 41.4477C149.911 41.6532 149.466 41.7153 149.041 41.6229C148.615 41.5304 148.235 41.2895 147.97 40.9429Z" fill="#CCCCCC"/>
<path d="M148.996 40.1702C149.077 40.2714 149.19 40.3411 149.317 40.3673C149.444 40.3935 149.575 40.3746 149.69 40.3138L164.724 32.2388C164.797 32.2007 164.86 32.1461 164.909 32.0794C164.957 32.0127 164.99 31.9356 165.003 31.8542C165.019 31.7683 165.015 31.6799 164.991 31.596C164.966 31.5121 164.923 31.4349 164.864 31.3706C160.167 26.0697 156.781 19.735 154.98 12.8789C154.959 12.7942 154.919 12.7155 154.862 12.6489C154.806 12.5823 154.735 12.5297 154.655 12.4952C154.58 12.4614 154.498 12.4456 154.416 12.449C154.333 12.4524 154.253 12.475 154.18 12.5148L139.146 20.5896C139.032 20.6513 138.943 20.7509 138.895 20.8713C138.847 20.9916 138.842 21.1251 138.881 21.2487C141.27 28.0362 144.681 34.4172 148.996 40.1702Z" fill="white"/>
<path d="M197.917 38.789L186.142 43.2739L183.267 35.2698C182.886 34.2069 182.891 33.0431 183.283 31.9838C183.674 30.9246 184.427 30.0382 185.407 29.4813C186.399 28.9179 187.559 28.7286 188.678 28.9476C189.797 29.1666 190.801 29.7793 191.508 30.6753L197.917 38.789Z" fill="#0078D4"/>
<path d="M167.968 70.5024C167.72 70.3267 167.512 70.1001 167.359 69.8377C167.205 69.5753 167.109 69.2832 167.076 68.9807C165.568 54.8693 166.619 43.826 170.287 35.2198C170.933 33.7355 171.907 32.4172 173.134 31.3641C174.362 30.311 175.811 29.5505 177.374 29.1397L186.892 28.6581L186.941 28.682C189.089 29.7365 190.841 31.4567 191.937 33.5875C193.032 35.7184 193.414 38.1464 193.024 40.5117C189.963 48.6001 187.4 57.0214 189.354 63.8149C189.436 64.0989 189.46 64.3965 189.425 64.69C189.389 64.9835 189.295 65.2668 189.147 65.5229C189.005 65.7704 188.813 65.986 188.583 66.1562C188.354 66.3265 188.092 66.448 187.815 66.513L169.686 70.8357C169.392 70.9057 169.087 70.9122 168.791 70.8547C168.495 70.7972 168.214 70.6771 167.968 70.5024Z" fill="#0078D4"/>
<path d="M183.716 25.0947C189.518 25.0947 194.223 20.3796 194.223 14.5632C194.223 8.74677 189.518 4.03163 183.716 4.03163C177.913 4.03163 173.209 8.74677 173.209 14.5632C173.209 20.3796 177.913 25.0947 183.716 25.0947Z" fill="#FFB8B8"/>
<path d="M154.561 22.9045L146.373 26.5276C146.062 26.665 145.709 26.673 145.391 26.5497C145.074 26.4265 144.818 26.1821 144.681 25.8703L144.478 25.4104C144.341 25.0982 144.333 24.7443 144.456 24.4263C144.579 24.1083 144.823 23.8522 145.134 23.7141L153.322 20.091C153.634 19.9536 153.987 19.9457 154.304 20.0689C154.621 20.1921 154.877 20.4365 155.015 20.7483L155.217 21.2082C155.354 21.5204 155.362 21.8743 155.239 22.1923C155.116 22.5103 154.873 22.7665 154.561 22.9045Z" fill="#CCCCCC"/>
<path d="M157.556 28.4788L149.367 32.1019C149.056 32.2393 148.703 32.2472 148.386 32.124C148.068 32.0007 147.813 31.7564 147.675 31.4445L147.473 30.9846C147.336 30.6725 147.328 30.3186 147.451 30.0006C147.574 29.6826 147.817 29.4264 148.128 29.2883L156.317 25.6652C156.628 25.5279 156.981 25.5199 157.299 25.6431C157.616 25.7664 157.871 26.0107 158.009 26.3226L158.212 26.7825C158.349 27.0946 158.357 27.4485 158.234 27.7665C158.111 28.0846 157.867 28.3407 157.556 28.4788Z" fill="#CCCCCC"/>
<path d="M163.871 50.2516L145.615 35.8159C145.47 35.8672 145.322 35.9109 145.172 35.947C144.528 36.0981 143.859 36.1116 143.209 35.9866C142.559 35.8617 141.943 35.6011 141.4 35.2217C140.854 34.8421 140.394 34.3499 140.053 33.7781C139.712 33.2062 139.496 32.5678 139.421 31.9057C139.298 30.8472 139.536 29.7784 140.096 28.8725C140.656 27.9666 141.505 27.277 142.505 26.9154C143.129 26.691 143.793 26.6013 144.454 26.6521C145.116 26.703 145.758 26.8933 146.341 27.2106C146.924 27.5279 147.433 27.965 147.835 28.4932C148.238 29.0215 148.524 29.629 148.676 30.276C148.723 30.481 148.756 30.6891 148.774 30.8986L166.947 41.4072L171.469 38.7974L176.479 45.3716L169.457 50.3881C168.635 50.9706 167.648 51.2719 166.641 51.2473C165.635 51.2227 164.663 50.8735 163.871 50.2516Z" fill="#FFB8B8"/>
<path d="M178.706 47.4189L168.291 40.3192L173.186 33.3699C173.836 32.4471 174.79 31.7844 175.88 31.4987C176.971 31.2131 178.127 31.3231 179.144 31.8091C180.173 32.3007 180.993 33.1451 181.455 34.1895C181.918 35.234 181.992 36.4098 181.665 37.5045L178.706 47.4189Z" fill="#0078D4"/>
<path d="M179.864 12.9946C177.163 14.8472 173.617 16.7516 170.859 14.7787C169.048 13.4833 168.478 11.0845 169.212 8.97935C170.533 5.19374 174.161 3.52714 177.631 2.24965C182.142 0.588917 187.053 -0.732268 191.71 0.457067C196.366 1.6464 200.482 6.16553 199.641 10.908C198.965 14.7217 195.376 17.8951 195.886 21.7348C196.398 25.5991 200.734 27.6332 204.562 28.3238C208.389 29.0145 212.673 29.2364 215.423 31.9922C218.933 35.5078 218.056 41.7915 214.754 45.5033C211.452 49.215 206.47 50.8975 201.641 52.0413C195.244 53.5567 188.325 54.3532 182.249 51.8382C176.173 49.3231 171.445 42.553 173.205 36.2045C173.949 33.5229 175.7 31.2566 177.392 29.0503C179.085 26.844 180.799 24.5369 181.445 21.83C181.983 19.5742 181.584 16.9552 180.092 15.2631C179.821 14.9669 179.65 14.5921 179.604 14.1926C179.558 13.793 179.64 13.3892 179.838 13.0392L179.864 12.9946Z" fill="#2F2E41"/>
</svg>
