<svg width="223" height="131" viewBox="0 0 223 131" fill="none" xmlns="http://www.w3.org/2000/svg">
<path d="M206.062 1.6133H127.659V0H92.1087V1.6133H13.383C12.6866 1.6133 11.997 1.75025 11.3536 2.01634C10.7101 2.28242 10.1255 2.67242 9.63302 3.16408C9.14056 3.65573 8.74993 4.23941 8.48341 4.88179C8.21689 5.52417 8.07971 6.21267 8.07971 6.90797V114.09C8.07971 115.494 8.63845 116.841 9.63302 117.833C10.6276 118.826 11.9765 119.384 13.383 119.384H206.062C206.758 119.384 207.448 119.247 208.091 118.981C208.735 118.715 209.319 118.325 209.812 117.833C210.304 117.342 210.695 116.758 210.962 116.116C211.228 115.473 211.365 114.785 211.365 114.09V6.90797C211.365 6.21267 211.228 5.52416 210.962 4.88178C210.695 4.2394 210.304 3.65573 209.812 3.16407C209.319 2.67242 208.735 2.28241 208.091 2.01633C207.448 1.75025 206.758 1.6133 206.062 1.6133Z" fill="#203A61"/>
<path d="M204.255 10.9705H15.1899V117.448H204.255V10.9705Z" fill="#0078D4"/>
<path d="M109.561 8.06647C110.632 8.06647 111.5 7.19971 111.5 6.13051C111.5 5.06131 110.632 4.19455 109.561 4.19455C108.49 4.19455 107.622 5.06131 107.622 6.13051C107.622 7.19971 108.49 8.06647 109.561 8.06647Z" fill="#0078D4"/>
<path d="M193.401 24.5221H184.439V15.5746H193.401V24.5221ZM184.829 24.1331H193.012V15.9636H184.829V24.1331Z" fill="#3F3D56"/>
<path d="M216.674 115.512H198.222V114.185C198.222 114.151 198.215 114.116 198.202 114.084C198.189 114.052 198.169 114.023 198.145 113.999C198.121 113.975 198.091 113.955 198.059 113.942C198.028 113.929 197.993 113.922 197.959 113.922H191.632C191.598 113.922 191.563 113.929 191.532 113.942C191.5 113.955 191.47 113.975 191.446 113.999C191.422 114.023 191.402 114.052 191.389 114.084C191.376 114.116 191.369 114.151 191.369 114.185V115.512H187.415V114.185C187.415 114.151 187.408 114.116 187.395 114.084C187.382 114.052 187.362 114.023 187.338 113.999C187.313 113.975 187.284 113.955 187.252 113.942C187.22 113.929 187.186 113.922 187.151 113.922H180.825C180.79 113.922 180.756 113.929 180.724 113.942C180.692 113.955 180.663 113.975 180.639 113.999C180.614 114.023 180.595 114.052 180.582 114.084C180.568 114.116 180.561 114.151 180.561 114.185V115.512H176.608V114.185C176.608 114.151 176.601 114.116 176.587 114.084C176.574 114.052 176.555 114.023 176.53 113.999C176.506 113.975 176.477 113.955 176.445 113.942C176.413 113.929 176.379 113.922 176.344 113.922H170.018C169.983 113.922 169.949 113.929 169.917 113.942C169.885 113.955 169.856 113.975 169.831 113.999C169.807 114.023 169.787 114.052 169.774 114.084C169.761 114.116 169.754 114.151 169.754 114.185V115.512H165.8V114.185C165.8 114.151 165.793 114.116 165.78 114.084C165.767 114.052 165.747 114.023 165.723 113.999C165.699 113.975 165.669 113.955 165.638 113.942C165.606 113.929 165.571 113.922 165.537 113.922H159.21C159.176 113.922 159.141 113.929 159.11 113.942C159.078 113.955 159.048 113.975 159.024 113.999C159 114.023 158.98 114.052 158.967 114.084C158.954 114.116 158.947 114.151 158.947 114.185V115.512H154.993V114.185C154.993 114.151 154.986 114.116 154.973 114.084C154.96 114.052 154.94 114.023 154.916 113.999C154.891 113.975 154.862 113.955 154.83 113.942C154.798 113.929 154.764 113.922 154.729 113.922H148.403C148.368 113.922 148.334 113.929 148.302 113.942C148.27 113.955 148.241 113.975 148.217 113.999C148.192 114.023 148.173 114.052 148.16 114.084C148.146 114.116 148.139 114.151 148.139 114.185V115.512H144.186V114.185C144.186 114.151 144.179 114.116 144.166 114.084C144.152 114.052 144.133 114.023 144.108 113.999C144.084 113.975 144.055 113.955 144.023 113.942C143.991 113.929 143.957 113.922 143.922 113.922H137.596C137.561 113.922 137.527 113.929 137.495 113.942C137.463 113.955 137.434 113.975 137.409 113.999C137.385 114.023 137.365 114.052 137.352 114.084C137.339 114.116 137.332 114.151 137.332 114.185V115.512H133.378V114.185C133.378 114.151 133.371 114.116 133.358 114.084C133.345 114.052 133.326 114.023 133.301 113.999C133.277 113.975 133.247 113.955 133.216 113.942C133.184 113.929 133.149 113.922 133.115 113.922H83.5591C83.5245 113.922 83.4902 113.929 83.4582 113.942C83.4262 113.955 83.3972 113.975 83.3727 113.999C83.3482 114.023 83.3288 114.052 83.3156 114.084C83.3023 114.116 83.2955 114.151 83.2955 114.185V115.512H79.3416V114.185C79.3416 114.151 79.3348 114.116 79.3215 114.084C79.3083 114.052 79.2889 114.023 79.2644 113.999C79.2399 113.975 79.2109 113.955 79.1789 113.942C79.1469 113.929 79.1126 113.922 79.078 113.922H72.7518C72.7172 113.922 72.6829 113.929 72.6509 113.942C72.6189 113.955 72.5899 113.975 72.5654 113.999C72.5409 114.023 72.5215 114.052 72.5082 114.084C72.495 114.116 72.4882 114.151 72.4882 114.185V115.512H68.5343V114.185C68.5343 114.151 68.5275 114.116 68.5142 114.084C68.501 114.052 68.4816 114.023 68.4571 113.999C68.4326 113.975 68.4035 113.955 68.3716 113.942C68.3396 113.929 68.3053 113.922 68.2707 113.922H61.9444C61.9098 113.922 61.8755 113.929 61.8436 113.942C61.8116 113.955 61.7825 113.975 61.758 113.999C61.7336 114.023 61.7142 114.052 61.7009 114.084C61.6877 114.116 61.6808 114.151 61.6808 114.185V115.512H57.7269V114.185C57.727 114.151 57.7201 114.116 57.7069 114.084C57.6936 114.052 57.6742 114.023 57.6497 113.999C57.6253 113.975 57.5962 113.955 57.5642 113.942C57.5322 113.929 57.498 113.922 57.4633 113.922H51.1371C51.1025 113.922 51.0682 113.929 51.0362 113.942C51.0043 113.955 50.9752 113.975 50.9507 113.999C50.9262 114.023 50.9068 114.052 50.8936 114.084C50.8803 114.116 50.8735 114.151 50.8735 114.185V115.512H46.9196V114.185C46.9196 114.151 46.9128 114.116 46.8996 114.084C46.8863 114.052 46.8669 114.023 46.8424 113.999C46.8179 113.975 46.7889 113.955 46.7569 113.942C46.7249 113.929 46.6906 113.922 46.656 113.922H40.3298C40.2952 113.922 40.2609 113.929 40.2289 113.942C40.1969 113.955 40.1679 113.975 40.1434 113.999C40.1189 114.023 40.0995 114.052 40.0863 114.084C40.073 114.116 40.0662 114.151 40.0662 114.185V115.512H36.1123V114.185C36.1123 114.151 36.1055 114.116 36.0922 114.084C36.079 114.052 36.0596 114.023 36.0351 113.999C36.0106 113.975 35.9816 113.955 35.9496 113.942C35.9176 113.929 35.8833 113.922 35.8487 113.922H29.5225C29.4878 113.922 29.4536 113.929 29.4216 113.942C29.3896 113.955 29.3605 113.975 29.3361 113.999C29.3116 114.023 29.2922 114.052 29.2789 114.084C29.2657 114.116 29.2589 114.151 29.2589 114.185V115.512H25.305V114.185C25.305 114.151 25.2981 114.116 25.2849 114.084C25.2717 114.052 25.2522 114.023 25.2278 113.999C25.2033 113.975 25.1742 113.955 25.1422 113.942C25.1103 113.929 25.076 113.922 25.0414 113.922H18.7151C18.6805 113.922 18.6462 113.929 18.6143 113.942C18.5823 113.955 18.5532 113.975 18.5287 113.999C18.5043 114.023 18.4848 114.052 18.4716 114.084C18.4583 114.116 18.4515 114.151 18.4515 114.185V115.512H6.32624C4.64842 115.512 3.03931 116.178 1.85291 117.362C0.666513 118.547 7.99233e-07 120.153 0 121.828V124.684C3.99616e-06 126.359 0.666518 127.966 1.85292 129.15C3.03932 130.335 4.64842 131 6.32624 131H216.674C218.352 131 219.961 130.335 221.147 129.15C222.333 127.966 223 126.359 223 124.684V121.828C223 120.153 222.333 118.547 221.147 117.362C219.961 116.178 218.352 115.512 216.674 115.512Z" fill="#203A61"/>
<path d="M192.568 70.3019H131.695V35.7032H192.568V70.3019ZM132.297 69.7002H191.965V36.3049H132.297V69.7002Z" fill="#3F3D56"/>
<path d="M81.0677 77.2217H26.8245V43.5255H81.0677V77.2217ZM27.4272 76.6199H80.465V44.1272H27.4272V76.6199Z" fill="#3F3D56"/>
<path d="M52.1664 64.2847L52.1145 63.6119C51.9591 62.2148 52.4255 60.6882 53.7213 59.136C54.8875 57.7645 55.5354 56.7556 55.5354 55.5912C55.5354 54.2717 54.7061 53.3921 53.0734 53.3662C52.1396 53.3624 51.2267 53.6422 50.4558 54.1683L49.8339 52.5383C50.6892 51.9171 52.1664 51.5032 53.5398 51.5032C56.5202 51.5032 57.8678 53.3404 57.8678 55.3065C57.8678 57.0661 56.8829 58.3339 55.639 59.8085C54.4988 61.1539 54.0841 62.2924 54.1618 63.6119L54.1877 64.2847L52.1664 64.2847ZM51.5962 67.907C51.5823 67.6959 51.6123 67.4843 51.6845 67.2854C51.7567 67.0865 51.8694 66.9047 52.0155 66.7515C52.1616 66.5983 52.338 66.477 52.5335 66.3954C52.7289 66.3137 52.9392 66.2734 53.1511 66.277C54.0582 66.277 54.6802 66.9495 54.6802 67.907C54.6888 68.1145 54.6552 68.3216 54.5816 68.5159C54.508 68.7101 54.3958 68.8875 54.2517 69.0373C54.1077 69.1872 53.9348 69.3064 53.7435 69.3878C53.5521 69.4693 53.3462 69.5113 53.1382 69.5113C52.9302 69.5113 52.7243 69.4693 52.533 69.3878C52.3416 69.3064 52.1687 69.1872 52.0247 69.0373C51.8807 68.8875 51.7684 68.7101 51.6948 68.5159C51.6212 68.3216 51.5876 68.1145 51.5962 67.907Z" fill="#D0CDE1"/>
<path d="M160.352 56.7633L160.3 56.0904C160.144 54.6934 160.611 53.1668 161.906 51.6146C163.073 50.2431 163.721 49.2342 163.721 48.0698C163.721 46.7503 162.891 45.8706 161.259 45.8448C160.325 45.841 159.412 46.1207 158.641 46.6469L158.019 45.0168C158.874 44.3957 160.352 43.9818 161.725 43.9818C164.705 43.9818 166.053 45.8189 166.053 47.7851C166.053 49.5447 165.068 50.8125 163.824 52.2871C162.684 53.6324 162.269 54.7709 162.347 56.0904L162.373 56.7633L160.352 56.7633ZM159.781 60.3856C159.767 60.1745 159.797 59.9628 159.87 59.7639C159.942 59.5651 160.055 59.3833 160.201 59.2301C160.347 59.0769 160.523 58.9556 160.719 58.8739C160.914 58.7923 161.124 58.752 161.336 58.7556C162.243 58.7556 162.865 59.4281 162.865 60.3856C162.874 60.5931 162.84 60.8002 162.767 60.9944C162.693 61.1887 162.581 61.366 162.437 61.5159C162.293 61.6657 162.12 61.785 161.929 61.8664C161.737 61.9479 161.531 61.9898 161.323 61.9898C161.115 61.9898 160.909 61.9479 160.718 61.8664C160.527 61.785 160.354 61.6657 160.21 61.5159C160.066 61.366 159.954 61.1887 159.88 60.9944C159.806 60.8002 159.773 60.5931 159.781 60.3856Z" fill="#D0CDE1"/>
<path d="M110.787 104.44C125.149 104.44 136.792 92.8169 136.792 78.4786C136.792 64.1403 125.149 52.5168 110.787 52.5168C96.4257 52.5168 84.7831 64.1403 84.7831 78.4786C84.7831 92.8169 96.4257 104.44 110.787 104.44Z" fill="#2F2E41"/>
<path d="M100.744 114.031L92.97 112.626L95.4914 96.4204L103.265 97.8254L100.744 114.031Z" fill="#2F2E41"/>
<path d="M118.813 100.635L111.039 99.2303L108.518 113.135L116.291 114.54L118.813 100.635Z" fill="#2F2E41"/>
<path d="M121.487 115.298C121.757 113.964 119.086 112.3 115.522 111.581C111.958 110.863 108.85 111.362 108.581 112.697C108.311 114.031 110.981 115.695 114.545 116.413C118.109 117.132 121.217 116.632 121.487 115.298Z" fill="#2F2E41"/>
<path d="M105.296 114.879C105.475 113.529 102.698 112.049 99.0937 111.572C95.4893 111.095 92.4222 111.803 92.2431 113.152C92.064 114.502 94.8408 115.982 98.4452 116.459C102.05 116.936 105.117 116.228 105.296 114.879Z" fill="#2F2E41"/>
<path d="M112.608 81.0012C117.516 81.0012 121.495 77.0286 121.495 72.1282C121.495 67.2278 117.516 63.2552 112.608 63.2552C107.7 63.2552 103.72 67.2278 103.72 72.1282C103.72 77.0286 107.7 81.0012 112.608 81.0012Z" fill="white"/>
<path d="M116.261 71.9054C117.897 71.9054 119.223 70.5812 119.223 68.9477C119.223 67.3142 117.897 65.99 116.261 65.99C114.625 65.99 113.298 67.3142 113.298 68.9477C113.298 70.5812 114.625 71.9054 116.261 71.9054Z" fill="#3F3D56"/>
<path d="M90.2736 50.235C89.8826 40.6235 98.1798 32.4826 108.806 32.0517C119.432 31.6207 128.364 39.063 128.755 48.6744C129.146 58.2859 121.759 60.4697 111.133 60.9006C100.507 61.3315 90.6647 59.8464 90.2736 50.235Z" fill="white"/>
<path d="M135.711 77.7209C142.71 76.1191 147.976 73.0423 147.472 70.8486C146.969 68.6548 140.886 68.1749 133.887 69.7767C126.887 71.3784 121.622 74.4553 122.125 76.649C122.629 78.8427 128.711 79.3226 135.711 77.7209Z" fill="#2F2E41"/>
<path d="M84.6653 86.1958C91.6647 84.5941 96.9305 81.5172 96.4268 79.3235C95.9232 77.1298 89.8408 76.6499 82.8414 78.2516C75.842 79.8534 70.5762 82.9302 71.0799 85.1239C71.5835 87.3177 77.6659 87.7976 84.6653 86.1958Z" fill="#2F2E41"/>
<path d="M103.645 88.7098C103.507 89.4742 103.52 90.2584 103.685 91.0175C103.85 91.7767 104.163 92.496 104.607 93.1343C105.05 93.7727 105.615 94.3176 106.269 94.7379C106.924 95.1583 107.654 95.4459 108.42 95.5843C109.186 95.7226 109.971 95.7091 110.732 95.5444C111.492 95.3798 112.212 95.0672 112.852 94.6245C113.491 94.1818 114.037 93.6178 114.458 92.9645C114.879 92.3113 115.167 91.5816 115.306 90.8173C115.889 87.6026 113.399 86.465 110.179 85.883C106.959 85.3011 104.228 85.4951 103.645 88.7098Z" fill="white"/>
<path d="M54.6543 3.94797H11.8965V44.5541H54.6543V3.94797Z" fill="#D0CDE1"/>
<path d="M49.7955 8.79883H16.7553V34.0235H49.7955V8.79883Z" fill="white"/>
<path d="M34.6942 36.9994H16.7226V37.9437H34.6942V36.9994Z" fill="#F2F2F2"/>
<path d="M34.6942 39.8324H16.7226V40.7767H34.6942V39.8324Z" fill="#F2F2F2"/>
<path d="M22.6343 25.1953C24.7239 25.1953 26.4178 23.5041 26.4178 21.418C26.4178 19.3318 24.7239 17.6407 22.6343 17.6407C20.5447 17.6407 18.8508 19.3318 18.8508 21.418C18.8508 23.5041 20.5447 25.1953 22.6343 25.1953Z" fill="#3F3D56"/>
<path d="M33.2754 25.1953C35.365 25.1953 37.0589 23.5041 37.0589 21.418C37.0589 19.3318 35.365 17.6407 33.2754 17.6407C31.1858 17.6407 29.4919 19.3318 29.4919 21.418C29.4919 23.5041 31.1858 25.1953 33.2754 25.1953Z" fill="#0078D4"/>
<path d="M43.9165 25.1953C46.006 25.1953 47.7 23.5041 47.7 21.418C47.7 19.3318 46.006 17.6407 43.9165 17.6407C41.8269 17.6407 40.133 19.3318 40.133 21.418C40.133 23.5041 41.8269 25.1953 43.9165 25.1953Z" fill="#E6E6E6"/>
<path d="M33.2754 8.19742C34.3202 8.19742 35.1671 7.35184 35.1671 6.30876C35.1671 5.26568 34.3202 4.4201 33.2754 4.4201C32.2306 4.4201 31.3836 5.26568 31.3836 6.30876C31.3836 7.35184 32.2306 8.19742 33.2754 8.19742Z" fill="#3F3D56"/>
<path d="M74.9917 82.5733H32.2339V123.179H74.9917V82.5733Z" fill="#D0CDE1"/>
<path d="M70.1329 87.4243H37.0927V112.649H70.1329V87.4243Z" fill="white"/>
<path d="M55.9462 91.5696H44.3632V103.134H55.9462V91.5696Z" fill="#0078D4"/>
<path d="M48.7973 94.4614V108.504H62.8624V94.4614H48.7973ZM62.2523 107.894H49.4074V95.0705H62.2523V107.894Z" fill="#3F3D56"/>
<path d="M55.0316 115.153H37.06V116.097H55.0316V115.153Z" fill="#F2F2F2"/>
<path d="M53.6128 86.8228C54.6576 86.8228 55.5045 85.9773 55.5045 84.9342C55.5045 83.8911 54.6576 83.0455 53.6128 83.0455C52.568 83.0455 51.7211 83.8911 51.7211 84.9342C51.7211 85.9773 52.568 86.8228 53.6128 86.8228Z" fill="#3F3D56"/>
<path d="M186.315 70.4169H143.557V111.023H186.315V70.4169Z" fill="#D0CDE1"/>
<path d="M181.456 75.2678H148.416V100.492H181.456V75.2678Z" fill="white"/>
<path d="M168.49 95.0149H161.382V97.1178H168.49V95.0149Z" fill="#3F3D56"/>
<path d="M177.083 78.6423H152.789V79.5436H177.083V78.6423Z" fill="#3F3D56"/>
<path d="M177.083 81.4963H152.789V82.3975H177.083V81.4963Z" fill="#3F3D56"/>
<path d="M177.083 84.3502H152.789V85.2514H177.083V84.3502Z" fill="#3F3D56"/>
<path d="M177.083 87.2041H152.789V88.1054H177.083V87.2041Z" fill="#3F3D56"/>
<path d="M177.083 90.0581H152.789V90.9593H177.083V90.0581Z" fill="#3F3D56"/>
<path d="M166.355 102.996H148.384V103.94H166.355V102.996Z" fill="#F2F2F2"/>
<path d="M173.449 105.357H148.384V106.301H173.449V105.357Z" fill="#F2F2F2"/>
<path d="M164.936 74.6663C165.981 74.6663 166.828 73.8207 166.828 72.7776C166.828 71.7346 165.981 70.889 164.936 70.889C163.892 70.889 163.045 71.7346 163.045 72.7776C163.045 73.8207 163.892 74.6663 164.936 74.6663Z" fill="#3F3D56"/>
</svg>
