<svg width="263" height="196" viewBox="0 0 263 196" fill="none" xmlns="http://www.w3.org/2000/svg">
<g clip-path="url(#clip0_320:86)">
<path opacity="0.1" d="M258.689 87.2778C258.642 87.5558 258.595 87.8339 258.543 88.112C256.859 97.5817 254.11 106.711 250.023 115.093C249.889 115.371 249.752 115.649 249.613 115.928C246.99 121.213 243.769 126.18 240.013 130.73C237.977 133.186 235.757 135.517 233.117 137.201C229.417 139.559 225.092 140.518 220.841 141.302C216.423 142.119 211.948 142.792 207.484 143.537C205.901 143.795 204.328 144.066 202.766 144.349C198.452 145.129 194.171 146.03 189.992 147.224C184.825 148.714 179.811 150.633 175.093 153.352C174.716 153.567 174.342 153.788 173.973 154.015C173.603 154.238 173.228 154.467 172.868 154.7C172.508 154.933 172.146 155.164 171.788 155.4L171.237 155.773C171.056 155.892 170.877 156.021 170.698 156.14C170.167 156.503 169.643 156.885 169.119 157.252L169.099 157.267C168.754 157.516 168.411 157.764 168.068 158.012C166.134 159.445 164.242 160.944 162.357 162.449L161.168 163.4C160.553 163.887 159.939 164.372 159.325 164.857C158.965 165.143 158.6 165.426 158.237 165.709C157.974 165.915 157.713 166.121 157.445 166.325C156.102 167.36 154.741 168.373 153.353 169.341C153.023 169.572 152.688 169.803 152.36 170.029C149.581 171.93 146.626 173.558 143.535 174.891L143.495 174.908C141.972 175.557 140.406 176.097 138.807 176.524C137.89 176.773 136.974 176.969 136.045 177.123C133.571 177.551 131.046 177.594 128.559 177.252C123.669 176.559 119.088 174.272 114.211 173.508C104.149 171.946 94.3777 176.984 84.9094 180.939C82.5918 181.909 80.2485 182.819 77.8795 183.67C76.3102 184.236 74.7333 184.775 73.1491 185.286C63.4974 188.408 53.5519 190.535 43.4678 191.635C39.3507 192.085 35.0573 192.298 30.8657 191.975C29.2828 191.859 27.7076 191.654 26.1476 191.362C20.8411 190.369 15.8872 188.261 11.8967 184.41C8.58169 181.259 6.24254 177.14 4.45963 172.842C3.74282 171.116 3.11126 169.35 2.56497 167.544C1.70629 164.714 1.06134 161.823 0.635545 158.896C0.538701 158.236 0.45179 157.573 0.387228 156.91C0.258103 155.773 0.162086 154.63 0.0991794 153.483C-0.248494 147.387 0.347028 141.273 1.86471 135.358C3.55575 128.806 6.37664 122.532 7.61822 115.918C7.67037 115.64 7.71755 115.361 7.76473 115.083C7.93027 114.09 8.05609 113.079 8.14217 112.049C8.76793 103.96 6.34684 96.0423 4.4348 88.112C4.36775 87.8339 4.3007 87.5558 4.23614 87.2778C4.02921 86.3988 3.83304 85.5191 3.64763 84.6385C1.87713 76.2513 1.39291 67.2758 2.96476 58.906C3.01442 58.628 3.07154 58.3474 3.12865 58.0718C4.18896 52.8876 6.06127 47.9566 8.92933 43.5644C11.8719 39.0555 15.7357 35.3039 19.8553 32.0067C21.8667 30.4011 23.9467 28.8989 26.0955 27.5003C27.64 26.4972 29.2127 25.5479 30.8135 24.6524C43.7483 17.4521 58.5058 13.9339 73.0969 14.7209C73.87 14.7607 74.6415 14.8136 75.4113 14.8798C76.2191 14.9494 77.0245 15.0321 77.8274 15.1281C87.2212 16.2131 96.3618 18.9021 105.448 21.8443C108.492 22.8374 111.529 23.8306 114.566 24.8237C115.917 25.264 117.267 25.6985 118.616 26.1272C125.234 28.2153 131.96 30.0998 138.749 31.52C140.324 31.8511 141.896 32.1532 143.467 32.4263C148.929 33.4046 154.456 33.9739 160.003 34.1295C162.155 34.1825 164.307 34.1601 166.459 34.0625C167.547 34.0128 168.635 33.94 169.725 33.844C180.976 32.8806 191.825 29.6504 202.718 26.6164C204.293 26.1769 205.87 25.7399 207.436 25.3178C209.507 24.7617 211.581 24.2229 213.662 23.7263C226.619 20.6153 238.166 22.4029 250.212 28.8187C252.943 30.2761 255.675 32.034 257.363 34.7552C259.052 37.4764 259.461 40.8457 259.774 44.0883C260.216 48.7015 260.519 53.3792 260.616 58.0768C260.616 58.3549 260.616 58.6329 260.633 58.911C260.852 68.4229 260.273 78.0067 258.689 87.2778Z" fill="#0078D4"/>
<path opacity="0.1" d="M172.749 115.093H171.903V115.463V115.928H172.861L172.749 115.093ZM163.152 115.093C163.151 115.1 163.151 115.107 163.152 115.113L163.077 115.803V115.865V115.928H170.428V115.878L170.951 115.093H163.152ZM143.498 115.093V88.112H151.94C151.851 88.0375 151.759 87.963 151.665 87.8935L151.541 87.7991C151.488 87.7569 151.436 87.7172 151.382 87.68C151.327 87.6427 151.198 87.5484 151.101 87.4838C151.004 87.4193 150.945 87.3771 150.853 87.3249L150.796 87.2877H150.783H143.498V85.8104L143.301 85.9047L143.093 86.0214H143.078L143.033 86.0487L142.904 86.1331C142.859 86.1605 142.815 86.1878 142.772 86.2176C142.643 86.3045 142.524 86.3988 142.388 86.4956L142.263 86.595C142.179 86.6595 142.1 86.7265 142.015 86.7936C141.685 87.0642 141.36 87.3473 141.022 87.608C140.937 87.675 140.853 87.7396 140.774 87.8016C140.593 87.9338 140.406 88.0565 140.212 88.1691C140.132 88.219 140.049 88.2646 139.964 88.3057L139.825 88.3702L139.698 88.4248C139.4 88.5506 139.091 88.6487 138.775 88.7178V115.093H126.11C126.11 115.123 126.128 115.15 126.135 115.18C126.205 115.428 126.274 115.677 126.341 115.925H138.777V144.848H138.971L139.192 144.863L139.594 144.893L140.245 144.957L140.538 144.992L140.86 145.032H140.908C141.094 145.057 141.283 145.086 141.474 145.116L141.595 145.136L141.869 145.181L142.261 145.25L143.202 145.201L143.331 145.228C143.383 145.228 143.435 145.248 143.49 145.26V115.928H163.06V115.865V115.803L163.134 115.113C163.133 115.107 163.133 115.1 163.134 115.093H143.498ZM172.749 115.093H171.903V115.463V115.928H172.861L172.749 115.093ZM162.623 115.093L162.539 115.928H170.716L171.272 115.093H162.623ZM143.503 115.093V88.112H151.945C151.856 88.0375 151.764 87.963 151.67 87.8935L151.546 87.7991C151.493 87.7569 151.441 87.7172 151.387 87.68C151.332 87.6427 151.203 87.5484 151.106 87.4838C151.009 87.4193 150.95 87.3771 150.858 87.3249L150.801 87.2877H150.783H143.498V85.8104L143.301 85.9047L143.093 86.0214H143.078L143.033 86.0487L142.904 86.1331C142.859 86.1605 142.815 86.1878 142.772 86.2176C142.643 86.3045 142.524 86.3988 142.388 86.4956L142.263 86.595C142.179 86.6595 142.1 86.7265 142.015 86.7936C141.685 87.0642 141.36 87.3473 141.022 87.608C140.937 87.675 140.853 87.7396 140.774 87.8016C140.593 87.9338 140.406 88.0565 140.212 88.1691C140.132 88.219 140.049 88.2646 139.964 88.3057L139.825 88.3702L139.698 88.4248C139.4 88.5506 139.091 88.6487 138.775 88.7178V115.093H126.11C126.11 115.123 126.128 115.15 126.135 115.18C126.205 115.428 126.277 115.677 126.344 115.925H138.777V144.845L138.971 144.858L139.192 144.873L139.594 144.903L140.245 144.967L140.538 145.002L140.86 145.042H140.908C141.094 145.066 141.283 145.096 141.474 145.126L141.595 145.146L141.869 145.191L142.261 145.26L143.202 145.21L143.331 145.238C143.383 145.238 143.435 145.258 143.49 145.27V115.928H162.539L162.628 115.093H143.503ZM207.484 58.906H260.681C260.681 58.6279 260.681 58.3499 260.663 58.0718H207.484V25.3128C205.905 25.7349 204.328 26.1719 202.766 26.6114V58.0718H144.908L144.761 57.9129L144.982 57.6646L166.502 34.05C164.35 34.1494 162.197 34.1717 160.045 34.1171L143.498 52.2668V32.4213C141.918 32.1482 140.346 31.8461 138.78 31.515V51.3531L114.586 24.8187C111.549 23.8256 108.512 22.8151 105.468 21.8393L138.352 57.9129L138.206 58.0718H77.8475V15.1182C77.0429 15.0272 76.2376 14.9444 75.4314 14.8699C74.6616 14.802 73.8902 14.7491 73.1171 14.711V58.0718H30.8336V24.6524C29.2295 25.5462 27.6568 26.4955 26.1156 27.5002V58.0718H3.11897C3.06186 58.3474 3.00474 58.6279 2.95508 58.906H26.0957V87.2777H4.23639C4.30096 87.5558 4.368 87.8339 4.43505 88.112H26.1057V115.093H7.75753C7.71035 115.371 7.66317 115.649 7.61102 115.928H26.1057V191.369C27.6657 191.662 29.2408 191.866 30.8237 191.983V115.928H73.1171V185.294C74.703 184.779 76.2798 184.24 77.8475 183.678V115.928H138.77V176.534C140.369 176.107 141.935 175.567 143.458 174.918L143.498 174.901V115.928H202.751V144.349C204.322 144.066 205.895 143.795 207.469 143.537V115.928H249.601C249.74 115.649 249.877 115.371 250.011 115.093H207.484V88.112H258.545C258.597 87.8339 258.645 87.5558 258.692 87.2777H207.484V58.906ZM30.8361 58.906H73.1171V87.2777H30.8336L30.8361 58.906ZM30.8361 115.093V88.112H73.1171V115.093H30.8361ZM77.85 58.906H138.77V87.2777H77.8475L77.85 58.906ZM77.85 115.093V88.112H138.77V115.093H77.85ZM202.753 115.093H143.498V88.112H202.751L202.753 115.093ZM202.753 87.2852H143.498V59.6658L144.329 58.906H202.751L202.753 87.2852ZM163.154 115.093C163.153 115.1 163.153 115.107 163.154 115.113L163.08 115.803V115.865V115.928H170.43V115.878L170.954 115.093H163.154ZM172.752 115.093H171.905V115.463V115.928H172.864L172.752 115.093ZM143.5 115.093V88.112H151.943C151.853 88.0375 151.762 87.963 151.667 87.8935L151.543 87.7991C151.491 87.7569 151.439 87.7172 151.384 87.68C151.329 87.6427 151.2 87.5484 151.104 87.4838C151.007 87.4193 150.947 87.3771 150.855 87.3249L150.798 87.2877H150.786H143.498V85.8104L143.301 85.9047L143.093 86.0214H143.078L143.033 86.0487L142.904 86.1331C142.859 86.1605 142.815 86.1878 142.772 86.2176C142.643 86.3045 142.524 86.3988 142.388 86.4956L142.263 86.595C142.179 86.6595 142.1 86.7265 142.015 86.7936C141.685 87.0642 141.36 87.3473 141.022 87.608C140.937 87.675 140.853 87.7396 140.774 87.8016C140.593 87.9338 140.406 88.0565 140.212 88.1691C140.132 88.219 140.049 88.2646 139.964 88.3057L139.825 88.3702L139.698 88.4248C139.4 88.5506 139.091 88.6487 138.775 88.7178V115.093H126.11C126.11 115.123 126.128 115.15 126.135 115.18C126.205 115.428 126.274 115.677 126.341 115.925H138.777V144.848H138.971L139.192 144.863L139.594 144.893L140.245 144.957L140.538 144.992L140.86 145.032H140.908C141.094 145.057 141.283 145.086 141.474 145.116L141.595 145.136L141.869 145.181L142.261 145.25L143.202 145.201L143.331 145.228C143.383 145.228 143.435 145.248 143.49 145.26V115.928H163.06V115.865V115.803L163.134 115.113C163.133 115.107 163.133 115.1 163.134 115.093H143.5Z" fill="#0078D4"/>
<path opacity="0.1" d="M51.163 39.3708H51.5405C51.4113 39.296 51.3027 39.1905 51.2243 39.0636C51.1458 38.9366 51.1001 38.7922 51.091 38.6433C51.091 38.0673 51.7962 37.598 52.6579 37.598H63.6211C64.4828 37.598 65.188 38.0673 65.188 38.6433C65.188 39.2168 64.4828 39.6886 63.6211 39.6886H63.2561C63.3846 39.7638 63.4926 39.8695 63.5706 39.9964C63.6486 40.1233 63.6941 40.2674 63.703 40.4161C63.703 40.9127 63.1915 41.3198 62.5062 41.4316H65.6623C66.5214 41.4316 67.2267 41.9008 67.2267 42.4769C67.2267 43.0529 66.5214 43.5197 65.6623 43.5197H54.6867C53.8275 43.5197 53.1223 43.0504 53.1223 42.4769C53.1223 41.9803 53.6338 41.5731 54.3191 41.4614H51.163C50.3039 41.4614 49.5986 40.9921 49.5986 40.4161C49.5986 39.8401 50.2989 39.3708 51.163 39.3708Z" fill="#0078D4"/>
<path opacity="0.1" d="M169.988 49.3197H170.355C170.226 49.2446 170.117 49.1386 170.039 49.0112C169.96 48.8838 169.915 48.7391 169.906 48.5897C169.906 48.0162 170.611 47.5469 171.473 47.5469H182.436C183.298 47.5469 184.003 48.0162 184.003 48.5897C184.003 49.1658 183.298 49.635 182.436 49.635H182.071C182.2 49.7106 182.308 49.8168 182.386 49.9441C182.464 50.0714 182.509 50.216 182.518 50.365C182.518 50.8616 182.006 51.2663 181.321 51.378H184.477C185.336 51.378 186.041 51.8497 186.041 52.4233C186.041 52.9968 185.336 53.4686 184.477 53.4686H173.516C172.657 53.4686 171.952 52.9993 171.952 52.4233C171.952 51.9267 172.463 51.5195 173.149 51.4103H169.988C169.129 51.4103 168.423 50.9385 168.423 50.365C168.423 49.7915 169.134 49.3197 169.988 49.3197Z" fill="#0078D4"/>
<path opacity="0.1" d="M34.3447 91.8934H34.7122C34.5834 91.8178 34.4753 91.7117 34.3974 91.5843C34.3194 91.457 34.274 91.3125 34.2652 91.1634C34.2652 90.5899 34.9679 90.1182 35.8296 90.1182H46.7928C47.6545 90.1182 48.3597 90.5899 48.3597 91.1634C48.3597 91.7395 47.6545 92.2087 46.7928 92.2087H46.4278C46.5565 92.2843 46.6646 92.3905 46.7426 92.5178C46.8205 92.6451 46.8659 92.7897 46.8747 92.9387C46.8747 93.4353 46.3632 93.84 45.6779 93.9517H48.834C49.6956 93.9517 50.3984 94.421 50.3984 94.997C50.3984 95.573 49.6956 96.0423 48.834 96.0423H37.8683C37.0091 96.0423 36.3039 95.5705 36.3039 94.997C36.3039 94.5004 36.8179 94.0932 37.5008 93.9815H34.3447C33.4855 93.9815 32.7803 93.5122 32.7803 92.9387C32.7803 92.3652 33.4855 91.8934 34.3447 91.8934Z" fill="#0078D4"/>
<path d="M161.138 163.41C160.523 163.897 159.909 164.382 159.295 164.867C158.935 165.153 158.57 165.436 158.207 165.719C157.944 165.925 157.683 166.131 157.415 166.335C156.072 167.37 154.711 168.383 153.323 169.351C152.993 169.582 152.658 169.813 152.33 170.039C149.551 171.94 146.596 173.568 143.505 174.901L143.465 174.918V163.41H161.138Z" fill="#65617D"/>
<path d="M188.77 118.182L189.049 109.604C188.882 109.475 188.713 109.355 188.552 109.236C188.621 106.679 188.474 104.12 188.115 101.586C186.993 93.0082 179.704 92.822 177.648 94.5923C177.376 94.8274 177.079 95.0322 176.762 95.203C176.948 93.979 177.179 92.7524 177.345 91.5408C178.244 85.0059 176.849 77.6541 171.778 73.4308C169.655 71.6655 167.06 70.5804 164.728 69.1031C160.552 66.4688 157.252 62.5782 153.028 60.0134C148.804 57.4486 142.872 56.4877 139.187 59.7849C137.759 61.0611 136.837 62.8314 135.372 64.0629C132.641 66.3571 128.382 66.5085 125.998 69.0709C125.879 69.2 125.765 69.3316 125.656 69.4706C123.669 72.018 124.213 75.6306 124.846 78.7913C125.609 82.595 125.293 85.644 128.556 86.7365C128.568 86.8879 128.578 87.0394 128.596 87.1883C128.861 89.5217 129.634 91.7689 130.859 93.7727C132.084 95.7764 133.732 97.4882 135.688 98.7883L135.159 98.977C133.748 99.4736 132.479 99.9552 131.667 100.285C128.688 101.5 122.415 103.081 122.415 103.081C122.415 103.081 122.266 104.869 122.294 107.506C120.203 109.777 116.714 113.77 115.688 116.136C114.198 119.587 105.78 129.472 103.538 130.964C101.296 132.456 98.8648 134.226 98.8648 134.226C98.8648 134.226 95.3139 136.185 93.6328 136.371C92.4682 136.501 88.8651 135.81 88.8651 135.81C88.8651 135.81 74.4751 118.182 75.4088 131.709C76.3425 145.235 87.8371 145.695 87.8371 145.695L99.426 145.508C99.426 145.508 105.689 146.348 108.492 144.019C110.886 142.032 123.292 131.135 127.277 126.192C127.369 126.293 127.461 126.393 127.558 126.49C127.558 126.49 129.145 124.439 129.333 126.49C129.522 128.54 128.303 129.469 128.958 130.214C129.614 130.959 131.576 133.571 131.667 134.596C131.759 135.622 129.053 139.81 133.629 142.988C133.701 143.038 133.778 143.085 133.863 143.132C134.68 144.992 137.277 146.812 137.277 146.812L151.294 146.626L177.743 148.677C177.743 148.677 178.53 147.984 179.595 146.852C181.018 148.158 182.992 149.277 185.217 148.59C185.217 148.59 188.395 144.769 188.49 142.251C188.49 142.251 186.434 136.935 185.51 135.351C184.586 133.767 186.166 130.316 186.166 130.316C186.166 130.316 187.286 126.959 187.941 126.959C188.597 126.959 188.127 124.724 188.127 124.724C187.879 124.359 187.724 123.939 187.676 123.5C187.627 123.062 187.685 122.618 187.847 122.207C188.395 120.794 188.77 118.182 188.77 118.182Z" fill="url(#paint0_linear_320:86)"/>
<path d="M172.916 116.25L171.922 117.412L167.909 122.085L162.667 122.403L154.277 122.919C154.277 122.919 142.964 109.288 145.089 106.321C145.861 105.251 145.988 103.838 145.834 102.505C145.814 102.321 145.787 102.138 145.755 101.956C145.5 100.546 145.056 99.1759 144.434 97.8846L144.712 97.7579L144.89 97.676L154.783 93.1622L157.232 92.0449C157.354 92.7196 157.58 93.3713 157.902 93.9765C157.949 94.0709 158.002 94.1652 158.056 94.2546C161.431 99.8411 172.253 96.3079 172.253 96.3079L172.916 116.25Z" fill="#EE8E9E"/>
<path d="M187.544 109.276C187.47 112.658 186.918 114.118 186.918 114.118L172.916 116.25L172.392 112.615L170.318 98.2619L172.265 96.3154C173.043 96.4831 173.849 96.47 174.621 96.2772C175.393 96.0843 176.11 95.7169 176.717 95.2031C178.756 93.4402 185.99 93.6264 187.102 102.155C187.429 104.514 187.577 106.895 187.544 109.276Z" fill="#EE8E9E"/>
<path d="M184.229 148.885C184.229 148.885 187.38 145.084 187.474 142.581L184.321 137.295L181.54 134.316L176.345 144.342C176.345 144.342 179.776 150.276 184.229 148.885Z" fill="#DFE5EE"/>
<path opacity="0.1" d="M184.229 148.885C184.229 148.885 187.38 145.084 187.474 142.581L184.321 137.295L181.54 134.316L176.345 144.342C176.345 144.342 179.776 150.276 184.229 148.885Z" fill="black"/>
<path d="M158.208 165.719C157.944 165.925 157.684 166.131 157.415 166.335C156.072 167.37 154.711 168.383 153.323 169.351C152.993 169.582 152.658 169.813 152.33 170.039H138.769H77.8472H73.1168L49.6806 169.2L30.8334 169.041L26.1153 168.793L2.57488 167.551C1.71248 164.719 1.0642 161.826 0.635524 158.896C0.53868 158.236 0.451769 157.573 0.387207 156.91L26.1054 158.335L30.8234 158.601L73.1068 160.959L77.8373 161.222L138.759 164.624L143.448 164.887H143.487L158.208 165.719Z" fill="#D48A9B"/>
<path d="M189.977 147.224C184.81 148.714 179.796 150.633 175.078 153.352C174.703 153.568 174.333 153.789 173.958 154.015C173.583 154.241 173.213 154.467 172.853 154.7C172.493 154.933 172.131 155.164 171.773 155.4L171.222 155.773L170.683 156.14C170.152 156.505 169.628 156.885 169.104 157.252L169.084 157.267C168.739 157.516 168.396 157.764 168.053 158.012C166.119 159.445 164.227 160.944 162.342 162.449C161.945 162.767 161.547 163.084 161.148 163.4L159.31 164.857C158.95 165.143 158.585 165.426 158.222 165.709C157.959 165.915 157.698 166.121 157.43 166.325L143.525 165.662H143.485L138.797 165.443L77.8472 162.556L73.1167 162.33L30.8333 160.321L26.1153 160.095L0.635487 158.896C0.538643 158.236 0.451732 157.573 0.38717 156.91C0.258045 155.773 0.162028 154.63 0.0991211 153.483L26.1128 144.297L30.8308 142.626L35.1168 141.111L42.9263 141.518L60.9765 142.445L73.1242 143.083L77.8546 143.331L80.8766 143.49L81.5992 143.53L107.032 144.858L107.3 144.875L118.648 145.466H118.777H118.852L119.987 145.523L123.855 145.727L128.693 145.975L130.287 146.06L130.587 146.077L132.842 146.194L133.485 146.226L135.638 146.34L136.495 146.387H136.522H136.701L138.715 146.494L141.833 146.658H141.848L142.817 146.708H142.921L143.5 146.74L144.92 146.814L146.162 146.879H146.174L147.567 146.951H147.589L148.645 147.008L149.454 147.05L152.327 147.202L152.844 147.229H153.023L153.271 147.244L154.113 147.289L154.49 147.309L157.42 147.46H157.689L162.014 147.423H162.044L178.49 147.289H178.805H179.138H180.117L185.411 147.246H186.2L189.977 147.224Z" fill="#EFC6CD"/>
<path d="M78.9824 147.564L80.512 155.701L122.1 155.075C122.1 155.075 125.229 155.979 125.159 153.476C125.159 153.476 131.489 147.495 163.549 154.449L151.24 144.783L117.593 146.591L78.5776 145.548L78.9824 147.564Z" fill="#0078D4"/>
<path d="M79.7471 145.618L81.2072 154.449C81.2072 154.449 116.965 153.406 122.587 154.38L118.338 146.313C118.338 146.313 96.717 144.297 79.7471 145.618Z" fill="white"/>
<path opacity="0.1" d="M79.7471 145.618L81.2072 154.449C81.2072 154.449 116.965 153.406 122.587 154.38L118.338 146.313C118.338 146.313 96.717 144.297 79.7471 145.618Z" fill="black"/>
<path d="M80.2808 145.585L81.721 153.799C81.721 153.799 117.024 152.83 122.587 153.734L118.397 146.233C118.397 146.233 97.0372 144.356 80.2808 145.585Z" fill="white"/>
<path opacity="0.1" d="M80.9292 145.839L82.3322 153.521C82.3322 153.521 116.861 152.614 122.311 153.461L118.214 146.442C118.214 146.442 97.3206 144.679 80.9292 145.839Z" fill="black"/>
<path d="M81.207 145.558L82.6175 153.255C82.6175 153.255 117.146 152.349 122.597 153.195L118.489 146.169C118.489 146.169 97.5984 144.409 81.207 145.558Z" fill="white"/>
<path d="M56.7777 124.67C56.7777 124.67 58.5854 127.031 55.9458 130.599C53.3062 134.167 51.126 137.176 52.0075 139.401C52.0075 139.401 55.9806 132.776 59.2336 132.697C62.4865 132.617 60.346 128.652 56.7777 124.67Z" fill="#0078D4"/>
<path opacity="0.1" d="M56.7777 124.67C56.9365 124.899 57.0611 125.15 57.1476 125.415C60.3112 129.139 61.9973 132.615 58.9554 132.689C56.1221 132.769 52.7251 137.834 51.9106 139.115C51.9388 139.211 51.9711 139.308 52.0075 139.405C52.0075 139.405 55.9806 132.781 59.2335 132.702C62.4865 132.622 60.346 128.652 56.7777 124.67Z" fill="black"/>
<path d="M60.1374 127.681C60.1374 128.511 60.043 129.186 59.9288 129.186C59.8146 129.186 59.7202 128.511 59.7202 127.681C59.7202 126.852 59.8369 127.24 59.9512 127.24C60.0654 127.24 60.1374 126.85 60.1374 127.681Z" fill="#FFD037"/>
<path d="M61.2898 128.672C60.5598 129.072 59.9241 129.313 59.8695 129.211C59.8148 129.109 60.3661 128.714 61.0912 128.307C61.8163 127.9 61.5332 128.198 61.5878 128.307C61.6424 128.416 62.0199 128.275 61.2898 128.672Z" fill="#FFD037"/>
<path d="M47.2349 124.67C47.2349 124.67 45.4272 127.031 48.0693 130.599C50.7114 134.167 52.8866 137.176 52.0076 139.401C52.0076 139.401 48.0221 132.776 44.7791 132.697C41.536 132.617 43.6666 128.652 47.2349 124.67Z" fill="#0078D4"/>
<path opacity="0.1" d="M47.2349 124.67C47.0774 124.899 46.9528 125.15 46.8649 125.415C43.7014 129.139 42.0153 132.615 45.0572 132.689C47.8905 132.769 51.2899 137.834 52.1044 139.115C52.0779 139.211 52.0456 139.308 52.0076 139.405C52.0076 139.405 48.0221 132.781 44.7791 132.702C41.536 132.622 43.6666 128.652 47.2349 124.67Z" fill="black"/>
<path d="M43.875 127.681C43.875 128.511 43.9694 129.186 44.0836 129.186C44.1978 129.186 44.2922 128.511 44.2922 127.681C44.2922 126.852 44.1755 127.24 44.0612 127.24C43.947 127.24 43.875 126.85 43.875 127.681Z" fill="#FFD037"/>
<path d="M42.7231 128.672C43.4532 129.072 44.0913 129.313 44.146 129.211C44.2006 129.109 43.6493 128.714 42.9242 128.307C42.1992 127.9 42.4822 128.198 42.4276 128.307C42.373 128.416 41.9931 128.275 42.7231 128.672Z" fill="#FFD037"/>
<path d="M61.7219 136.215L61.6325 136.96L61.5059 138L61.4538 138.435L61.3271 139.478L61.2725 139.912L61.1434 140.955L59.6982 152.803C59.569 153.861 57.8407 154.685 55.7549 154.685H48.2507C46.1649 154.685 44.4391 153.861 44.31 152.803L42.8623 140.955L42.7356 139.912L42.6835 139.478L42.5544 138.435L42.5022 138L42.3756 136.96L42.2837 136.215C42.2117 135.617 43.1453 135.113 44.3273 135.113H59.6882C60.8677 135.113 61.8039 135.617 61.7219 136.215Z" fill="#65617D"/>
<path d="M61.6399 136.952L61.5133 137.995H42.5021L42.3755 136.952H61.6399Z" fill="#9D9CB5"/>
<path d="M61.461 138.43L61.3344 139.473H42.6833L42.5542 138.43H61.461Z" fill="#9D9CB5"/>
<path d="M61.2797 139.907L61.153 140.947H42.862L42.7354 139.907H61.2797Z" fill="#9D9CB5"/>
<path d="M84.6389 135.257C84.6389 135.257 79.8166 130.621 80.0028 136.647C80.1891 142.673 84.6389 135.257 84.6389 135.257Z" fill="#EE8E9E"/>
<path d="M127.943 124.687C127.836 125.154 127.317 125.929 126.508 126.899C122.326 131.935 110.429 142.4 108.097 144.342C105.316 146.661 99.1034 145.831 99.1034 145.831L87.6063 146.017C87.6063 146.017 76.2011 145.553 75.2724 132.113C74.3437 118.674 88.6244 136.193 88.6244 136.193C88.6244 136.193 92.2002 136.878 93.3549 136.749C95.0235 136.565 98.5472 134.619 98.5472 134.619C98.5472 134.619 100.958 132.856 103.183 131.373C105.408 129.891 113.754 120.062 115.239 116.63C116.18 114.453 119.212 110.892 121.305 108.583C122.507 107.255 123.399 106.349 123.399 106.349C123.399 106.349 128.591 121.812 127.943 124.687Z" fill="#EE8E9E"/>
<path opacity="0.1" d="M127.943 124.687C127.836 125.154 127.317 125.929 126.507 126.899C122.286 122.602 121.405 114.026 121.305 108.573C122.507 107.245 123.398 106.339 123.398 106.339C123.398 106.339 128.591 121.812 127.943 124.687Z" fill="black"/>
<path opacity="0.1" d="M171.92 117.412L167.909 122.085L162.668 122.403L154.277 122.919C154.277 122.919 142.964 109.288 145.089 106.321C145.861 105.251 145.988 103.839 145.834 102.505C145.814 102.321 145.787 102.138 145.755 101.956C145.5 100.546 145.056 99.176 144.434 97.8846L144.712 97.758L144.89 97.676C145.332 98.9059 145.637 100.181 145.799 101.477C145.827 101.654 145.851 101.837 145.876 102.026C145.963 102.696 146.043 103.441 146.125 104.261C146.77 111.764 151.491 114.587 153.621 115.486C154.306 115.775 154.976 116.099 155.628 116.456C157.677 117.587 160.041 118.014 162.357 117.673C167.616 116.983 171.905 113.162 171.905 113.162L171.927 116.923L171.92 117.412Z" fill="black"/>
<path d="M172.081 146.569C172.081 146.569 137.587 146.474 133.041 143.323C128.494 140.173 131.188 135.999 131.094 134.979C131 133.958 129.055 131.364 128.407 130.619C127.759 129.874 128.963 128.95 128.777 126.912C128.591 124.873 127.017 126.912 127.017 126.912C120.523 120.327 121.914 103.64 121.914 103.64C121.914 103.64 128.122 102.066 131.101 100.857C131.908 100.529 133.165 100.062 134.578 99.558L135.102 99.3693C138.745 98.0658 143.075 96.5934 143.075 96.5934C143.075 96.5934 143.907 96.005 144.744 97.7653C145.126 98.5748 145.511 99.8783 145.819 101.961C145.846 102.138 145.871 102.321 145.896 102.51C145.983 103.18 146.062 103.925 146.144 104.745C146.79 112.248 151.51 115.071 153.641 115.97C154.326 116.259 154.996 116.583 155.647 116.941C157.697 118.071 160.061 118.498 162.377 118.157C167.636 117.467 171.925 113.646 171.925 113.646L171.947 117.407L172.012 128.709L172.081 146.569Z" fill="#DFE5EE"/>
<path d="M170.596 131.92L170.04 135.443C170.04 135.443 156.315 138.872 150.939 139.892C145.563 140.913 133.969 139.614 133.135 141.839C132.301 144.063 136.659 147.125 136.659 147.125L150.564 146.939L176.806 148.979C176.806 148.979 186.821 140.17 183.576 134.05C180.33 127.93 170.596 131.92 170.596 131.92Z" fill="#EE8E9E"/>
<path opacity="0.1" d="M142.315 104.104C142.315 104.104 136.008 109.296 137.215 111.801C138.422 114.306 142.315 104.104 142.315 104.104Z" fill="black"/>
<path opacity="0.1" d="M134.526 113.467C134.526 113.467 128.127 124.501 128.499 125.335C128.872 126.169 130.632 129.136 130.538 126.912C130.443 124.687 134.526 113.467 134.526 113.467Z" fill="black"/>
<path opacity="0.1" d="M137.123 115.416C137.123 115.416 135.633 122.276 134.156 125.151C132.678 128.027 137.123 115.416 137.123 115.416Z" fill="black"/>
<path opacity="0.1" d="M158.069 94.2621C156.843 96.5103 155.096 98.4322 152.975 99.8671C150.854 101.302 148.42 102.208 145.876 102.51H145.847C141.846 102.98 137.815 101.925 134.558 99.5556C138.283 98.2099 143.056 96.591 143.056 96.591C143.056 96.591 143.887 96.0026 144.724 97.763L157.244 92.0524C157.385 92.8323 157.664 93.5807 158.069 94.2621Z" fill="black"/>
<path d="M160.026 86.0239C160.03 88.8161 159.302 91.5608 157.915 93.984C157.252 95.1395 156.449 96.2086 155.524 97.167C152.942 99.8543 149.502 101.555 145.799 101.974H145.767C145.175 102.042 144.58 102.076 143.984 102.076C140.043 102.076 136.239 100.625 133.299 97.9999C130.359 95.375 128.489 91.7597 128.045 87.8438C127.976 87.243 127.942 86.6386 127.943 86.0338C127.943 81.7799 129.633 77.7003 132.641 74.6923C135.65 71.6844 139.73 69.9945 143.984 69.9945C148.239 69.9945 152.319 71.6844 155.327 74.6923C158.335 77.7003 160.026 81.7799 160.026 86.0338V86.0239Z" fill="#EE8E9E"/>
<path opacity="0.1" d="M170.413 116.374L171.902 114.14C171.902 114.14 180.062 104.405 188.043 110.617L187.765 119.148C187.765 119.148 187.392 121.742 186.836 123.12C186.676 123.529 186.618 123.971 186.667 124.407C186.715 124.844 186.869 125.262 187.114 125.626C187.114 125.626 187.579 127.86 186.931 127.86C186.283 127.86 185.168 131.197 185.168 131.197C185.168 131.197 183.591 134.629 184.519 136.205C185.448 137.782 187.487 143.065 187.487 143.065C187.487 143.065 184.241 141.119 183.313 137.874C183.313 137.874 175.431 131.753 169.31 135.639L170.413 116.374Z" fill="black"/>
<path opacity="0.1" d="M187.544 109.276C187.469 112.658 186.918 114.118 186.918 114.118L172.916 116.25L172.392 112.615C174.224 110.704 180.889 104.626 187.544 109.276Z" fill="black"/>
<path d="M170.413 115.878L171.902 113.643C171.902 113.643 180.062 103.908 188.043 110.12L187.765 118.651C187.765 118.651 187.392 121.246 186.836 122.624C186.676 123.033 186.618 123.474 186.667 123.911C186.715 124.347 186.869 124.765 187.114 125.129C187.114 125.129 187.579 127.364 186.931 127.364C186.283 127.364 185.168 130.701 185.168 130.701C185.168 130.701 183.591 134.132 184.519 135.709C185.448 137.285 187.487 142.569 187.487 142.569C187.487 142.569 184.241 140.622 183.313 137.377C183.313 137.377 175.431 131.257 169.31 135.142L170.413 115.878Z" fill="#DFE5EE"/>
<path opacity="0.1" d="M183.578 109.574C183.578 109.574 170.134 117.827 170.782 125.064C170.782 125.064 178.294 111.799 183.578 109.574Z" fill="black"/>
<path opacity="0.1" d="M171.917 117.415L171.982 128.717C169.439 128.831 167.043 128.501 165.148 126.855C163.83 125.708 163.062 124.123 162.665 122.41C162.369 121.03 162.261 119.616 162.342 118.207C162.341 118.193 162.341 118.179 162.342 118.165C162.499 115.044 163.216 111.923 162.839 108.822C162.461 105.72 160.582 102.448 157.512 101.795C156.907 101.663 156.226 101.616 155.794 101.172C155.317 100.675 155.34 99.9031 155.392 99.2154L155.481 98.0559C155.504 97.7579 155.514 97.4625 155.514 97.167C155.512 94.5309 154.595 91.9773 152.919 89.9422C151.243 87.9071 148.913 86.5169 146.326 86.009L146.226 85.9916C145.362 85.8178 144.463 85.6465 143.599 85.8451C141.955 86.225 140.893 87.819 139.378 88.5763C136.473 90.0263 131.628 88.4397 128.586 87.9407C128.387 87.9084 128.199 87.8711 128.017 87.8289C127.948 87.2281 127.914 86.6237 127.916 86.0189C127.917 83.5623 128.482 81.1387 129.568 78.9351C130.655 76.7316 132.233 74.807 134.181 73.3098C136.129 71.8126 138.394 70.7828 140.803 70.2999C143.212 69.817 145.7 69.8938 148.075 70.5245C150.45 71.1551 152.648 72.3228 154.499 73.9373C156.351 75.5519 157.807 77.5702 158.756 79.8365C159.704 82.1029 160.119 84.5568 159.968 87.0088C159.817 89.4609 159.106 91.8456 157.887 93.979C157.935 94.0733 157.987 94.1677 158.041 94.2571C161.416 99.8435 172.238 96.3104 172.238 96.3104L172.888 116.245L171.917 117.415Z" fill="black"/>
<path d="M139.962 88.3007C141.466 87.5409 142.529 85.9469 144.183 85.5695C145.045 85.3709 145.944 85.5422 146.813 85.7135L146.912 85.7334C149.647 86.2745 152.089 87.8 153.774 90.0207C155.46 92.2414 156.272 95.0032 156.058 97.7828L155.968 98.9423C155.913 99.6275 155.891 100.405 156.373 100.896C156.802 101.341 157.483 101.393 158.089 101.517C161.158 102.172 163.038 105.428 163.415 108.546C163.793 111.664 163.063 114.795 162.919 117.929C162.774 121.062 163.351 124.521 165.72 126.579C169.444 129.807 175.106 127.969 180.035 127.674C177.855 127.674 176.221 125.425 176.102 123.25C175.982 121.075 176.951 119.004 177.877 117.042C178.803 115.081 179.732 112.97 179.526 110.8C179.243 107.821 176.894 105.435 175.995 102.567C174.947 99.2303 175.958 95.6475 176.432 92.1789C177.323 85.6837 175.935 78.3717 170.907 74.1732C168.801 72.4178 166.226 71.3377 163.912 69.8679C159.765 67.2385 156.495 63.3826 152.303 60.8253C148.111 58.2679 142.226 57.3195 138.569 60.5968C137.153 61.8656 136.239 63.6259 134.784 64.85C131.941 67.246 127.422 67.2907 125.142 70.2304C123.18 72.7604 123.712 76.3531 124.34 79.494C125.177 83.6825 124.705 86.9426 129.182 87.6874C132.212 88.1666 137.054 89.7532 139.962 88.3007Z" fill="#603556"/>
<path opacity="0.1" d="M176.851 125.673C173.263 126.112 169.707 126.338 167.095 124.074C164.726 122.016 164.142 118.559 164.294 115.424C164.445 112.288 165.17 109.154 164.79 106.038C164.41 102.922 162.533 99.6673 159.464 99.0118C158.858 98.8827 158.18 98.8355 157.748 98.3911C157.269 97.8945 157.289 97.1198 157.343 96.4346L157.433 95.2751C157.647 92.4958 156.835 89.7344 155.149 87.5141C153.464 85.2937 151.022 83.7688 148.287 83.2282L148.188 83.2083C147.319 83.037 146.42 82.8657 145.558 83.0643C143.914 83.4442 142.852 85.0506 141.337 85.7955C138.429 87.2479 133.589 85.6614 130.543 85.1623C126.073 84.4299 126.54 81.1649 125.7 76.9689C125.231 74.6251 124.816 72.028 125.452 69.8083C125.333 69.9349 125.219 70.0566 125.109 70.208C123.148 72.7381 123.679 76.3308 124.307 79.4716C125.144 83.6602 124.672 86.9202 129.149 87.6651C132.194 88.1616 137.036 89.7507 139.944 88.2982C141.449 87.5384 142.511 85.9444 144.165 85.5671C145.027 85.3684 145.926 85.5397 146.795 85.7111L146.894 85.7309C149.629 86.2721 152.071 87.7975 153.757 90.0182C155.442 92.239 156.254 95.0007 156.04 97.7803L155.95 98.9398C155.896 99.625 155.873 100.402 156.355 100.894C156.785 101.338 157.465 101.39 158.071 101.515C161.14 102.17 163.02 105.425 163.397 108.544C163.775 111.662 163.047 114.793 162.901 117.926C162.754 121.06 163.333 124.518 165.702 126.577C169.426 129.804 175.088 127.967 180.017 127.672C178.679 127.679 177.554 126.83 176.851 125.673Z" fill="black"/>
<path d="M76.0742 133.956L91.3829 128.245C91.7448 128.11 92.1456 128.124 92.4971 128.284C92.8486 128.444 93.1222 128.737 93.2577 129.099C93.3928 129.461 93.3788 129.862 93.2186 130.213C93.0584 130.565 92.7653 130.838 92.4035 130.974L77.0948 136.684L73.812 136.357L76.0742 133.956Z" fill="#5C5C8E"/>
<path opacity="0.1" d="M92.796 128.632C92.931 128.995 92.9166 129.395 92.7559 129.747C92.5952 130.099 92.3015 130.372 91.9393 130.507L76.6206 136.237L74.1573 135.989L73.8022 136.367L77.085 136.694L92.3937 130.984C92.7555 130.848 93.0486 130.575 93.2088 130.223C93.369 129.872 93.3831 129.471 93.2479 129.109C93.1351 128.807 92.9256 128.552 92.652 128.382C92.7071 128.461 92.7553 128.545 92.796 128.632Z" fill="white"/>
<path d="M76.0766 133.956L77.0947 136.684L74.403 136.414L73.8145 136.354L74.619 135.5L76.0766 133.956Z" fill="#EFC8C4"/>
<path d="M74.6169 135.493C74.6798 135.54 74.7337 135.598 74.7759 135.664C74.801 135.704 74.8144 135.75 74.8144 135.797C74.8144 135.844 74.801 135.89 74.7759 135.93C74.7335 135.973 74.684 136.009 74.6293 136.036C74.5679 136.077 74.5163 136.132 74.4785 136.195C74.4407 136.259 74.4176 136.33 74.4108 136.404L73.8198 136.347L74.6169 135.493Z" fill="#727A9C"/>
<path d="M124.141 151.383C124.141 151.383 137.401 148.6 159.65 152.128L150.934 145.732L135.077 142.487L123.858 145.466L124.141 151.383Z" fill="white"/>
<path opacity="0.1" d="M124.141 151.383C124.141 151.383 137.401 148.6 159.65 152.128L150.934 145.732L135.077 142.487L123.858 145.466L124.141 151.383Z" fill="black"/>
<path d="M122.587 154.392C122.587 154.392 129.264 136.332 163.559 154.449L151.25 146.529C151.25 146.529 121.762 138.383 118.355 147.77L122.587 154.392Z" fill="white"/>
<path opacity="0.1" d="M122.587 154.38C122.587 154.38 129.264 135.07 163.559 154.727L151.25 146.137C151.25 146.137 121.752 136.394 118.338 146.591L122.587 154.38Z" fill="black"/>
<path d="M122.587 154.387C122.587 154.387 129.264 134.792 163.559 154.449L151.25 145.859C151.25 145.859 121.762 136.394 118.355 146.603L122.587 154.387Z" fill="white"/>
<path opacity="0.1" d="M122.586 154.392C122.586 154.392 129.264 132.615 163.559 154.727L151.24 145.061C151.24 145.061 121.752 135.13 118.345 146.591L122.586 154.392Z" fill="black"/>
<path d="M122.586 154.38C122.586 154.38 129.264 132.337 163.559 154.449L151.24 144.783C151.24 144.783 121.752 134.852 118.345 146.313L122.586 154.38Z" fill="white"/>
<path opacity="0.1" d="M225.474 152.304C225.474 152.304 217.243 161.121 224.652 165.404C224.652 165.404 225.621 166.571 227.004 165.96C227.004 165.96 226.537 165.545 227.473 164.746C227.804 164.459 228.1 164.134 228.355 163.777C228.7 163.296 228.88 162.716 228.866 162.124C228.866 162.124 229.944 158.625 226.52 154.084C226.52 154.084 226.209 152.565 225.946 152.398L225.32 154.516C225.32 154.516 226.892 154.916 227.483 156.113C227.483 156.113 225.412 154.486 225.211 154.827C225.171 154.896 224.931 155.966 224.931 155.966C224.931 155.966 227.662 156.671 228.516 158.548C228.516 158.548 226.309 156.282 224.836 156.371L224.568 158.005C224.568 158.005 227.491 158.61 228.541 160.711C228.541 160.711 226.152 158.419 224.528 158.367L224.481 160.008C224.481 160.008 227.319 160.654 228.186 162.407C228.186 162.407 225.159 160.041 224.496 160.386C224.496 160.386 224.543 161.898 224.744 162.293C224.744 162.293 226.771 162.789 227.183 163.867C227.183 163.867 224.993 162.499 224.804 162.707C224.804 162.707 225.392 164.659 226.212 165.491C226.212 165.491 224.911 164.351 224.503 162.814C224.503 162.814 223.952 163.775 224.091 164.718C224.091 164.718 223.279 163.82 224.367 162.34C224.367 162.34 223.97 160.8 224.069 160.557C224.069 160.557 222.79 161.866 222.462 163.04C222.462 163.04 222.214 161.57 224.066 160.132V158.479C224.066 158.479 222.283 160.12 221.916 161.136C221.916 161.136 221.891 159.596 224.104 158.064L224.352 156.458C224.352 156.458 222.708 157.754 222.055 158.797C222.055 158.797 222.338 157.362 224.439 156.001L224.729 154.948C224.729 154.948 223.547 155.917 223.24 156.224C222.932 156.532 222.815 156.473 222.815 156.473C223.299 155.64 224.003 154.958 224.851 154.501C224.851 154.501 225.611 152.361 225.474 152.304Z" fill="#0078D4"/>
<path opacity="0.1" d="M262.273 8.84399C262.273 8.84399 251.275 13.8097 256.46 20.6103C256.46 20.6103 256.904 22.0628 258.414 22.033C258.414 22.033 258.143 21.4694 259.315 21.092C259.732 20.9559 260.13 20.77 260.502 20.5383C261.006 20.2276 261.396 19.7614 261.612 19.21C261.612 19.21 263.956 16.3994 262.548 10.8899C262.548 10.8899 262.849 9.36788 262.67 9.11214L261.274 10.8253C261.274 10.8253 262.571 11.7986 262.655 13.1319C262.655 13.1319 261.374 10.8328 261.056 11.0711C260.991 11.1183 260.358 12.0121 260.358 12.0121C260.358 12.0121 262.593 13.7154 262.67 15.7786C262.67 15.7786 261.508 12.834 260.112 12.3473L259.236 13.7526C259.236 13.7526 261.699 15.4385 261.863 17.7823C261.863 17.7823 260.542 14.7482 259.064 14.0729L258.386 15.5626C258.386 15.5626 260.758 17.2535 260.87 19.205C260.87 19.205 258.99 15.8531 258.245 15.9177C258.245 15.9177 257.706 17.3279 257.748 17.7724C257.748 17.7724 259.422 19.0138 259.392 20.1659C259.392 20.1659 257.902 18.0604 257.654 18.1796C257.654 18.1796 257.443 20.2056 257.88 21.2906C257.88 21.2906 257.118 19.7363 257.336 18.1622C257.336 18.1622 256.455 18.8375 256.221 19.7612C256.221 19.7612 255.819 18.6166 257.393 17.6706C257.393 17.6706 257.619 16.0989 257.805 15.9127C257.805 15.9127 256.119 16.6253 255.369 17.5738C255.369 17.5738 255.705 16.1213 257.972 15.5105L258.617 13.991C258.617 13.991 256.34 14.8153 255.608 15.6098C255.608 15.6098 256.179 14.1797 258.811 13.6235L259.658 12.2381C259.658 12.2381 257.642 12.8017 256.636 13.5093C256.636 13.5093 257.453 12.2977 259.916 11.8507L260.589 10.9917C260.589 10.9917 259.124 11.4287 258.714 11.5925C258.305 11.7564 258.218 11.6596 258.218 11.6596C258.989 11.0756 259.909 10.718 260.872 10.6267C260.872 10.6267 262.362 8.94331 262.273 8.84399Z" fill="#0078D4"/>
<path opacity="0.1" d="M157.887 11.9178C157.887 11.9178 141.364 16.6352 149.398 23.6568C149.398 23.6568 150.11 25.1465 152.397 25.1465C152.397 25.1465 151.97 24.5705 153.738 24.2204C154.347 24.098 154.943 23.9218 155.521 23.694C156.202 23.4553 156.782 22.9922 157.165 22.3806C157.165 22.3806 160.641 19.5998 158.359 13.9935C158.359 13.9935 158.774 12.464 158.496 12.2008L156.43 13.8941C156.43 13.8941 158.416 14.9146 158.583 16.2628C158.583 16.2628 156.579 13.9066 156.1 14.1375C156.003 14.1846 155.067 15.0685 155.067 15.0685C155.067 15.0685 158.513 16.8512 158.67 18.9393C158.67 18.9393 156.832 15.9326 154.697 15.4037L153.405 16.7991C153.405 16.7991 157.18 18.5694 157.49 20.943C157.49 20.943 155.409 17.8419 153.155 17.1194L152.161 18.6091C152.161 18.6091 155.797 20.3819 156.035 22.3582C156.035 22.3582 153.097 18.9195 151.97 18.9617C151.97 18.9617 151.193 20.3769 151.262 20.8263C151.262 20.8263 153.83 22.1373 153.818 23.2893C153.818 23.2893 151.498 21.1193 151.116 21.2335C151.116 21.2335 150.853 23.2769 151.543 24.3843C151.543 24.3843 150.346 22.7927 150.634 21.2087C150.634 21.2087 149.321 21.8666 148.99 22.7927C148.99 22.7927 148.35 21.6283 150.709 20.7146C150.709 20.7146 151.009 19.1305 151.285 18.9468C151.285 18.9468 148.752 19.6221 147.642 20.5606C147.642 20.5606 148.109 19.1007 151.526 18.5446L152.464 17.025C152.464 17.025 149.037 17.7997 147.95 18.5818C147.95 18.5818 148.777 17.1517 152.75 16.6551L153.991 15.2771C153.991 15.2771 150.952 15.7911 149.447 16.4813C149.447 16.4813 150.652 15.2771 154.369 14.8923L155.362 14.0431C155.362 14.0431 153.155 14.4453 152.539 14.5993C151.923 14.7532 151.794 14.6539 151.794 14.6539C153.035 14.0531 154.389 13.7214 155.767 13.6806C155.767 13.6806 158.032 12.0221 157.887 11.9178Z" fill="#0078D4"/>
<path opacity="0.1" d="M206.635 196.003C206.635 196.003 214.953 187.265 207.586 182.91C207.586 182.91 206.627 181.733 205.239 182.329C205.239 182.329 205.704 182.749 204.76 183.541C204.426 183.825 204.127 184.146 203.868 184.499C203.518 184.977 203.333 185.556 203.342 186.148C203.342 186.148 202.227 189.636 205.609 194.21C205.609 194.21 205.905 195.732 206.165 195.903L206.814 193.79C206.814 193.79 205.244 193.376 204.666 192.174C204.666 192.174 206.719 193.818 206.923 193.48C206.965 193.41 207.216 192.345 207.216 192.345C207.216 192.345 204.484 191.6 203.655 189.728C203.655 189.728 205.84 192.017 207.315 191.941L207.598 190.309C207.598 190.309 204.683 189.676 203.647 187.578C203.647 187.578 206.014 189.892 207.638 189.962L207.7 188.318C207.7 188.318 204.867 187.633 204.008 185.87C204.008 185.87 207.012 188.268 207.678 187.928C207.678 187.928 207.645 186.419 207.429 186.021C207.429 186.021 205.408 185.49 205.006 184.422C205.006 184.422 207.184 185.813 207.372 185.604C207.372 185.604 206.804 183.648 205.992 182.809C205.992 182.809 207.283 183.961 207.675 185.5C207.675 185.5 208.236 184.544 208.105 183.601C208.105 183.601 208.909 184.509 207.807 185.977C207.807 185.977 208.189 187.521 208.087 187.762C208.087 187.762 209.379 186.466 209.716 185.306C209.716 185.306 209.965 186.779 208.085 188.196L208.06 189.85C208.06 189.85 209.858 188.226 210.235 187.213C210.235 187.213 210.235 188.755 208.018 190.265L207.77 191.869C207.77 191.869 209.426 190.587 210.089 189.552C210.089 189.552 209.791 190.982 207.678 192.323L207.377 193.373C207.377 193.373 208.569 192.417 208.887 192.112C209.205 191.806 209.314 191.864 209.314 191.864C208.823 192.692 208.111 193.368 207.258 193.815C207.258 193.815 206.511 195.943 206.635 196.003Z" fill="#0078D4"/>
<path opacity="0.1" d="M125.502 0.30789C125.502 0.30789 126.92 12.2852 134.975 9.39518C134.975 9.39518 136.492 9.4076 136.92 7.9576C136.92 7.9576 136.299 8.04699 136.294 6.81548C136.288 6.3774 136.231 5.94153 136.122 5.51695C135.98 4.94252 135.652 4.43065 135.191 4.0595C135.191 4.0595 133.215 0.975782 127.526 0.672872C127.526 0.672872 126.165 -0.0719879 125.867 0.0223611L127.081 1.86713C127.081 1.86713 128.4 0.923642 129.696 1.24641C129.696 1.24641 127.119 1.77775 127.25 2.15018C127.275 2.22715 127.935 3.09863 127.935 3.09863C127.935 3.09863 130.257 1.45994 132.244 2.01859C132.244 2.01859 129.088 2.23708 128.204 3.42141L129.264 4.6827C129.264 4.6827 131.613 2.84042 133.9 3.38913C133.9 3.38913 130.607 3.73673 129.517 4.94092L130.754 6.03835C130.754 6.03835 133.078 4.28544 134.975 4.75719C134.975 4.75719 131.211 5.54177 131.047 6.26925C131.047 6.26925 132.231 7.20778 132.668 7.30709C132.668 7.30709 134.367 6.088 135.445 6.46043C135.445 6.46043 132.986 7.24999 133.023 7.52807C133.023 7.52807 134.893 8.33748 136.058 8.2481C136.058 8.2481 134.347 8.49639 132.912 7.82601C132.912 7.82601 133.289 8.86633 134.101 9.37035C134.101 9.37035 132.889 9.4076 132.46 7.63235C132.46 7.63235 131.029 6.94211 130.908 6.7112C130.908 6.7112 131.082 8.53115 131.76 9.53174C131.76 9.53174 130.473 8.78688 130.573 6.43064L129.331 5.35556C129.331 5.35556 129.433 7.77635 129.969 8.71488C129.969 8.71488 128.777 7.73911 129.036 5.0601L127.97 3.83604C127.97 3.83604 127.898 5.92662 128.271 7.09853C128.271 7.09853 127.359 5.95641 127.677 3.47355L127.059 2.57227C127.059 2.57227 127.037 4.09923 127.059 4.54118C127.081 4.98313 126.974 5.02534 126.974 5.02534C126.648 4.1156 126.581 3.13306 126.781 2.18742C126.781 2.18742 125.626 0.248301 125.502 0.30789Z" fill="#0078D4"/>
<path opacity="0.1" d="M185.709 168.837C185.709 168.837 174.083 165.61 173.71 174.161C173.71 174.161 173.124 175.561 174.304 176.505C174.304 176.505 174.455 175.899 175.597 176.358C176.005 176.519 176.43 176.632 176.864 176.693C177.45 176.778 178.049 176.668 178.567 176.38C178.567 176.38 182.168 175.72 184.611 170.585C184.611 170.585 185.816 169.61 185.853 169.297L183.685 169.721C183.685 169.721 184.057 171.3 183.268 172.378C183.268 172.378 183.764 169.791 183.36 169.771C183.278 169.771 182.22 170.047 182.22 170.047C182.22 170.047 182.856 172.793 181.587 174.419C181.587 174.419 182.58 171.415 181.818 170.148L180.243 170.667C180.243 170.667 181.058 173.537 179.682 175.444C179.682 175.444 180.611 172.269 179.906 170.804L178.431 171.521C178.431 171.521 179.176 174.337 178.016 175.916C178.016 175.916 178.716 172.137 178.103 171.708C178.103 171.708 176.787 172.452 176.531 172.815C176.531 172.815 177.028 174.848 176.263 175.705C176.263 175.705 176.461 173.13 176.191 173.061C176.191 173.061 174.731 174.483 174.373 175.596C174.373 175.596 174.783 173.915 175.957 172.845C175.957 172.845 174.85 172.8 174.078 173.359C174.078 173.359 174.5 172.224 176.312 172.505C176.312 172.505 177.494 171.439 177.755 171.417C177.755 171.417 176.017 170.886 174.82 171.134C174.82 171.134 176.007 170.23 178.14 171.214L179.61 170.469C179.61 170.469 177.331 169.647 176.26 169.788C176.26 169.788 177.614 169.043 179.985 170.307L181.52 169.783C181.52 169.783 179.613 168.927 178.386 168.827C178.386 168.827 179.789 168.418 181.967 169.652L183.034 169.421C183.034 169.421 181.629 168.82 181.209 168.676C180.79 168.532 180.792 168.428 180.792 168.428C181.754 168.472 182.685 168.781 183.481 169.322C183.481 169.322 185.716 168.974 185.709 168.837Z" fill="#0078D4"/>
</g>
<defs>
<linearGradient id="paint0_linear_320:86" x1="132.206" y1="148.793" x2="132.206" y2="57.6695" gradientUnits="userSpaceOnUse">
<stop stop-color="#808080" stop-opacity="0.25"/>
<stop offset="0.54" stop-color="#808080" stop-opacity="0.12"/>
<stop offset="1" stop-color="#808080" stop-opacity="0.1"/>
</linearGradient>
<clipPath id="clip0_320:86">
<rect width="263" height="196" fill="white"/>
</clipPath>
</defs>
</svg>
