<svg width="325" height="214" viewBox="0 0 325 214" fill="none" xmlns="http://www.w3.org/2000/svg">
<g clip-path="url(#clip0)">
<path d="M180.783 0.146484H0.110352V95.045H180.783V0.146484Z" fill="#F2F2F2"/>
<path d="M180.673 0H0V11.0014H180.673V0Z" fill="#E6E6E6"/>
<path d="M177.401 15.4619H4.19604V90.0428H177.401V15.4619Z" fill="#203A61"/>
<path d="M17.1207 7.29252C18.1255 7.29252 18.94 6.47775 18.94 5.47268C18.94 4.4676 18.1255 3.65283 17.1207 3.65283C16.116 3.65283 15.3015 4.4676 15.3015 5.47268C15.3015 6.47775 16.116 7.29252 17.1207 7.29252Z" fill="#203A61"/>
<path d="M24.0263 7.29252C25.031 7.29252 25.8455 6.47775 25.8455 5.47268C25.8455 4.4676 25.031 3.65283 24.0263 3.65283C23.0215 3.65283 22.207 4.4676 22.207 5.47268C22.207 6.47775 23.0215 7.29252 24.0263 7.29252Z" fill="#203A61"/>
<path d="M10.1974 7.29252C11.2021 7.29252 12.0166 6.47775 12.0166 5.47268C12.0166 4.4676 11.2021 3.65283 10.1974 3.65283C9.19268 3.65283 8.37817 4.4676 8.37817 5.47268C8.37817 6.47775 9.19268 7.29252 10.1974 7.29252Z" fill="#203A61"/>
<path d="M33.7044 71.8312C35.4696 71.8312 36.9007 70.3997 36.9007 68.6338C36.9007 66.8679 35.4696 65.4364 33.7044 65.4364C31.9391 65.4364 30.5081 66.8679 30.5081 68.6338C30.5081 70.3997 31.9391 71.8312 33.7044 71.8312Z" fill="#E4E4E4"/>
<path d="M61.9385 63.4575C63.7038 63.4575 65.1348 62.026 65.1348 60.2601C65.1348 58.4943 63.7038 57.0627 61.9385 57.0627C60.1732 57.0627 58.7422 58.4943 58.7422 60.2601C58.7422 62.026 60.1732 63.4575 61.9385 63.4575Z" fill="#E4E4E4"/>
<path d="M90.1725 71.8312C91.9378 71.8312 93.3688 70.3997 93.3688 68.6338C93.3688 66.8679 91.9378 65.4364 90.1725 65.4364C88.4072 65.4364 86.9762 66.8679 86.9762 68.6338C86.9762 70.3997 88.4072 71.8312 90.1725 71.8312Z" fill="#E4E4E4"/>
<path d="M118.407 29.5928C120.172 29.5928 121.603 28.1613 121.603 26.3954C121.603 24.6295 120.172 23.198 118.407 23.198C116.641 23.198 115.21 24.6295 115.21 26.3954C115.21 28.1613 116.641 29.5928 118.407 29.5928Z" fill="#E4E4E4"/>
<path d="M146.641 29.1995C148.406 29.1995 149.837 27.768 149.837 26.0021C149.837 24.2362 148.406 22.8047 146.641 22.8047C144.875 22.8047 143.444 24.2362 143.444 26.0021C143.444 27.768 144.875 29.1995 146.641 29.1995Z" fill="#E4E4E4"/>
<path d="M90.2397 69.35L61.9383 60.554L34.0241 69.0603L33.385 68.2073L61.9383 59.2224L90.1054 67.9175L118.095 25.9466L118.208 25.9007L146.442 25.8511L146.84 26.84L118.718 26.8444L90.2397 69.35Z" fill="#E4E4E4"/>
<path d="M211.043 124.433H41.0186V213.738H211.043V124.433Z" fill="#F2F2F2"/>
<path d="M210.939 124.295H40.9146V134.648H210.939V124.295Z" fill="#E6E6E6"/>
<path d="M207.86 138.248H44.6035V209.19H207.86V138.248Z" fill="#203A61"/>
<path d="M57.0263 131.157C57.9718 131.157 58.7383 130.391 58.7383 129.445C58.7383 128.499 57.9718 127.732 57.0263 127.732C56.0808 127.732 55.3143 128.499 55.3143 129.445C55.3143 130.391 56.0808 131.157 57.0263 131.157Z" fill="#203A61"/>
<path d="M63.5247 131.157C64.4702 131.157 65.2367 130.391 65.2367 129.445C65.2367 128.499 64.4702 127.732 63.5247 127.732C62.5792 127.732 61.8127 128.499 61.8127 129.445C61.8127 130.391 62.5792 131.157 63.5247 131.157Z" fill="#203A61"/>
<path d="M50.511 131.157C51.4565 131.157 52.223 130.391 52.223 129.445C52.223 128.499 51.4565 127.732 50.511 127.732C49.5654 127.732 48.799 128.499 48.799 129.445C48.799 130.391 49.5654 131.157 50.511 131.157Z" fill="#203A61"/>
<path d="M324.545 39.1377H122.867V145.069H324.545V39.1377Z" fill="#E6E6E6"/>
<path d="M324.422 38.9736H122.744V51.254H324.422V38.9736Z" fill="#0078D4"/>
<path d="M319.694 55.0261H127.395V139.157H319.694V55.0261Z" fill="#203A61"/>
<path d="M141.855 47.114C142.977 47.114 143.886 46.2045 143.886 45.0826C143.886 43.9606 142.977 43.0511 141.855 43.0511C140.734 43.0511 139.824 43.9606 139.824 45.0826C139.824 46.2045 140.734 47.114 141.855 47.114Z" fill="#203A61"/>
<path d="M149.564 47.114C150.685 47.114 151.594 46.2045 151.594 45.0826C151.594 43.9606 150.685 43.0511 149.564 43.0511C148.442 43.0511 147.533 43.9606 147.533 45.0826C147.533 46.2045 148.442 47.114 149.564 47.114Z" fill="#203A61"/>
<path d="M134.127 47.114C135.248 47.114 136.158 46.2045 136.158 45.0826C136.158 43.9606 135.248 43.0511 134.127 43.0511C133.005 43.0511 132.096 43.9606 132.096 45.0826C132.096 46.2045 133.005 47.114 134.127 47.114Z" fill="#203A61"/>
<path d="M224.917 73.4609C224.517 73.514 224.151 73.7105 223.885 74.0138C223.619 74.3172 223.473 74.7068 223.473 75.1102C223.473 75.5135 223.619 75.9031 223.885 76.2065C224.151 76.5099 224.517 76.7064 224.917 76.7594H293.012C293.412 76.7064 293.779 76.5099 294.044 76.2065C294.31 75.9031 294.456 75.5135 294.456 75.1102C294.456 74.7068 294.31 74.3172 294.044 74.0138C293.779 73.7105 293.412 73.514 293.012 73.4609H224.917Z" fill="#E6E6E6"/>
<path d="M224.917 112.359C224.517 112.412 224.151 112.609 223.885 112.912C223.619 113.215 223.473 113.605 223.473 114.008C223.473 114.412 223.619 114.801 223.885 115.105C224.151 115.408 224.517 115.604 224.917 115.658H293.012C293.412 115.604 293.779 115.408 294.044 115.105C294.31 114.801 294.456 114.412 294.456 114.008C294.456 113.605 294.31 113.215 294.044 112.912C293.779 112.609 293.412 112.412 293.012 112.359H224.917Z" fill="#E6E6E6"/>
<path d="M224.917 83.3564C224.517 83.4095 224.151 83.606 223.885 83.9093C223.619 84.2127 223.473 84.6023 223.473 85.0057C223.473 85.409 223.619 85.7986 223.885 86.102C224.151 86.4054 224.517 86.6019 224.917 86.6549H254.219C254.618 86.6019 254.985 86.4054 255.251 86.102C255.517 85.7986 255.663 85.409 255.663 85.0057C255.663 84.6023 255.517 84.2127 255.251 83.9093C254.985 83.606 254.618 83.4095 254.219 83.3564H224.917Z" fill="#E6E6E6"/>
<path d="M224.917 92.7887C224.518 92.8417 224.151 93.0382 223.885 93.3416C223.619 93.645 223.473 94.0346 223.473 94.4379C223.473 94.8413 223.619 95.2309 223.885 95.5343C224.151 95.8377 224.518 96.0342 224.917 96.0872H293.012C293.412 96.0342 293.779 95.8377 294.044 95.5343C294.31 95.2309 294.457 94.8413 294.457 94.4379C294.457 94.0346 294.31 93.645 294.044 93.3416C293.779 93.0382 293.412 92.8417 293.012 92.7887H224.917Z" fill="#E6E6E6"/>
<path d="M224.917 102.684C224.517 102.737 224.151 102.934 223.885 103.237C223.619 103.54 223.473 103.93 223.473 104.333C223.473 104.737 223.619 105.126 223.885 105.43C224.151 105.733 224.517 105.93 224.917 105.983H254.219C254.618 105.93 254.985 105.733 255.251 105.43C255.517 105.126 255.663 104.737 255.663 104.333C255.663 103.93 255.517 103.54 255.251 103.237C254.985 102.934 254.618 102.737 254.219 102.684H224.917Z" fill="#E6E6E6"/>
<path d="M185.231 113.851C185.438 113.851 185.642 113.811 185.833 113.732C186.024 113.654 186.197 113.538 186.343 113.392C186.489 113.247 186.605 113.074 186.684 112.883C186.763 112.692 186.804 112.488 186.804 112.282C186.804 112.075 186.764 111.871 186.685 111.68C186.606 111.49 186.49 111.316 186.344 111.17C186.198 111.025 186.025 110.909 185.834 110.83C185.644 110.751 185.439 110.711 185.233 110.711H153.397C153.191 110.711 152.986 110.751 152.796 110.829C152.605 110.908 152.432 111.024 152.286 111.169C152.139 111.315 152.023 111.488 151.944 111.679C151.865 111.869 151.824 112.074 151.824 112.28C151.824 112.486 151.865 112.691 151.944 112.882C152.023 113.072 152.138 113.245 152.284 113.391C152.43 113.537 152.604 113.653 152.794 113.732C152.985 113.811 153.189 113.851 153.396 113.851H185.231Z" fill="#E4E4E4"/>
<path d="M185.231 104.602C185.647 104.601 186.045 104.435 186.339 104.141C186.633 103.847 186.798 103.448 186.798 103.032C186.798 102.616 186.633 102.217 186.339 101.923C186.045 101.629 185.647 101.463 185.231 101.462H153.397C153.191 101.462 152.986 101.502 152.796 101.58C152.605 101.659 152.432 101.775 152.286 101.92C152.139 102.066 152.023 102.239 151.944 102.43C151.865 102.62 151.824 102.825 151.824 103.031C151.824 103.237 151.865 103.442 151.944 103.633C152.023 103.823 152.138 103.996 152.284 104.142C152.43 104.288 152.604 104.404 152.794 104.483C152.985 104.562 153.189 104.602 153.396 104.602H185.231Z" fill="#E4E4E4"/>
<path d="M169.314 75.2677C171.268 75.2677 173.178 75.8472 174.802 76.933C176.427 78.0188 177.693 79.562 178.44 81.3676C179.188 83.1732 179.384 85.16 179.002 87.0767C178.621 88.9935 177.68 90.7542 176.299 92.1361C174.918 93.5181 173.157 94.4592 171.241 94.8404C169.325 95.2217 167.339 95.026 165.534 94.2781C163.729 93.5303 162.186 92.2637 161.101 90.6388C160.016 89.0138 159.436 87.1034 159.436 85.149C159.439 82.5292 160.481 80.0176 162.333 78.1651C164.185 76.3127 166.695 75.2707 169.314 75.2677Z" fill="#0078D4"/>
<path d="M89.4295 162.655C91.564 162.655 93.2943 160.924 93.2943 158.789C93.2943 156.654 91.564 154.923 89.4295 154.923C87.295 154.923 85.5647 156.654 85.5647 158.789C85.5647 160.924 87.295 162.655 89.4295 162.655Z" fill="#E4E4E4"/>
<path d="M151.527 155.78C151.871 155.78 152.212 155.847 152.531 155.979C152.849 156.11 153.139 156.303 153.382 156.547C153.626 156.79 153.82 157.08 153.951 157.398C154.083 157.716 154.151 158.058 154.151 158.402C154.151 158.747 154.083 159.088 153.951 159.406C153.82 159.725 153.626 160.014 153.382 160.258C153.139 160.501 152.849 160.694 152.531 160.826C152.212 160.957 151.871 161.025 151.527 161.024H110.879C110.535 161.025 110.193 160.957 109.875 160.826C109.556 160.694 109.267 160.501 109.023 160.258C108.779 160.014 108.586 159.725 108.454 159.406C108.322 159.088 108.254 158.747 108.254 158.402C108.254 158.058 108.322 157.716 108.454 157.398C108.586 157.08 108.779 156.79 109.023 156.547C109.267 156.303 109.556 156.11 109.875 155.979C110.193 155.847 110.535 155.78 110.879 155.78H151.527ZM151.527 155.138H110.879C110.014 155.138 109.184 155.482 108.572 156.094C107.96 156.706 107.616 157.537 107.616 158.402C107.616 159.268 107.96 160.098 108.572 160.71C109.184 161.322 110.014 161.666 110.879 161.666H151.527C152.392 161.666 153.222 161.322 153.834 160.71C154.446 160.098 154.79 159.268 154.79 158.402C154.79 157.537 154.446 156.706 153.834 156.094C153.222 155.482 152.392 155.138 151.527 155.138Z" fill="#E4E4E4"/>
<path d="M135.488 161.666H104.889C104.023 161.666 103.193 161.322 102.581 160.71C101.97 160.098 101.626 159.268 101.626 158.402C101.626 157.537 101.97 156.706 102.581 156.094C103.193 155.482 104.023 155.138 104.889 155.138H135.488C136.353 155.138 137.183 155.482 137.795 156.094C138.407 156.706 138.751 157.537 138.751 158.402C138.751 159.268 138.407 160.098 137.795 160.71C137.183 161.322 136.353 161.666 135.488 161.666Z" fill="#E4E4E4"/>
<path d="M89.4295 178.709C91.564 178.709 93.2943 176.978 93.2943 174.843C93.2943 172.708 91.564 170.977 89.4295 170.977C87.295 170.977 85.5647 172.708 85.5647 174.843C85.5647 176.978 87.295 178.709 89.4295 178.709Z" fill="#E4E4E4"/>
<path d="M151.527 171.834C151.871 171.834 152.212 171.901 152.531 172.033C152.849 172.164 153.139 172.357 153.382 172.601C153.626 172.844 153.82 173.134 153.951 173.452C154.083 173.77 154.151 174.112 154.151 174.456C154.151 174.801 154.083 175.142 153.951 175.46C153.82 175.779 153.626 176.068 153.382 176.312C153.139 176.555 152.849 176.748 152.531 176.88C152.212 177.011 151.871 177.079 151.527 177.078H110.879C110.535 177.079 110.193 177.011 109.875 176.88C109.556 176.748 109.267 176.555 109.023 176.312C108.779 176.068 108.586 175.779 108.454 175.46C108.322 175.142 108.254 174.801 108.254 174.456C108.254 174.112 108.322 173.77 108.454 173.452C108.586 173.134 108.779 172.844 109.023 172.601C109.267 172.357 109.556 172.164 109.875 172.033C110.193 171.901 110.535 171.834 110.879 171.834H151.527ZM151.527 171.192H110.879C110.014 171.192 109.184 171.536 108.572 172.148C107.96 172.76 107.616 173.591 107.616 174.456C107.616 175.322 107.96 176.152 108.572 176.764C109.184 177.376 110.014 177.72 110.879 177.72H151.527C152.392 177.72 153.222 177.376 153.834 176.764C154.446 176.152 154.79 175.322 154.79 174.456C154.79 173.591 154.446 172.76 153.834 172.148C153.222 171.536 152.392 171.192 151.527 171.192Z" fill="#E4E4E4"/>
<path d="M147.043 177.72H104.889C104.023 177.72 103.193 177.376 102.581 176.764C101.969 176.152 101.626 175.322 101.626 174.456C101.626 173.591 101.969 172.76 102.581 172.148C103.193 171.536 104.023 171.192 104.889 171.192H147.043C147.907 171.193 148.736 171.538 149.347 172.15C149.958 172.762 150.301 173.591 150.301 174.456C150.301 175.321 149.958 176.151 149.347 176.763C148.736 177.375 147.907 177.719 147.043 177.72Z" fill="#E4E4E4"/>
<path d="M89.4295 194.763C91.564 194.763 93.2943 193.032 93.2943 190.897C93.2943 188.762 91.564 187.031 89.4295 187.031C87.295 187.031 85.5647 188.762 85.5647 190.897C85.5647 193.032 87.295 194.763 89.4295 194.763Z" fill="#E4E4E4"/>
<path d="M151.527 187.888C152.222 187.888 152.888 188.164 153.38 188.656C153.871 189.148 154.148 189.815 154.148 190.51C154.148 191.206 153.871 191.872 153.38 192.364C152.888 192.856 152.222 193.132 151.527 193.132H110.879C110.184 193.132 109.517 192.856 109.026 192.364C108.534 191.872 108.258 191.206 108.258 190.51C108.258 189.815 108.534 189.148 109.026 188.656C109.517 188.164 110.184 187.888 110.879 187.888H151.527ZM151.527 187.246H110.879C110.014 187.246 109.184 187.59 108.572 188.202C107.96 188.814 107.616 189.644 107.616 190.51C107.616 191.376 107.96 192.206 108.572 192.818C109.184 193.43 110.014 193.774 110.879 193.774H151.527C152.392 193.774 153.222 193.43 153.834 192.818C154.446 192.206 154.79 191.376 154.79 190.51C154.79 189.644 154.446 188.814 153.834 188.202C153.222 187.59 152.392 187.246 151.527 187.246Z" fill="#E4E4E4"/>
<path d="M151.671 193.774H104.889C104.023 193.774 103.193 193.43 102.581 192.818C101.969 192.206 101.626 191.376 101.626 190.51C101.626 189.644 101.969 188.814 102.581 188.202C103.193 187.59 104.023 187.246 104.889 187.246H151.671C152.537 187.246 153.367 187.59 153.979 188.202C154.591 188.814 154.934 189.644 154.934 190.51C154.934 191.376 154.591 192.206 153.979 192.818C153.367 193.43 152.537 193.774 151.671 193.774Z" fill="#E4E4E4"/>
</g>
<defs>
<clipPath id="clip0">
<rect width="324.545" height="213.738" fill="white"/>
</clipPath>
</defs>
</svg>
