<svg width="304" height="79" viewBox="0 0 304 79" fill="none" xmlns="http://www.w3.org/2000/svg">
<g clip-path="url(#clip0)">
<path d="M294.553 64.552C292.685 64.552 290.858 63.9967 289.305 62.9564C287.751 61.9161 286.54 60.4374 285.825 58.7074C285.11 56.9774 284.923 55.0738 285.287 53.2372C285.652 51.4007 286.552 49.7137 287.873 48.3896C289.194 47.0655 290.877 46.1638 292.71 45.7985C294.543 45.4332 296.442 45.6207 298.168 46.3373C299.894 47.0539 301.37 48.2674 302.408 49.8243C303.446 51.3813 304 53.2118 304 55.0843C303.997 57.5944 303.001 60.0009 301.23 61.7758C299.459 63.5508 297.058 64.5492 294.553 64.552ZM294.553 46.6132C292.881 46.6132 291.247 47.11 289.857 48.0408C288.467 48.9716 287.384 50.2946 286.744 51.8425C286.104 53.3904 285.937 55.0937 286.263 56.7369C286.589 58.3802 287.394 59.8896 288.576 61.0743C289.758 62.259 291.264 63.0658 292.904 63.3926C294.544 63.7195 296.243 63.5518 297.788 62.9106C299.332 62.2694 300.652 61.1837 301.581 59.7906C302.51 58.3975 303.006 56.7597 303.006 55.0843C303.003 52.8384 302.112 50.6852 300.527 49.0971C298.942 47.5091 296.794 46.6157 294.553 46.6132Z" fill="white"/>
<path d="M294.553 46.6132C292.881 46.6132 291.247 47.11 289.857 48.0408C288.467 48.9716 287.384 50.2946 286.744 51.8425C286.104 53.3904 285.937 55.0937 286.263 56.7369C286.589 58.3802 287.394 59.8896 288.576 61.0743C289.758 62.259 291.264 63.0658 292.904 63.3926C294.544 63.7195 296.243 63.5518 297.788 62.9106C299.332 62.2694 300.652 61.1837 301.581 59.7906C302.51 58.3975 303.006 56.7597 303.006 55.0843C303.003 52.8384 302.112 50.6852 300.527 49.0971C298.942 47.5091 296.794 46.6157 294.553 46.6132Z" fill="white"/>
<path d="M9.44702 64.6071C7.57858 64.6071 5.75209 64.0518 4.19854 63.0115C2.64498 61.9711 1.43414 60.4925 0.719115 58.7625C0.00409251 57.0325 -0.182989 55.1288 0.181526 53.2923C0.546041 51.4557 1.44578 49.7687 2.76697 48.4447C4.08816 47.1206 5.77146 46.2189 7.604 45.8536C9.43654 45.4882 11.336 45.6757 13.0622 46.3923C14.7885 47.1089 16.2639 48.3224 17.3019 49.8794C18.34 51.4363 18.894 53.2668 18.894 55.1394C18.8912 57.6495 17.895 60.056 16.1239 61.8309C14.3529 63.6058 11.9517 64.6042 9.44702 64.6071ZM9.44702 46.6682C7.77526 46.6682 6.14103 47.1651 4.75101 48.0959C3.36099 49.0267 2.2776 50.3497 1.63784 51.8976C0.998084 53.4455 0.830695 55.1488 1.15684 56.792C1.48299 58.4352 2.28802 59.9446 3.47014 61.1293C4.65225 62.314 6.15836 63.1208 7.798 63.4477C9.43764 63.7746 11.1372 63.6068 12.6817 62.9656C14.2262 62.3245 15.5463 61.2387 16.4751 59.8457C17.4039 58.4526 17.8996 56.8148 17.8996 55.1394C17.8971 52.8935 17.0057 50.7403 15.4211 49.1522C13.8365 47.5641 11.688 46.6708 9.44702 46.6682Z" fill="white"/>
<path d="M9.44702 46.6682C7.77526 46.6682 6.14103 47.1651 4.75101 48.0959C3.36099 49.0267 2.2776 50.3497 1.63784 51.8976C0.998084 53.4455 0.830695 55.1488 1.15684 56.792C1.48299 58.4352 2.28802 59.9446 3.47014 61.1293C4.65225 62.314 6.15836 63.1208 7.798 63.4477C9.43764 63.7746 11.1372 63.6068 12.6817 62.9656C14.2262 62.3245 15.5463 61.2387 16.4751 59.8457C17.4039 58.4526 17.8996 56.8148 17.8996 55.1394C17.8971 52.8935 17.0057 50.7403 15.4211 49.1522C13.8365 47.5641 11.688 46.6708 9.44702 46.6682Z" fill="white"/>
<path d="M47.9164 78.0958C41.8504 78.0958 36.0329 75.6808 31.7436 71.3821C27.4544 67.0834 25.0447 61.2532 25.0447 55.1739C25.0447 49.0947 27.4544 43.2644 31.7436 38.9657C36.0329 34.667 41.8504 32.2521 47.9164 32.2521H256.082C262.148 32.2521 267.966 34.667 272.255 38.9657C276.544 43.2644 278.954 49.0947 278.954 55.1739C278.954 61.2532 276.544 67.0834 272.255 71.3821C267.966 75.6808 262.148 78.0958 256.082 78.0958H47.9164Z" fill="#E6E6E6"/>
<path d="M47.9163 35.2419C42.6416 35.2419 37.5829 37.3419 33.8531 41.0799C30.1233 44.8179 28.0279 49.8877 28.0279 55.174C28.0279 60.4603 30.1233 65.5301 33.8531 69.2681C37.5829 73.0061 42.6416 75.106 47.9163 75.106H256.082C261.357 75.106 266.416 73.0061 270.145 69.2681C273.875 65.5301 275.971 60.4603 275.971 55.174C275.971 49.8877 273.875 44.8179 270.145 41.0799C266.416 37.3419 261.357 35.2419 256.082 35.2419H47.9163Z" fill="#203A61"/>
<path d="M69.6832 35.2421H69.0202V75.1062H69.6832V35.2421Z" fill="#E6E6E6"/>
<path d="M111.062 35.2421H110.399V75.1062H111.062V35.2421Z" fill="#E6E6E6"/>
<path d="M152.496 35.2421H151.833V75.1062H152.496V35.2421Z" fill="#E6E6E6"/>
<path d="M193.599 35.2421H192.936V75.1062H193.599V35.2421Z" fill="#E6E6E6"/>
<path d="M235.033 35.2421H234.371V75.1062H235.033V35.2421Z" fill="#E6E6E6"/>
<path d="M80.4597 49.1943C80.3335 49.1941 80.2085 49.2188 80.0919 49.267C79.9752 49.3153 79.8692 49.3861 79.7799 49.4754C79.6906 49.5648 79.6197 49.6709 79.5713 49.7877C79.523 49.9046 79.4981 50.0298 79.4981 50.1563C79.4981 50.2827 79.523 50.408 79.5713 50.5248C79.6197 50.6416 79.6906 50.7477 79.7799 50.8371C79.8692 50.9264 79.9752 50.9972 80.0919 51.0455C80.2085 51.0937 80.3335 51.1184 80.4597 51.1182H99.9304C100.056 51.1184 100.181 51.0938 100.298 51.0457C100.414 50.9976 100.52 50.9269 100.61 50.8378C100.699 50.7486 100.77 50.6427 100.818 50.5261C100.867 50.4095 100.892 50.2845 100.892 50.1581C100.892 50.0318 100.868 49.9067 100.82 49.7899C100.772 49.6731 100.701 49.5669 100.612 49.4774C100.523 49.3879 100.418 49.3168 100.301 49.2683C100.185 49.2197 100.06 49.1946 99.9341 49.1943H80.4597Z" fill="#E6E6E6"/>
<path d="M80.4597 54.1774C80.3335 54.1771 80.2085 54.2018 80.0919 54.2501C79.9752 54.2983 79.8692 54.3691 79.7799 54.4585C79.6906 54.5478 79.6197 54.6539 79.5713 54.7708C79.523 54.8876 79.4981 55.0128 79.4981 55.1393C79.4981 55.2658 79.523 55.391 79.5713 55.5078C79.6197 55.6247 79.6906 55.7308 79.7799 55.8201C79.8692 55.9095 79.9752 55.9803 80.0919 56.0285C80.2085 56.0768 80.3335 56.1015 80.4597 56.1012H99.9304C100.056 56.1015 100.181 56.0768 100.298 56.0287C100.414 55.9806 100.52 55.91 100.61 55.8208C100.699 55.7317 100.77 55.6258 100.818 55.5091C100.867 55.3925 100.892 55.2675 100.892 55.1412C100.892 55.0149 100.868 54.8897 100.82 54.7729C100.772 54.6561 100.701 54.5499 100.612 54.4604C100.523 54.3709 100.418 54.2999 100.301 54.2513C100.185 54.2027 100.06 54.1776 99.9341 54.1774H80.4597Z" fill="#E6E6E6"/>
<path d="M80.4597 59.1604C80.3335 59.1602 80.2085 59.1849 80.0919 59.2331C79.9752 59.2813 79.8692 59.3522 79.7799 59.4415C79.6906 59.5309 79.6197 59.637 79.5713 59.7538C79.523 59.8706 79.4981 59.9959 79.4981 60.1223C79.4981 60.2488 79.523 60.374 79.5713 60.4909C79.6197 60.6077 79.6906 60.7138 79.7799 60.8031C79.8692 60.8925 79.9752 60.9633 80.0919 61.0115C80.2085 61.0598 80.3335 61.0845 80.4597 61.0842H99.9304C100.056 61.0845 100.181 61.0599 100.298 61.0117C100.414 60.9636 100.52 60.893 100.61 60.8038C100.699 60.7147 100.77 60.6088 100.818 60.4922C100.867 60.3756 100.892 60.2505 100.892 60.1242C100.892 59.9979 100.868 59.8727 100.82 59.7559C100.772 59.6391 100.701 59.533 100.612 59.4435C100.523 59.354 100.418 59.2829 100.301 59.2343C100.185 59.1858 100.06 59.1606 99.9341 59.1604H80.4597Z" fill="#E6E6E6"/>
<path d="M121.562 49.1943C121.436 49.1941 121.311 49.2188 121.195 49.267C121.078 49.3153 120.972 49.3861 120.883 49.4754C120.793 49.5648 120.722 49.6709 120.674 49.7877C120.626 49.9046 120.601 50.0298 120.601 50.1563C120.601 50.2827 120.626 50.408 120.674 50.5248C120.722 50.6416 120.793 50.7477 120.883 50.8371C120.972 50.9264 121.078 50.9972 121.195 51.0455C121.311 51.0937 121.436 51.1184 121.562 51.1182H141.033C141.159 51.1184 141.284 51.0937 141.401 51.0455C141.518 50.9972 141.624 50.9264 141.713 50.8371C141.802 50.7477 141.873 50.6416 141.921 50.5248C141.97 50.408 141.995 50.2827 141.995 50.1563C141.995 50.0298 141.97 49.9046 141.921 49.7877C141.873 49.6709 141.802 49.5648 141.713 49.4754C141.624 49.3861 141.518 49.3153 141.401 49.267C141.284 49.2188 141.159 49.1941 141.033 49.1943H121.562Z" fill="#0078D4"/>
<path d="M121.562 54.1774C121.436 54.1771 121.311 54.2018 121.195 54.2501C121.078 54.2983 120.972 54.3691 120.883 54.4585C120.793 54.5478 120.722 54.6539 120.674 54.7708C120.626 54.8876 120.601 55.0128 120.601 55.1393C120.601 55.2658 120.626 55.391 120.674 55.5078C120.722 55.6247 120.793 55.7308 120.883 55.8201C120.972 55.9095 121.078 55.9803 121.195 56.0285C121.311 56.0768 121.436 56.1015 121.562 56.1012H141.033C141.159 56.1015 141.284 56.0768 141.401 56.0285C141.518 55.9803 141.624 55.9095 141.713 55.8201C141.802 55.7308 141.873 55.6247 141.921 55.5078C141.97 55.391 141.995 55.2658 141.995 55.1393C141.995 55.0128 141.97 54.8876 141.921 54.7708C141.873 54.6539 141.802 54.5478 141.713 54.4585C141.624 54.3691 141.518 54.2983 141.401 54.2501C141.284 54.2018 141.159 54.1771 141.033 54.1774H121.562Z" fill="#0078D4"/>
<path d="M121.562 59.1604C121.436 59.1602 121.311 59.1849 121.195 59.2331C121.078 59.2813 120.972 59.3522 120.883 59.4415C120.793 59.5309 120.722 59.637 120.674 59.7538C120.626 59.8706 120.601 59.9959 120.601 60.1223C120.601 60.2488 120.626 60.374 120.674 60.4909C120.722 60.6077 120.793 60.7138 120.883 60.8031C120.972 60.8925 121.078 60.9633 121.195 61.0115C121.311 61.0598 121.436 61.0845 121.562 61.0842H141.033C141.159 61.0845 141.284 61.0598 141.401 61.0115C141.518 60.9633 141.624 60.8925 141.713 60.8031C141.802 60.7138 141.873 60.6077 141.921 60.4909C141.97 60.374 141.995 60.2488 141.995 60.1223C141.995 59.9959 141.97 59.8706 141.921 59.7538C141.873 59.637 141.802 59.5309 141.713 59.4415C141.624 59.3522 141.518 59.2813 141.401 59.2331C141.284 59.1849 141.159 59.1602 141.033 59.1604H121.562Z" fill="#0078D4"/>
<path d="M162.997 49.1943C162.743 49.1948 162.499 49.2964 162.319 49.4767C162.14 49.6571 162.039 49.9015 162.039 50.1563C162.039 50.4111 162.14 50.6555 162.319 50.8358C162.499 51.0162 162.743 51.1177 162.997 51.1182H182.467C182.594 51.1184 182.719 51.0937 182.835 51.0455C182.952 50.9972 183.058 50.9264 183.147 50.8371C183.237 50.7477 183.307 50.6416 183.356 50.5248C183.404 50.408 183.429 50.2827 183.429 50.1563C183.429 50.0298 183.404 49.9046 183.356 49.7877C183.307 49.6709 183.237 49.5648 183.147 49.4754C183.058 49.3861 182.952 49.3153 182.835 49.267C182.719 49.2188 182.594 49.1941 182.467 49.1943H162.997Z" fill="#E6E6E6"/>
<path d="M162.997 54.1774C162.743 54.1778 162.499 54.2794 162.319 54.4597C162.14 54.6401 162.039 54.8845 162.039 55.1393C162.039 55.3941 162.14 55.6385 162.319 55.8189C162.499 55.9992 162.743 56.1008 162.997 56.1012H182.467C182.594 56.1015 182.719 56.0768 182.835 56.0285C182.952 55.9803 183.058 55.9095 183.147 55.8201C183.237 55.7308 183.307 55.6247 183.356 55.5078C183.404 55.391 183.429 55.2658 183.429 55.1393C183.429 55.0128 183.404 54.8876 183.356 54.7708C183.307 54.6539 183.237 54.5478 183.147 54.4585C183.058 54.3691 182.952 54.2983 182.835 54.2501C182.719 54.2018 182.594 54.1771 182.467 54.1774H162.997Z" fill="#E6E6E6"/>
<path d="M162.997 59.1604C162.743 59.1609 162.499 59.2624 162.319 59.4428C162.14 59.6231 162.039 59.8675 162.039 60.1223C162.039 60.3771 162.14 60.6215 162.319 60.8019C162.499 60.9822 162.743 61.0838 162.997 61.0842H182.467C182.594 61.0845 182.719 61.0598 182.835 61.0115C182.952 60.9633 183.058 60.8925 183.147 60.8031C183.237 60.7138 183.307 60.6077 183.356 60.4909C183.404 60.374 183.429 60.2488 183.429 60.1223C183.429 59.9959 183.404 59.8706 183.356 59.7538C183.307 59.637 183.237 59.5309 183.147 59.4415C183.058 59.3522 182.952 59.2813 182.835 59.2331C182.719 59.1849 182.594 59.1602 182.467 59.1604H162.997Z" fill="#E6E6E6"/>
<path d="M204.265 49.1943C204.011 49.1948 203.767 49.2964 203.588 49.4767C203.408 49.6571 203.307 49.9015 203.307 50.1563C203.307 50.4111 203.408 50.6555 203.588 50.8358C203.767 51.0162 204.011 51.1177 204.265 51.1182H223.736C223.862 51.1184 223.987 51.0937 224.104 51.0455C224.22 50.9972 224.326 50.9264 224.416 50.8371C224.505 50.7477 224.576 50.6416 224.624 50.5248C224.673 50.408 224.698 50.2827 224.698 50.1563C224.698 50.0298 224.673 49.9046 224.624 49.7877C224.576 49.6709 224.505 49.5648 224.416 49.4754C224.326 49.3861 224.22 49.3153 224.104 49.267C223.987 49.2188 223.862 49.1941 223.736 49.1943H204.265Z" fill="#E6E6E6"/>
<path d="M204.265 54.1774C204.011 54.1778 203.767 54.2794 203.588 54.4597C203.408 54.6401 203.307 54.8845 203.307 55.1393C203.307 55.3941 203.408 55.6385 203.588 55.8189C203.767 55.9992 204.011 56.1008 204.265 56.1012H223.736C223.862 56.1015 223.987 56.0768 224.104 56.0285C224.22 55.9803 224.326 55.9095 224.416 55.8201C224.505 55.7308 224.576 55.6247 224.624 55.5078C224.673 55.391 224.698 55.2658 224.698 55.1393C224.698 55.0128 224.673 54.8876 224.624 54.7708C224.576 54.6539 224.505 54.5478 224.416 54.4585C224.326 54.3691 224.22 54.2983 224.104 54.2501C223.987 54.2018 223.862 54.1771 223.736 54.1774H204.265Z" fill="#E6E6E6"/>
<path d="M204.265 59.1604C204.011 59.1609 203.767 59.2624 203.588 59.4428C203.408 59.6231 203.307 59.8675 203.307 60.1223C203.307 60.3771 203.408 60.6215 203.588 60.8019C203.767 60.9822 204.011 61.0838 204.265 61.0842H223.736C223.862 61.0845 223.987 61.0598 224.104 61.0115C224.22 60.9633 224.326 60.8925 224.416 60.8031C224.505 60.7138 224.576 60.6077 224.624 60.4909C224.673 60.374 224.698 60.2488 224.698 60.1223C224.698 59.9959 224.673 59.8706 224.624 59.7538C224.576 59.637 224.505 59.5309 224.416 59.4415C224.326 59.3522 224.22 59.2813 224.104 59.2331C223.987 59.1849 223.862 59.1602 223.736 59.1604H204.265Z" fill="#E6E6E6"/>
<path d="M244.539 49.1943C244.285 49.1948 244.041 49.2964 243.862 49.4767C243.682 49.6571 243.581 49.9015 243.581 50.1563C243.581 50.4111 243.682 50.6555 243.862 50.8358C244.041 51.0162 244.285 51.1177 244.539 51.1182H264.01C264.136 51.1184 264.261 51.0937 264.378 51.0455C264.495 50.9972 264.601 50.9264 264.69 50.8371C264.779 50.7477 264.85 50.6416 264.898 50.5248C264.947 50.408 264.972 50.2827 264.972 50.1563C264.972 50.0298 264.947 49.9046 264.898 49.7877C264.85 49.6709 264.779 49.5648 264.69 49.4754C264.601 49.3861 264.495 49.3153 264.378 49.267C264.261 49.2188 264.136 49.1941 264.01 49.1943H244.539Z" fill="#E6E6E6"/>
<path d="M244.539 54.1774C244.285 54.1778 244.041 54.2794 243.862 54.4597C243.682 54.6401 243.581 54.8845 243.581 55.1393C243.581 55.3941 243.682 55.6385 243.862 55.8189C244.041 55.9992 244.285 56.1008 244.539 56.1012H264.01C264.136 56.1015 264.261 56.0768 264.378 56.0285C264.495 55.9803 264.601 55.9095 264.69 55.8201C264.779 55.7308 264.85 55.6247 264.898 55.5078C264.947 55.391 264.972 55.2658 264.972 55.1393C264.972 55.0128 264.947 54.8876 264.898 54.7708C264.85 54.6539 264.779 54.5478 264.69 54.4585C264.601 54.3691 264.495 54.2983 264.378 54.2501C264.261 54.2018 264.136 54.1771 264.01 54.1774H244.539Z" fill="#E6E6E6"/>
<path d="M244.539 59.1604C244.285 59.1609 244.041 59.2624 243.862 59.4428C243.682 59.6231 243.581 59.8675 243.581 60.1223C243.581 60.3771 243.682 60.6215 243.862 60.8019C244.041 60.9822 244.285 61.0838 244.539 61.0842H264.01C264.136 61.0845 264.261 61.0598 264.378 61.0115C264.495 60.9633 264.601 60.8925 264.69 60.8031C264.779 60.7138 264.85 60.6077 264.898 60.4909C264.947 60.374 264.972 60.2488 264.972 60.1223C264.972 59.9959 264.947 59.8706 264.898 59.7538C264.85 59.637 264.779 59.5309 264.69 59.4415C264.601 59.3522 264.495 59.2813 264.378 59.2331C264.261 59.1849 264.136 59.1602 264.01 59.1604H244.539Z" fill="#E6E6E6"/>
<path d="M39.0253 49.1943C38.771 49.1948 38.5274 49.2964 38.3478 49.4767C38.1681 49.6571 38.0673 49.9015 38.0673 50.1563C38.0673 50.4111 38.1681 50.6555 38.3478 50.8358C38.5274 51.0161 38.771 51.1177 39.0253 51.1182H58.496C58.622 51.1184 58.7469 51.0938 58.8634 51.0457C58.9799 50.9976 59.0859 50.9269 59.1752 50.8378C59.2645 50.7486 59.3354 50.6427 59.3839 50.5261C59.4323 50.4095 59.4574 50.2845 59.4576 50.1581C59.4579 50.0318 59.4333 49.9067 59.3853 49.7899C59.3373 49.6731 59.2668 49.5669 59.1778 49.4774C59.0889 49.3879 58.9832 49.3168 58.8669 49.2683C58.7505 49.2197 58.6257 49.1946 58.4997 49.1943H39.0253Z" fill="#E6E6E6"/>
<path d="M39.0253 54.1774C38.771 54.1778 38.5274 54.2794 38.3478 54.4597C38.1681 54.6401 38.0673 54.8845 38.0673 55.1393C38.0673 55.3941 38.1681 55.6385 38.3478 55.8188C38.5274 55.9992 38.771 56.1007 39.0253 56.1012H58.496C58.622 56.1015 58.7469 56.0768 58.8634 56.0287C58.9799 55.9806 59.0859 55.91 59.1752 55.8208C59.2645 55.7317 59.3354 55.6258 59.3839 55.5091C59.4323 55.3925 59.4574 55.2675 59.4576 55.1412C59.4579 55.0149 59.4333 54.8897 59.3853 54.7729C59.3373 54.6561 59.2668 54.5499 59.1778 54.4604C59.0889 54.3709 58.9832 54.2999 58.8669 54.2513C58.7505 54.2027 58.6257 54.1776 58.4997 54.1774H39.0253Z" fill="#E6E6E6"/>
<path d="M39.0253 59.1604C38.771 59.1609 38.5274 59.2624 38.3478 59.4428C38.1681 59.6231 38.0673 59.8675 38.0673 60.1223C38.0673 60.3771 38.1681 60.6215 38.3478 60.8019C38.5274 60.9822 38.771 61.0838 39.0253 61.0843H58.496C58.622 61.0845 58.7469 61.0599 58.8634 61.0118C58.9799 60.9636 59.0859 60.893 59.1752 60.8038C59.2645 60.7147 59.3354 60.6088 59.3839 60.4922C59.4323 60.3756 59.4574 60.2505 59.4576 60.1242C59.4579 59.9979 59.4333 59.8727 59.3853 59.7559C59.3373 59.6391 59.2668 59.533 59.1778 59.4435C59.0889 59.354 58.9832 59.2829 58.8669 59.2343C58.7505 59.1858 58.6257 59.1606 58.4997 59.1604H39.0253Z" fill="#E6E6E6"/>
<path d="M131.321 31.4807C139.995 31.4807 147.027 24.4335 147.027 15.7404C147.027 7.0472 139.995 0 131.321 0C122.647 0 115.615 7.0472 115.615 15.7404C115.615 24.4335 122.647 31.4807 131.321 31.4807Z" fill="#0078D4"/>
<path d="M131.321 41.3285L126.41 32.8039L121.499 24.2793H131.321H141.143L136.232 32.8039L131.321 41.3285Z" fill="#0078D4"/>
<path d="M131.448 21.2896C134.56 21.2896 137.083 18.7611 137.083 15.6422C137.083 12.5232 134.56 9.99475 131.448 9.99475C128.336 9.99475 125.813 12.5232 125.813 15.6422C125.813 18.7611 128.336 21.2896 131.448 21.2896Z" fill="#203A61"/>
<path d="M294.073 58.4109C294.007 58.4109 293.942 58.3979 293.881 58.3725C293.82 58.3471 293.764 58.3099 293.717 58.263L290.998 55.5375C290.903 55.4428 290.85 55.3145 290.85 55.1806C290.85 55.0468 290.903 54.9184 290.998 54.8238C291.092 54.7291 291.22 54.6759 291.354 54.6759C291.487 54.6759 291.615 54.7291 291.71 54.8238L294.014 57.1333L298.099 51.5509C298.178 51.4432 298.297 51.3714 298.429 51.3511C298.561 51.3309 298.695 51.364 298.803 51.4431C298.91 51.5221 298.982 51.6408 299.003 51.7729C299.023 51.9051 298.99 52.0399 298.911 52.1479L294.48 58.2047C294.437 58.2634 294.381 58.3121 294.318 58.3474C294.255 58.3828 294.184 58.404 294.112 58.4095C294.099 58.4105 294.086 58.4109 294.073 58.4109Z" fill="#203A61"/>
<path d="M6.76307 58.3338C6.66347 58.3338 6.56612 58.3042 6.48331 58.2487C6.4005 58.1933 6.33597 58.1145 6.29786 58.0222C6.25974 57.93 6.24977 57.8286 6.26919 57.7307C6.28862 57.6328 6.33657 57.5428 6.40699 57.4722L11.7748 52.0929C11.8693 51.9985 11.9973 51.9456 12.1307 51.9457C12.2641 51.9458 12.392 51.999 12.4863 52.0935C12.5807 52.188 12.6337 52.3162 12.6338 52.4499C12.6339 52.5836 12.5811 52.7119 12.487 52.8066L7.11914 58.186C7.07244 58.2329 7.01694 58.2701 6.95583 58.2955C6.89473 58.3209 6.82922 58.3339 6.76307 58.3338Z" fill="#203A61"/>
<path d="M12.1308 58.3337C12.0647 58.3338 11.9992 58.3208 11.9381 58.2954C11.8769 58.27 11.8214 58.2328 11.7747 58.1859L6.40714 52.8065C6.3127 52.7118 6.25964 52.5835 6.25964 52.4496C6.25964 52.3158 6.3127 52.1874 6.40714 52.0928C6.50158 51.9981 6.62967 51.9449 6.76322 51.9449C6.89678 51.9449 7.02487 51.9981 7.1193 52.0928L12.4869 57.4721C12.5573 57.5427 12.6053 57.6327 12.6247 57.7306C12.6441 57.8285 12.6341 57.9299 12.596 58.0222C12.5579 58.1144 12.4934 58.1932 12.4106 58.2487C12.3278 58.3041 12.2304 58.3337 12.1308 58.3337L12.1308 58.3337Z" fill="#203A61"/>
</g>
<defs>
<clipPath id="clip0">
<rect width="304" height="78.0958" fill="white"/>
</clipPath>
</defs>
</svg>
