<svg width="485" height="314" viewBox="0 0 485 314" fill="none" xmlns="http://www.w3.org/2000/svg">
<g clip-path="url(#clip0)">
<path d="M366.331 250.051C365.004 241.103 364.653 232.036 365.285 223.012L366.331 208.076C360.567 219.552 361.869 234.656 366.331 250.051V250.051Z" fill="#CACACA"/>
<path d="M370.827 252.549C370.187 247.21 370.019 241.824 370.323 236.455L370.827 227.565C368.053 234.395 368.68 243.386 370.827 252.549Z" fill="#CACACA"/>
<path d="M390.807 263.544V268.541C390.805 268.938 390.647 269.318 390.366 269.599C390.086 269.879 389.706 270.038 389.309 270.04H386.812C386.746 270.04 386.681 270.053 386.62 270.078C386.559 270.103 386.504 270.139 386.458 270.186C386.411 270.232 386.375 270.287 386.35 270.348C386.325 270.409 386.312 270.474 386.312 270.54V311.515C386.31 311.912 386.152 312.292 385.871 312.573C385.59 312.853 385.21 313.012 384.814 313.014H354.347C353.949 313.014 353.569 312.856 353.288 312.575C353.007 312.293 352.849 311.912 352.848 311.515V270.54C352.848 270.407 352.795 270.28 352.702 270.187C352.608 270.093 352.481 270.04 352.349 270.04H349.352C348.955 270.04 348.574 269.882 348.293 269.601C348.012 269.32 347.854 268.938 347.854 268.541V263.544C347.853 263.347 347.892 263.152 347.967 262.97C348.042 262.788 348.153 262.623 348.292 262.483C348.431 262.344 348.597 262.234 348.778 262.158C348.96 262.083 349.155 262.045 349.352 262.045H389.309C389.706 262.046 390.086 262.204 390.367 262.485C390.648 262.766 390.806 263.147 390.807 263.544Z" fill="#F2F2F2"/>
<path d="M386.357 271.089H352.893V272.588H386.357V271.089Z" fill="#E6E6E6"/>
<path d="M386.312 293.148C375.114 297.785 363.794 297.836 352.349 293.148V282.587C363.368 278.885 375.293 278.885 386.312 282.587V293.148Z" fill="#E6E6E6"/>
<path d="M225.496 125.115C235.536 125.115 243.674 116.972 243.674 106.928C243.674 96.8834 235.536 88.7409 225.496 88.7409C215.457 88.7409 207.318 96.8834 207.318 106.928C207.318 116.972 215.457 125.115 225.496 125.115Z" fill="#2F2E41"/>
<path d="M230.561 89.2415C233.707 89.2419 236.799 90.0591 239.534 91.613C242.27 93.167 244.556 95.4047 246.169 98.1072C247.781 100.81 248.665 103.885 248.734 107.031C248.804 110.178 248.055 113.289 246.563 116.06C248.139 114.087 249.287 111.807 249.934 109.366C250.58 106.925 250.712 104.376 250.319 101.881C249.927 99.3862 249.019 97.0006 247.654 94.8761C246.289 92.7517 244.497 90.935 242.392 89.5419C240.286 88.1488 237.914 87.2097 235.425 86.7846C232.937 86.3595 230.388 86.4576 227.94 87.0728C225.491 87.6879 223.198 88.8066 221.206 90.3575C219.214 91.9083 217.566 93.8574 216.368 96.0805C218.068 93.9462 220.226 92.2228 222.683 91.0387C225.141 89.8546 227.833 89.2403 230.561 89.2415Z" fill="#2F2E41"/>
<path d="M191.527 106.889C221.019 106.889 244.926 82.9706 244.926 53.4654C244.926 23.9603 221.019 0.041626 191.527 0.041626C162.036 0.041626 138.129 23.9603 138.129 53.4654C138.129 82.9706 162.036 106.889 191.527 106.889Z" fill="#2F2E41"/>
<path d="M149.619 20.3185C158.82 9.96583 171.681 3.59459 185.488 2.54946C199.296 1.50434 212.969 5.86709 223.622 14.7169C223.185 14.3017 222.753 13.883 222.3 13.4795C211.714 4.07283 197.828 -0.742884 183.694 0.0911947C169.561 0.925273 156.337 7.34086 146.93 17.9273C137.523 28.5138 132.704 42.4045 133.532 56.5451C134.359 70.6858 140.766 83.9188 151.343 93.3346C151.797 93.7381 152.263 94.1183 152.727 94.5035C142.694 84.9553 136.762 71.8809 136.182 58.0397C135.602 44.1984 140.42 30.6732 149.619 20.3185Z" fill="#2F2E41"/>
<path d="M191.075 106.436C210.069 106.436 225.467 91.0313 225.467 72.0279C225.467 53.0246 210.069 37.6194 191.075 37.6194C172.081 37.6194 156.683 53.0246 156.683 72.0279C156.683 91.0313 172.081 106.436 191.075 106.436Z" fill="#FFB8B8"/>
<path d="M208.644 115.777L171.84 117.433C171.84 117.433 174.911 136.475 155 138.286C135.089 140.097 116.988 134.664 109.747 148.247C102.507 161.829 105.628 210.192 105.628 210.192C105.628 210.192 119.203 259.088 130.064 266.332C140.925 273.576 235.956 263.616 235.956 263.616L275.727 213.374L274.38 174.628C273.676 154.395 255.212 139.204 235.325 142.948C234.935 143.022 234.542 143.101 234.146 143.186C234.146 143.186 229.777 139.919 217.79 133.923C210.459 130.256 208.644 115.777 208.644 115.777Z" fill="#CACACA"/>
<path d="M128.753 137.381C128.753 137.381 137.501 153.26 133.881 175.897C130.26 198.534 145.45 246.411 145.45 246.411L156.311 243.695C156.311 243.695 149.07 196.61 150.88 185.744C152.691 174.878 153.19 142.814 144.139 137.381C135.089 131.948 128.753 137.381 128.753 137.381Z" fill="#2F2E41"/>
<path d="M233.509 145.707L237.313 245.959L244.554 250.486C244.554 250.486 254.962 140.469 249.532 140.469H238.482C237.829 140.469 237.181 140.598 236.577 140.849C235.973 141.099 235.424 141.466 234.961 141.929C234.499 142.391 234.132 142.94 233.882 143.545C233.632 144.149 233.503 144.797 233.503 145.452C233.503 145.537 233.505 145.622 233.509 145.707Z" fill="#2F2E41"/>
<path d="M150.428 244.148C152.927 244.148 154.953 242.121 154.953 239.62C154.953 237.12 152.927 235.093 150.428 235.093C147.929 235.093 145.903 237.12 145.903 239.62C145.903 242.121 147.929 244.148 150.428 244.148Z" fill="#0078D4"/>
<path d="M240.934 248.675C243.433 248.675 245.459 246.648 245.459 244.148C245.459 241.647 243.433 239.62 240.934 239.62C238.434 239.62 236.408 241.647 236.408 244.148C236.408 246.648 238.434 248.675 240.934 248.675Z" fill="#0078D4"/>
<path d="M161.661 29.0169V63.4255H169.626L179.762 52.5596L178.405 63.4255H213.611L211.439 52.5596L215.783 63.4255H221.394V29.0169H161.661Z" fill="#2F2E41"/>
<path d="M156.23 69.7642C157.73 69.7642 158.945 67.5345 158.945 64.784C158.945 62.0335 157.73 59.8038 156.23 59.8038C154.731 59.8038 153.515 62.0335 153.515 64.784C153.515 67.5345 154.731 69.7642 156.23 69.7642Z" fill="#FFB8B8"/>
<path d="M225.92 69.7642C227.419 69.7642 228.635 67.5345 228.635 64.784C228.635 62.0335 227.419 59.8038 225.92 59.8038C224.42 59.8038 223.205 62.0335 223.205 64.784C223.205 67.5345 224.42 69.7642 225.92 69.7642Z" fill="#FFB8B8"/>
<path d="M301.249 304.038V307.072C301.251 307.904 301.097 308.729 300.795 309.505C300.661 309.851 300.498 310.185 300.31 310.504C299.715 311.504 298.87 312.332 297.859 312.906C296.848 313.481 295.704 313.783 294.541 313.782H71.5083C70.3453 313.783 69.2021 313.481 68.1908 312.906C67.1795 312.332 66.3348 311.504 65.7395 310.504C65.5512 310.185 65.3892 309.851 65.2551 309.505C64.953 308.729 64.7989 307.904 64.8006 307.072V304.038C64.8003 303.157 64.9735 302.285 65.3103 301.471C65.6471 300.657 66.1409 299.917 66.7634 299.294C67.3859 298.671 68.1251 298.176 68.9386 297.839C69.7521 297.501 70.6241 297.328 71.5047 297.327H84.3643V295.913C84.3643 295.877 84.3714 295.84 84.3854 295.806C84.3994 295.772 84.4199 295.742 84.4458 295.716C84.4717 295.69 84.5024 295.669 84.5363 295.655C84.5701 295.641 84.6064 295.634 84.6431 295.634H91.3518C91.4258 295.633 91.4969 295.663 91.5493 295.715C91.6018 295.767 91.6313 295.838 91.6315 295.912V297.327H95.8219V295.913C95.8218 295.877 95.829 295.84 95.843 295.806C95.857 295.772 95.8775 295.742 95.9034 295.716C95.9293 295.69 95.96 295.669 95.9939 295.655C96.0277 295.641 96.064 295.634 96.1007 295.634H102.809C102.883 295.633 102.954 295.663 103.007 295.715C103.059 295.767 103.089 295.838 103.089 295.912V297.327H107.284V295.913C107.284 295.877 107.292 295.84 107.306 295.806C107.32 295.772 107.34 295.742 107.366 295.716C107.392 295.69 107.423 295.669 107.456 295.655C107.49 295.641 107.527 295.634 107.563 295.634H114.272C114.346 295.633 114.417 295.663 114.469 295.715C114.522 295.767 114.551 295.838 114.552 295.912V297.328H118.742V295.913C118.742 295.877 118.749 295.84 118.763 295.806C118.777 295.772 118.798 295.742 118.824 295.716C118.849 295.69 118.88 295.669 118.914 295.655C118.948 295.641 118.984 295.634 119.021 295.634H125.729C125.804 295.633 125.875 295.663 125.927 295.715C125.979 295.767 126.009 295.838 126.009 295.912V297.328H130.2V295.913C130.2 295.877 130.207 295.84 130.221 295.806C130.235 295.773 130.255 295.742 130.281 295.716C130.307 295.69 130.338 295.669 130.372 295.655C130.405 295.641 130.442 295.634 130.478 295.634H137.187C137.261 295.633 137.332 295.663 137.385 295.715C137.437 295.767 137.467 295.838 137.467 295.912V297.328H141.662V295.913C141.662 295.877 141.669 295.84 141.683 295.806C141.697 295.773 141.718 295.742 141.744 295.716C141.77 295.69 141.8 295.669 141.834 295.655C141.868 295.641 141.904 295.634 141.941 295.634H148.65C148.724 295.633 148.795 295.663 148.847 295.715C148.9 295.767 148.929 295.838 148.929 295.912V297.328H153.12V295.913C153.12 295.877 153.127 295.84 153.141 295.806C153.155 295.773 153.175 295.742 153.201 295.716C153.227 295.69 153.258 295.669 153.292 295.655C153.326 295.641 153.362 295.634 153.399 295.634H205.942C205.979 295.634 206.016 295.641 206.049 295.655C206.083 295.669 206.114 295.689 206.14 295.715C206.166 295.741 206.187 295.772 206.201 295.806C206.215 295.839 206.222 295.876 206.222 295.912V297.328H210.418V295.913C210.418 295.877 210.425 295.84 210.439 295.806C210.453 295.773 210.473 295.742 210.499 295.716C210.525 295.69 210.556 295.669 210.59 295.655C210.623 295.641 210.66 295.634 210.696 295.634H217.405C217.479 295.634 217.55 295.664 217.602 295.716C217.654 295.769 217.684 295.839 217.685 295.913V297.328H221.875V295.913C221.875 295.877 221.882 295.84 221.896 295.806C221.91 295.773 221.931 295.742 221.957 295.716C221.983 295.69 222.013 295.669 222.047 295.655C222.081 295.641 222.117 295.634 222.154 295.634H228.863C228.899 295.634 228.936 295.641 228.97 295.655C229.003 295.669 229.034 295.689 229.06 295.715C229.086 295.741 229.107 295.772 229.121 295.806C229.135 295.839 229.142 295.876 229.142 295.912V297.328H233.333V295.913C233.333 295.877 233.34 295.84 233.354 295.806C233.368 295.773 233.388 295.742 233.414 295.716C233.44 295.69 233.471 295.669 233.505 295.655C233.539 295.641 233.575 295.634 233.612 295.634H240.32C240.357 295.634 240.393 295.641 240.427 295.655C240.461 295.669 240.492 295.689 240.518 295.715C240.544 295.741 240.564 295.772 240.578 295.806C240.593 295.839 240.6 295.876 240.6 295.913V297.328H244.795V295.913C244.795 295.877 244.802 295.84 244.816 295.806C244.83 295.773 244.851 295.742 244.877 295.716C244.903 295.69 244.933 295.669 244.967 295.655C245.001 295.641 245.037 295.634 245.074 295.634H251.783C251.856 295.635 251.926 295.664 251.978 295.717C252.029 295.769 252.058 295.84 252.057 295.913V297.328H256.253V295.913C256.253 295.877 256.26 295.84 256.274 295.806C256.288 295.773 256.309 295.742 256.334 295.716C256.36 295.69 256.391 295.669 256.425 295.655C256.459 295.641 256.495 295.634 256.532 295.634H263.24C263.277 295.634 263.313 295.641 263.347 295.655C263.381 295.669 263.412 295.689 263.438 295.715C263.464 295.741 263.485 295.772 263.499 295.806C263.513 295.84 263.52 295.876 263.52 295.913V297.328H267.711V295.913C267.71 295.877 267.718 295.84 267.732 295.807C267.746 295.773 267.766 295.742 267.792 295.716C267.818 295.69 267.849 295.669 267.882 295.655C267.916 295.641 267.953 295.634 267.989 295.634H274.698C274.735 295.634 274.771 295.641 274.805 295.655C274.839 295.669 274.87 295.689 274.895 295.715C274.921 295.741 274.942 295.772 274.956 295.806C274.97 295.84 274.978 295.876 274.978 295.913V297.328H294.541C296.32 297.327 298.026 298.033 299.284 299.291C300.542 300.549 301.249 302.256 301.249 304.035L301.249 304.038Z" fill="#3F3D56"/>
<path d="M485 313.001H0V314H485V313.001Z" fill="#3F3D56"/>
<path d="M283.29 176.299H78.9897C78.2512 176.299 77.52 176.444 76.8378 176.727C76.1555 177.01 75.5356 177.424 75.0135 177.947C74.4913 178.469 74.0771 179.089 73.7945 179.772C73.5119 180.454 73.3665 181.186 73.3665 181.925V295.811C73.3665 297.303 73.9589 298.734 75.0134 299.789C76.068 300.844 77.4983 301.437 78.9896 301.437H283.29C284.781 301.437 286.212 300.844 287.266 299.789C288.321 298.734 288.913 297.303 288.913 295.811V181.925C288.913 180.433 288.321 179.002 287.266 177.947C286.212 176.892 284.781 176.299 283.29 176.299Z" fill="#3F3D56"/>
<path d="M181.303 228.552C188.199 228.552 193.79 222.959 193.79 216.059C193.79 209.16 188.199 203.567 181.303 203.567C174.407 203.567 168.817 209.16 168.817 216.059C168.817 222.959 174.407 228.552 181.303 228.552Z" fill="#0078D4"/>
<path d="M258.601 133.528L321.636 69.9655H351.395V68.9661H321.219L321.072 69.1145L257.891 132.826L258.601 133.528Z" fill="#3F3D56"/>
<path d="M460.776 43.8695H387.744V50.3805H460.776V43.8695Z" fill="#0078D4"/>
<path d="M378.843 54.4974H363.382V39.0291H378.843V54.4974ZM364.381 53.498H377.844V40.0284H364.381L364.381 53.498Z" fill="#3F3D56"/>
<path d="M460.776 65.5727H387.744V72.0837H460.776V65.5727Z" fill="#0078D4"/>
<path d="M378.843 76.2006H363.382V60.7324H378.843V76.2006ZM364.381 75.2012H377.844V61.7318H364.381L364.381 75.2012Z" fill="#3F3D56"/>
<path d="M460.776 87.2759H387.744V93.7869H460.776V87.2759Z" fill="#0078D4"/>
<path d="M378.843 97.9037H363.382V82.4355H378.843V97.9037ZM364.381 96.9043H377.844V83.4349H364.381L364.381 96.9043Z" fill="#3F3D56"/>
</g>
<defs>
<clipPath id="clip0">
<rect width="485" height="314" fill="white"/>
</clipPath>
</defs>
</svg>
