<svg width="900" height="600" viewBox="0 0 900 600" fill="none" xmlns="http://www.w3.org/2000/svg"><path fill="transparent" d="M0 0h900v600H0z"/><path d="M122.984 101c0-20.987 17.013-38 38-38h594.343c20.987 0 38 17.013 38 38v379.73c0 20.987-17.013 38-38 38H160.984c-20.987 0-38-17.013-38-38V101z" fill="#fff" stroke="#E1E4E5" stroke-width="4"/><rect x="612.307" y="349.693" width="113.298" height="113.298" rx="56.649" fill="#fff9b6"/><path fill-rule="evenodd" clip-rule="evenodd" d="M694.703 430.106v3.788c0 2.091-1.675 3.788-3.738 3.788h-44.858c-2.063 0-3.738-1.697-3.738-3.788v-3.848c0-11.463 12.927-18.91 26.167-18.91 13.24 0 26.167 7.451 26.167 18.91m-16.785-52.187c5.183 5.183 5.183 13.587 0 18.771-5.183 5.183-13.587 5.183-18.771 0-5.183-5.184-5.183-13.588 0-18.771 5.184-5.184 13.588-5.184 18.771 0z" fill="#fff"/><rect x="610.128" y="141.616" width="57.739" height="57.739" rx="28.869" fill="#fff9b6"/><path fill-rule="evenodd" clip-rule="evenodd" d="M652.118 182.596v1.93c0 1.066-.853 1.931-1.905 1.931h-22.86c-1.051 0-1.905-.865-1.905-1.931v-1.961c0-5.841 6.588-9.636 13.335-9.636 6.748 0 13.335 3.797 13.335 9.636m-8.554-26.595a6.765 6.765 0 1 1-9.566 9.563 6.765 6.765 0 0 1 9.566-9.563z" fill="#fff"/><rect x="500.098" y="115.47" width="57.739" height="57.739" rx="28.869" fill="#fff9b6"/><path fill-rule="evenodd" clip-rule="evenodd" d="M542.088 156.45v1.931c0 1.065-.853 1.93-1.905 1.93h-22.86c-1.052 0-1.905-.865-1.905-1.93v-1.962c0-5.841 6.587-9.636 13.335-9.636 6.748 0 13.335 3.797 13.335 9.636m-8.554-26.595a6.763 6.763 0 0 1 0 9.566 6.765 6.765 0 1 1 0-9.566z" fill="#fff"/><rect x="196.153" y="285.418" width="226.597" height="90.421" rx="45.21" fill="#fff" stroke="#E1E4E5" stroke-width="4"/><rect x="205.76" y="294.286" width="72.423" height="72.423" rx="36.212" fill="#fff9b6"/><path fill-rule="evenodd" clip-rule="evenodd" d="M258.428 345.688v2.422c0 1.336-1.071 2.421-2.39 2.421h-28.674c-1.319 0-2.389-1.085-2.389-2.421v-2.46c0-7.327 8.263-12.088 16.726-12.088 8.464 0 16.727 4.763 16.727 12.088m-10.727-33.36a8.485 8.485 0 1 1-12.001 11.999 8.485 8.485 0 0 1 12-11.999z" fill="#fff"/><rect x="286.574" y="313.743" width="100.225" height="5.447" rx="2.724" fill="#E1E4E5"/><rect x="286.574" y="326.815" width="100.225" height="6.536" rx="3.268" fill="#E1E4E5"/><rect x="286.574" y="340.978" width="100.225" height="5.447" rx="2.724" fill="#E1E4E5"/><rect x="499.008" y="218.964" width="226.597" height="90.421" rx="45.21" fill="#fff" stroke="#E1E4E5" stroke-width="4"/><rect x="508.616" y="227.832" width="72.423" height="72.423" rx="36.212" fill="#fff9b6"/><path fill-rule="evenodd" clip-rule="evenodd" d="M561.283 279.234v2.422c0 1.336-1.071 2.421-2.39 2.421h-28.674c-1.319 0-2.389-1.085-2.389-2.421v-2.46c0-7.327 8.263-12.088 16.726-12.088 8.464 0 16.727 4.763 16.727 12.088m-10.727-33.359a8.484 8.484 0 0 1 0 11.998 8.484 8.484 0 0 1-11.999 0 8.484 8.484 0 0 1 0-11.998 8.484 8.484 0 0 1 11.999 0z" fill="#fff"/><rect x="589.429" y="247.289" width="100.225" height="5.447" rx="2.724" fill="#E1E4E5"/><rect x="589.429" y="260.362" width="100.225" height="6.536" rx="3.268" fill="#E1E4E5"/><rect x="589.429" y="274.524" width="100.225" height="5.447" rx="2.724" fill="#E1E4E5"/><rect x="251.713" y="169.941" width="226.597" height="90.421" rx="45.21" fill="#fff" stroke="#E1E4E5" stroke-width="4"/><rect x="261.32" y="178.809" width="72.423" height="72.423" rx="36.212" fill="#fff9b6"/><path fill-rule="evenodd" clip-rule="evenodd" d="M313.987 230.211v2.422c0 1.336-1.07 2.421-2.389 2.421h-28.674c-1.319 0-2.39-1.085-2.39-2.421v-2.461c0-7.327 8.263-12.087 16.727-12.087s16.726 4.763 16.726 12.087m-10.726-33.359a8.485 8.485 0 1 1-12.001 11.999 8.485 8.485 0 0 1 12.001-11.999z" fill="#fff"/><rect x="342.134" y="198.265" width="100.225" height="5.447" rx="2.724" fill="#E1E4E5"/><rect x="342.134" y="211.338" width="100.225" height="6.536" rx="3.268" fill="#E1E4E5"/><rect x="342.134" y="225.501" width="100.225" height="5.447" rx="2.724" fill="#E1E4E5"/><path d="M176.723 100.763c0 4.126-3.119 7.26-6.716 7.26-3.596 0-6.715-3.134-6.715-7.26 0-4.125 3.119-7.26 6.715-7.26 3.597 0 6.716 3.135 6.716 7.26zm28.324 0c0 3.904-3.385 7.26-7.804 7.26-4.42 0-7.805-3.356-7.805-7.26 0-3.903 3.385-7.26 7.805-7.26 4.419 0 7.804 3.357 7.804 7.26z" fill="#fff" stroke="#E1E4E5" stroke-width="4"/><circle cx="223.933" cy="100.763" r="7.26" fill="#fff" stroke="#E1E4E5" stroke-width="4"/><path opacity=".76" fill-rule="evenodd" clip-rule="evenodd" d="m295.289 403.074 57.739 90.421H237.551l57.738-90.421z" fill="url(#a)"/><path opacity=".76" fill-rule="evenodd" clip-rule="evenodd" d="m480.646 279.269 26.237 40.814h-52.475l26.238-40.814z" fill="url(#b)"/><path d="M86.786 460.138c-6.489 5.67-17.651 3.52-17.651 3.52s-.635-11.344 5.86-17.01c6.489-5.67 17.646-3.524 17.646-3.524s.634 11.344-5.855 17.014z" fill="url(#c)"/><circle cx="755.413" cy="89.53" r="3.974" transform="rotate(105 755.413 89.53)" fill="#E1E4E5"/><circle cx="739.188" cy="120.629" r="3.974" transform="rotate(105 739.188 120.629)" fill="#E1E4E5"/><circle cx="831.133" cy="65.867" r="3.974" transform="rotate(105 831.133 65.867)" fill="#E1E4E5"/><circle cx="812.688" cy="322.388" r="2.611" transform="rotate(105 812.688 322.388)" fill="#E1E4E5"/><circle cx="775.739" cy="530.316" r="3.974" transform="rotate(105 775.739 530.316)" fill="#E1E4E5"/><rect x="586.12" y="494.337" width="15.269" height="1.779" rx=".889" transform="rotate(-45 586.12 494.337)" fill="#E1E4E5"/><rect x="591.974" y="494.379" width="5.669" height="1.779" rx=".889" transform="rotate(-45 591.974 494.379)" fill="#E1E4E5"/><path d="M734.204 492.37c-.091-.132 6.562-4.872 14.867-10.568 8.302-5.706 15.116-10.221 15.207-10.089.091.132-6.565 4.861-14.867 10.567-8.313 5.709-15.116 10.222-15.207 10.09zm28.305-50.077h.095c.565 7.665 6.513 7.783 6.513 7.783s-6.559.122-6.559 8.979c0-8.857-6.56-8.979-6.56-8.979s5.946-.118 6.511-7.783z" fill="#E1E4E5"/><path d="m456.373 405.1-23.298 85.171 8.312-9.566c-3.074 1.637-6.638 2.892-10.585 3.783-3.947.891-8.239 1.4-12.731 1.637-4.492.236-9.167.2-13.968 0-4.783-.2-9.676-.564-14.641-.982h-.018c-7.329-.619-13.768 4.801-14.404 12.131-.601 6.983 4.365 13.167 11.167 14.277 5.128.818 10.33 1.582 15.677 2.2 5.347.619 10.822 1.073 16.496 1.201 5.674.127 11.549-.091 17.624-.964 6.056-.873 12.349-2.456 18.496-5.111 3.928-1.691 6.729-4.929 8.002-8.693l.291-.892 27.954-83.77c3.147-9.421-1.946-19.588-11.367-22.734-9.421-3.147-19.588 1.946-22.734 11.367-.091.309-.2.654-.273.945z" fill="#F8AE9D"/><path d="M508.151 522.1c.309 2.4 1.364 4.237 2.364 4.092.982-.128 1.546-2.183 1.237-4.565-.309-2.401-1.364-4.238-2.365-4.092-1 .127-1.545 2.182-1.236 4.565z" fill="#B55E63"/><mask id="d" fill="#fff"><path fill-rule="evenodd" clip-rule="evenodd" d="M468.194 492.303a.245.245 0 0 0-.107-.202 24.699 24.699 0 0 1-.908-.667c-2.106-1.553-2.482-5.147-3.103-11.076-.207-1.971-.44-4.2-.773-6.698-1.328-9.957-2.31-15.908-5.311-29.189-.226-1-.466-2.003-.708-3.009-.875-3.646-1.76-7.33-1.976-11.041a6.92 6.92 0 0 1 .003-.864c.111-1.33.184-2.661.221-4.01.037-1.072.056-2.144.056-3.216v-.98a432.852 432.852 0 0 0-.046-4.666c-.152-11.223-.237-17.516 7.761-23.056 2.067-1.442 4.688-2.81 7.973-4.214 2.658-1.128 5.741-2.273 9.358-3.475 1.458-.48 3.027-.979 4.688-1.497l3.913-1.072 40.425-11.198c.401-.111.818-.15 1.233-.131a240.202 240.202 0 0 1 6.193.402c.622.047 1.28.096 1.965.152 3.433.278 7.66.666 12.256 1.22 1.346.154 2.74.339 4.152.526l.351.047c4.689.629 8.472 2.218 11.462 4.51 5.298 4.066 8.159 10.386 9.211 17.724.59 4.121.627 8.557.221 13.103a79.102 79.102 0 0 1-.683 5.416 76.059 76.059 0 0 1-.941 4.897 265.134 265.134 0 0 0-2.824 14.619l-.332 1.996c-.068.457-.139.918-.211 1.381-.085.548-.171 1.099-.251 1.65-2.215 14.749-3.304 29.072-3.082 39.145v.011l.055 1.8c.259 6.783 1.034 14.379 2.492 22.825.081.426.156.852.232 1.281.063.353.126.708.192 1.066.043.227.052.45.03.665 4.316 4.198 6.359 9.57 2.556 14.603-1.82 2.408-6.443 3.72-9.46 3.836l-72.325 2.786c-10.926.42-22.024-4.369-22.327-15.299-.041-1.504 0-3.124.147-4.864 0-.003.244-.254.726-.696-1.194-.406-2.116-1.491-2.116-2.86a223.895 223.895 0 0 0-.093-5.305 155.074 155.074 0 0 0-.221-5.267c-.019-.388-.037-.758-.074-1.109z"/></mask><path fill-rule="evenodd" clip-rule="evenodd" d="M468.194 492.303a.245.245 0 0 0-.107-.202 24.699 24.699 0 0 1-.908-.667c-2.106-1.553-2.482-5.147-3.103-11.076-.207-1.971-.44-4.2-.773-6.698-1.328-9.957-2.31-15.908-5.311-29.189-.226-1-.466-2.003-.708-3.009-.875-3.646-1.76-7.33-1.976-11.041a6.92 6.92 0 0 1 .003-.864c.111-1.33.184-2.661.221-4.01.037-1.072.056-2.144.056-3.216v-.98a432.852 432.852 0 0 0-.046-4.666c-.152-11.223-.237-17.516 7.761-23.056 2.067-1.442 4.688-2.81 7.973-4.214 2.658-1.128 5.741-2.273 9.358-3.475 1.458-.48 3.027-.979 4.688-1.497l3.913-1.072 40.425-11.198c.401-.111.818-.15 1.233-.131a240.202 240.202 0 0 1 6.193.402c.622.047 1.28.096 1.965.152 3.433.278 7.66.666 12.256 1.22 1.346.154 2.74.339 4.152.526l.351.047c4.689.629 8.472 2.218 11.462 4.51 5.298 4.066 8.159 10.386 9.211 17.724.59 4.121.627 8.557.221 13.103a79.102 79.102 0 0 1-.683 5.416 76.059 76.059 0 0 1-.941 4.897 265.134 265.134 0 0 0-2.824 14.619l-.332 1.996c-.068.457-.139.918-.211 1.381-.085.548-.171 1.099-.251 1.65-2.215 14.749-3.304 29.072-3.082 39.145v.011l.055 1.8c.259 6.783 1.034 14.379 2.492 22.825.081.426.156.852.232 1.281.063.353.126.708.192 1.066.043.227.052.45.03.665 4.316 4.198 6.359 9.57 2.556 14.603-1.82 2.408-6.443 3.72-9.46 3.836l-72.325 2.786c-10.926.42-22.024-4.369-22.327-15.299-.041-1.504 0-3.124.147-4.864 0-.003.244-.254.726-.696-1.194-.406-2.116-1.491-2.116-2.86a223.895 223.895 0 0 0-.093-5.305 155.074 155.074 0 0 0-.221-5.267c-.019-.388-.037-.758-.074-1.109z" fill="#fff"/><path d="m468.087 492.101 2.28-3.287-2.28 3.287zm.107.202-3.978.418-.022-.208v-.21h4zm-1.015-.869 2.375-3.218.028.021.029.022-2.432 3.175zm-3.103-11.076 3.978-.417-3.978.417zm-.773-6.698 3.965-.529-3.965.529zm-5.311-29.189 3.902-.881-3.902.881zm-.708-3.009 3.89-.934-3.89.934zm-1.976-11.041-3.993.232 3.993-.232zm.003-.864-3.991-.274.002-.029.003-.028 3.986.331zm.221-4.01-3.998-.11v-.014l.001-.014 3.997.138zm.056-4.196 4-.01v.01h-4zm-.046-4.666 4-.054-4 .054zm7.761-23.056 2.288 3.281-.01.007-2.278-3.288zm7.973-4.214-1.572-3.678.01-.005 1.562 3.683zm9.358-3.475-1.26-3.796.008-.003 1.252 3.799zm4.688-1.497-1.189-3.819.066-.02.066-.019 1.057 3.858zm3.913-1.072 1.068 3.855-.011.003-1.057-3.858zm40.425-11.198-1.068-3.855 1.068 3.855zm1.233-.131-.17 3.996h-.012l.182-3.996zm5.039.314.277-3.99.018.001.018.001-.313 3.988zm1.154.088-.3 3.989.3-3.989zm1.965.152-.322 3.987h-.005l.327-3.987zm12.256 1.22-.453 3.974-.013-.001-.013-.002.479-3.971zm4.152.526-.527 3.966.527-3.966zm.351.047.527-3.965.005.001-.532 3.964zm11.462 4.51 2.434-3.175.002.002-2.436 3.173zm9.211 17.724 3.959-.568-3.959.568zm.221 13.103 3.984.356-.001.013-3.983-.369zm-.683 5.416-3.95-.628.001-.008.001-.008 3.948.644zm-.941 4.897-3.904-.873.003-.012 3.901.885zm-2.824 14.619 3.946.652v.005l-3.946-.657zm-.332 1.996-3.957-.585.005-.036.006-.035 3.946.656zm-.211 1.381-3.953-.613 3.953.613zm-.251 1.65 3.959.575-.002.01-.001.009-3.956-.594zm-3.082 39.145-3.998.121-.001-.017v-.016l3.999-.088zm0 .011-3.998.121 3.998-.121zm.055 1.8-3.997.152v-.013l-.001-.014 3.998-.125zm2.492 22.825-3.93.748-.006-.034-.006-.033 3.942-.681zm.232 1.281-3.938.698 3.938-.698zm.192 1.066-3.93.745-.002-.014 3.932-.731zm.03.665-2.789 2.867-1.384-1.346.193-1.921 3.98.4zm2.556 14.603 3.191 2.412-3.191-2.412zm-9.46 3.836.154 3.997-.154-3.997zm-72.325 2.786.153 3.997-.153-3.997zm-22.327-15.299-3.998.111 3.998-.111zm.147-4.864h4v.169l-.014.169-3.986-.338zm.726-.696 1.288-3.787 6.397 2.175-4.984 4.563-2.701-2.951zm-2.116-2.86 3.999-.039.001.019v.02h-4zm-.093-5.305-3.997.136-.001-.013v-.013l3.998-.11zm-.221-5.267-3.992.249-.002-.029-.002-.03 3.996-.19zm2.099-4.598a4.245 4.245 0 0 1 1.827 3.489h-8c0 1.255.623 2.397 1.613 3.084l4.56-6.573zm-.756-.555c.378.289.646.478.756.555l-4.559 6.573a26.437 26.437 0 0 1-1.061-.777l4.864-6.351zm-1.557-8.318c.321 3.066.547 5.148.909 6.673.364 1.537.692 1.676.591 1.602l-4.75 6.437c-2.206-1.628-3.12-4.062-3.625-6.193-.508-2.142-.781-4.822-1.081-7.685l7.956-.834zm-.786-6.81c.341 2.561.58 4.842.786 6.81l-7.956.834c-.207-1.974-.435-4.151-.76-6.587l7.93-1.057zm-5.374-29.541c3.027 13.398 4.031 19.467 5.374 29.541l-7.93 1.057c-1.312-9.838-2.273-15.672-5.247-28.835l7.803-1.763zm-.72-3.062c.24 1.002.487 2.031.72 3.062l-7.803 1.763c-.219-.97-.454-1.947-.696-2.957l7.779-1.868zm-1.872-10.339c.191 3.295.981 6.63 1.872 10.339l-7.779 1.868c-.861-3.584-1.84-7.616-2.08-11.743l7.987-.464zm-.001-.357c-.006.1-.007.218.001.357l-7.987.464a10.82 10.82 0 0 1 .005-1.37l7.981.549zm.23-4.176a75.864 75.864 0 0 1-.234 4.233l-7.972-.663c.104-1.257.174-2.514.209-3.789l7.997.219zm.057-3.325c0 1.118-.02 2.236-.058 3.353l-7.995-.275c.035-1.026.053-2.052.053-3.078h8zm0-.24v.24h-8v-.24h8zm0-.74v.74h-8v-.74h8zm-.046-4.72c.02 1.466.041 3.039.046 4.71l-8 .021c-.004-1.621-.025-3.152-.045-4.622l7.999-.109zm6.039-19.714c-3.284 2.274-4.648 4.456-5.345 7.121-.792 3.03-.773 6.794-.694 12.593l-7.999.109c-.074-5.425-.173-10.419.953-14.726 1.222-4.672 3.814-8.407 8.529-11.673l4.556 6.576zm7.268-3.824c-3.152 1.347-5.5 2.591-7.258 3.817l-4.576-6.562c2.376-1.658 5.27-3.149 8.689-4.611l3.145 7.356zm9.046-3.357c-3.544 1.177-6.522 2.286-9.057 3.361l-3.124-7.365c2.781-1.179 5.968-2.362 9.66-3.588l2.521 7.592zm4.617-1.474a313.572 313.572 0 0 0-4.626 1.477l-2.504-7.598c1.485-.489 3.076-.995 4.751-1.517l2.379 7.638zm3.78-1.033-3.913 1.072-2.114-7.716 3.913-1.072 2.114 7.716zm40.436-11.201-40.425 11.198-2.136-7.71 40.425-11.198 2.136 7.71zm-.017.01a.204.204 0 0 0-.031 0c.002-.001.019-.002.048-.01l-2.136-7.71a7.95 7.95 0 0 1 2.483-.272l-.364 7.992zm4.944.309a241.593 241.593 0 0 0-4.932-.309l.341-7.992c.928.039 2.752.154 5.145.32l-.554 7.981zm1.131.086-1.167-.089.626-7.976c.36.029.739.057 1.14.087l-.599 7.978zm1.938.15c-.669-.055-1.314-.103-1.938-.15l.599-7.978c.621.047 1.292.097 1.994.155l-.655 7.973zm12.104 1.204c-4.529-.546-8.7-.929-12.099-1.204l.644-7.974c3.468.28 7.75.673 12.413 1.236l-.958 7.942zm4.104.521a224.634 224.634 0 0 0-4.078-.518l.906-7.948c1.39.159 2.821.349 4.226.535l-1.054 7.931zm.352.046-.352-.046 1.054-7.931.351.047-1.053 7.93zm9.555 3.719c-2.38-1.824-5.491-3.174-9.56-3.719l1.063-7.929c5.307.711 9.764 2.54 13.364 5.299l-4.867 6.349zm7.684 15.117c-.96-6.696-3.487-11.895-7.686-15.118l4.871-6.346c6.395 4.908 9.59 12.351 10.734 20.329l-7.919 1.135zm.197 12.181c.384-4.306.341-8.425-.197-12.181l7.919-1.135c.643 4.488.674 9.24.246 14.027l-7.968-.711zm-.647 5.127c.279-1.708.489-3.426.648-5.141l7.966.738a82.83 82.83 0 0 1-.718 5.69l-7.896-1.287zm-.894 4.656c.349-1.537.646-3.096.892-4.64l7.901 1.255a80.925 80.925 0 0 1-.991 5.156l-7.802-1.771zm-2.87 14.852a270.26 270.26 0 0 1 2.867-14.84l7.807 1.746a262.824 262.824 0 0 0-2.781 14.398l-7.893-1.304zm-.331 1.992.332-1.996 7.892 1.313-.333 1.996-7.891-1.313zm-.218 1.424c.072-.465.141-.912.207-1.353l7.914 1.171c-.07.473-.144.948-.216 1.408l-7.905-1.226zm-.256 1.688c.083-.573.171-1.143.256-1.688l7.905 1.226c-.085.552-.168 1.084-.244 1.612l-7.917-1.15zm-3.123 39.808c-.228-10.371.889-24.935 3.126-39.827l7.911 1.188c-2.193 14.605-3.254 28.689-3.039 38.463l-7.998.176zm.001.044v-.011l7.996-.242v.012l-7.996.241zm.055 1.804-.055-1.804 7.996-.242.055 1.796-7.996.25zm2.548 23.381c-1.486-8.608-2.281-16.381-2.547-23.354l7.994-.304c.251 6.593 1.006 14.012 2.437 22.297l-7.884 1.361zm.236 1.298c-.077-.433-.148-.834-.224-1.231l7.859-1.495c.087.454.167.905.242 1.33l-7.877 1.396zm.198 1.099c-.07-.378-.136-.749-.198-1.099l7.877-1.396c.063.355.123.694.186 1.034l-7.865 1.461zm-.018-.466c-.016.165-.008.328.02.48l7.861-1.489c.114.605.139 1.214.079 1.809l-7.96-.8zm6.769-2.467c2.495 2.427 4.628 5.465 5.432 8.958.843 3.663.133 7.474-2.474 10.924l-6.382-4.823c1.196-1.584 1.366-2.976 1.06-4.306-.346-1.502-1.393-3.248-3.214-5.019l5.578-5.734zm2.958 19.882c-1.594 2.109-4.059 3.377-6.099 4.123-2.138.781-4.459 1.224-6.398 1.298l-.307-7.994c1.077-.041 2.576-.313 3.959-.818 1.481-.542 2.237-1.134 2.463-1.432l6.382 4.823zm-12.497 5.421-72.326 2.786-.307-7.994 72.326-2.786.307 7.994zm-72.326 2.786c-6.019.231-12.348-.949-17.361-3.962-5.154-3.098-8.922-8.183-9.117-15.223l7.997-.222c.108 3.89 2.04 6.664 5.241 8.588 3.344 2.01 8.026 3.014 12.933 2.825l.307 7.994zm-26.478-19.185c-.046-1.657 0-3.427.16-5.312l7.971.675a39.245 39.245 0 0 0-.134 4.415l-7.997.222zm.145-4.975a3.997 3.997 0 0 1 .525-1.981c.102-.179.197-.311.232-.36.081-.113.151-.196.171-.221.053-.064.098-.112.11-.126l.075-.081.083-.086.192-.19c.153-.15.366-.352.637-.601l5.402 5.901c-.21.192-.36.336-.45.424-.046.044-.072.071-.081.08l.015-.015.057-.063a4.067 4.067 0 0 0 .508-.7c.05-.088.144-.261.236-.491.042-.109.127-.364.167-.511.045-.202.111-.692.121-.979h-8zm6.61-3.556c0-.245-.091-.481-.221-.65a.8.8 0 0 0-.375-.277l-2.575 7.574c-2.596-.882-4.829-3.343-4.829-6.647h8zm-.095-5.441c.057 1.684.076 3.507.094 5.402l-7.999.077a226.004 226.004 0 0 0-.09-5.207l7.995-.272zm-.227-5.38c.096 1.539.172 3.363.228 5.406l-7.997.22c-.055-1.985-.127-3.71-.215-5.128l7.984-.498zm-.088-1.278c.051.483.074.964.091 1.337l-7.991.38a16.254 16.254 0 0 0-.056-.881l7.956-.836z" fill="#E1E4E5" mask="url(#d)"/><path d="M529.377 374.018s-3.619 13.695-17.296 17.496c-17.387 4.82-20.006-1.018-20.006-1.018.437-2.492.582-4.929.473-7.512a42.64 42.64 0 0 0-.237-3.001c-.309-2.8-.891-5.856-1.709-9.348-.182-.818-.4-1.673-.618-2.546l-.019-.109c11.895-4.474 21.225-11.185 26.936-21.116l1.691-1.327 1.146-.91.327.691.055 2.31c.236 10.858 2.073 17.278 9.257 26.39zm4.848 21.666L508.1 492.01l9.315-10.818c-3.446 1.853-7.441 3.261-11.86 4.277-4.419.998-9.244 1.586-14.264 1.836-5.037.267-10.287.214-15.66 0-5.374-.232-10.853-.624-16.421-1.105h-.035c-8.219-.713-15.448 5.435-16.155 13.722-.672 7.895 4.896 14.899 12.532 16.147 5.744.927 11.595 1.8 17.587 2.495 5.991.695 12.143 1.23 18.506 1.372 6.363.143 12.956-.107 19.761-1.105s13.857-2.78 20.751-5.774c4.418-1.925 7.547-5.578 8.979-9.82l.336-.998 31.32-94.757c3.518-10.657-2.174-22.152-12.744-25.717-10.552-3.546-21.97 2.192-25.505 12.85-.106.338-.23.748-.318 1.069z" fill="#F8AE9D"/><path fill-rule="evenodd" clip-rule="evenodd" d="M226.511 528.992v-5.043c0-2.894 2.907-5.239 6.478-5.253h450.149c3.59 0 6.478 2.359 6.478 5.253v5.043c0 2.907-2.907 5.253-6.478 5.253h-20.156a5.142 5.142 0 0 0-5.142 5.142c0 .897-1.473 1.619-3.291 1.619H249.391c-1.801 0-3.274-.722-3.274-1.619a5.142 5.142 0 0 0-5.142-5.142h-7.986c-3.59 0-6.478-2.346-6.478-5.253z" fill="#fff"/><path d="m232.989 518.696-.008-2h.008v2zm-4.478 5.253v5.043h-4v-5.043h4zm4.486-3.253c-2.892.011-4.486 1.84-4.486 3.253h-4c0-4.374 4.219-7.237 8.47-7.253l.016 4zm450.141 0H232.989v-4h450.149v4zm4.478 3.253c0-1.422-1.585-3.253-4.478-3.253v-4c4.288 0 8.478 2.888 8.478 7.253h-4zm0 5.043v-5.043h4v5.043h-4zm-4.478 3.253c2.882 0 4.478-1.824 4.478-3.253h4c0 4.385-4.217 7.253-8.478 7.253v-4zm-20.156 0h20.156v4h-20.156v-4zm-8.433 6.761c.672 0 1.18-.138 1.446-.268.132-.066.128-.091.07-.023-.07.081-.225.314-.225.672h4c0 1.63-1.283 2.548-2.082 2.941-.925.454-2.063.678-3.209.678v-4zm-405.158 0h405.158v4H249.391v-4zm-1.274.381c0-.358-.154-.59-.224-.671-.058-.068-.061-.042.07.023.264.13.767.267 1.428.267v4c-1.141 0-2.274-.225-3.197-.68-.796-.392-2.077-1.311-2.077-2.939h4zm-15.128-7.142h7.986v4h-7.986v-4zm-4.478-3.253c0 1.433 1.582 3.253 4.478 3.253v4c-4.284 0-8.478-2.871-8.478-7.253h4zm15.606 10.395a3.142 3.142 0 0 0-3.142-3.142v-4a7.141 7.141 0 0 1 7.142 7.142h-4zm418.865-3.142a3.142 3.142 0 0 0-3.142 3.142h-4a7.142 7.142 0 0 1 7.142-7.142v4z" fill="#E1E4E5"/><path d="m280.993 393.66 21.097 89.227.564 2.346 1.419 6.002a5.757 5.757 0 0 0 5.601 4.438h142.134c3.71 0 6.475-3.474 5.62-7.093l-23.08-97.575a5.757 5.757 0 0 0-5.601-4.438H286.613c-3.728.019-6.475 3.492-5.62 7.093z" fill="#fff9b6"/><path d="M350.05 444.949c.672 6.147 6.201 11.112 12.349 11.112 6.147 0 10.567-4.983 9.894-11.112-.673-6.147-6.202-11.112-12.35-11.112-6.147 0-10.566 4.965-9.893 11.112z" fill="#fff"/><path d="m423.091 386.584 24.571 109.105h4.146c3.711 0 6.457-3.473 5.602-7.093l-23.08-97.575a5.757 5.757 0 0 0-5.601-4.437h-5.638zm-41.069 108.222 3.898 21.811h-12.88l-3.898-21.811h12.88z" fill="#A49B37"/><path d="m403.826 514.648-2.91-4.092a5.568 5.568 0 0 0-4.529-2.328h-39.048a5.508 5.508 0 0 0-4.91 2.983l-1.965 3.764c-.927 1.765.364 3.856 2.346 3.856h48.852c2.146 0 3.401-2.437 2.164-4.183z" fill="#A49B37"/><path fill-rule="evenodd" clip-rule="evenodd" d="M507.211 346.598v15.877l11.609-9.388s3.568-15.212 6.47-26.51c1.82-7.085 6.254-31.063-11.596-29.939-14.622-25.888-57.206-9.866-57.545 21.761 8.151 45.948 1.25 60.54 1.25 60.54 24.08 1.388 36.309-9.799 49.812-32.341z" fill="#A49B37"/><path fill-rule="evenodd" clip-rule="evenodd" d="m490.335 340.571 1.984 13.845-11.296-6.736s-5.013-12.819-8.955-22.308c-2.472-5.951-9.335-26.306 6.371-27.556 9.516-24.401 48.651-15.751 52.899 11.786-1.367 41.085 6.474 52.947 6.474 52.947-20.824 4.219-32.886-4.008-47.477-21.978z" fill="#A49B37"/><path d="M483.799 371.245s39.359-3.833 36.593-28.309c-2.766-24.476.447-41.454-24.797-40.039-25.244 1.414-29.071 11.302-30.131 19.695-1.061 8.394 8.03 49.019 18.335 48.653z" fill="#F8AE9D"/><path fill-rule="evenodd" clip-rule="evenodd" d="M519.008 329.296c-4.987.808-4.382 4.052-5.738 3.768-6.886-1.438-34.761.459-38.35-14.601-4.466 9.409-5.557 11.722-15.391 14.247v-27.57l62.198-5.862s-.966 29.732-2.719 30.018z" fill="#A49B37"/><path d="m754.879 333.352-16.769 16.753-8.147-8.123m-502.357-94.693-16.769 16.753-8.147-8.123m52.151 147.155-16.769 16.753-8.147-8.123m372.437-77.263-16.769 16.753-8.147-8.122m-385.791 118.83-16.769 16.753-8.147-8.123m72.85-308.217-16.769 16.753-8.147-8.123m382.242-18.435-16.77 16.753-8.146-8.122" stroke="#E1E4E5" stroke-width="4" stroke-linecap="round" stroke-linejoin="round"/><defs><linearGradient id="a" x1="297.751" y1="544.19" x2="295.568" y2="304.699" gradientUnits="userSpaceOnUse"><stop stop-color="#fff"/><stop offset="1" stop-color="#EEE"/></linearGradient><linearGradient id="b" x1="481.765" y1="342.965" x2="480.786" y2="234.864" gradientUnits="userSpaceOnUse"><stop stop-color="#fff"/><stop offset="1" stop-color="#EEE"/></linearGradient><linearGradient id="c" x1="61.164" y1="479.243" x2="109.901" y2="414.315" gradientUnits="userSpaceOnUse"><stop stop-color="#fff"/><stop offset="1" stop-color="#EEE"/></linearGradient></defs></svg>