<svg width="900" height="600" viewBox="0 0 900 600" fill="none" xmlns="http://www.w3.org/2000/svg"><path fill="transparent" d="M0 0h900v600H0z"/><path fill-rule="evenodd" clip-rule="evenodd" d="M227.179 128.153c-43.982 0-79.96 35.748-79.96 79.448 0 43.7 35.978 79.449 79.96 79.449 8.823 0 16.049 7.179 16.049 15.946 0 8.766-7.226 15.946-16.049 15.946h-41.84c-21.456 0-39.013 17.445-39.013 38.763 0 21.318 17.557 38.762 39.013 38.762 18.556 0 33.739 15.087 33.739 33.524 0 33.639 27.7 61.162 61.556 61.162h361.351c43.981 0 79.96-35.749 79.96-79.448 0-43.7-35.979-79.449-79.96-79.449h-7.735c-8.823 0-16.049-7.171-16.049-15.946 0-8.767 7.217-15.947 16.049-15.947h52.064c21.456 0 39.012-17.444 39.012-38.762 0-21.292-17.512-38.718-38.932-38.763h-41.893c-18.556 0-33.74-15.086-33.74-33.523 0-33.639-27.7-61.162-61.556-61.162H227.179z" fill="url(#a)"/><path d="M378.087 519.969h364.622c10.818 0 19.59-8.772 19.59-19.59v-228.46c0-10.818-8.772-19.591-19.59-19.591H378.087c-10.818 0-19.591 8.773-19.591 19.591v228.46c0 10.818 8.773 19.59 19.591 19.59z" fill="#fff" stroke="#E1E4E5" stroke-width="2.819"/><path d="M358.496 271.919a6.227 6.227 0 0 0 6.226 6.226h391.351a6.226 6.226 0 0 0 6.226-6.226c0-10.818-8.772-19.591-19.59-19.591H378.087c-10.818 0-19.591 8.773-19.591 19.591z" fill="#fff" stroke="#E1E4E5" stroke-width="2.819"/><path d="M419.386 270.667a4.51 4.51 0 1 1 0-9.02 4.51 4.51 0 0 1 0 9.02zm-18.791 0a4.51 4.51 0 1 1 .001-9.02 4.51 4.51 0 0 1-.001 9.02zm-18.039 0a4.51 4.51 0 1 1 .001-9.02 4.51 4.51 0 0 1-.001 9.02z" fill="#E1E4E5"/><path d="M600.913 322.537s17.22-2.778 21.844 28.051c5.139 34.273 18.859 28.635 40.647 56.464 12.734 16.262-.666 44.98-27.898 44.41-27.233-.555-51.826-8.54-67.491-5.124-15.664 3.416-16.525-37.272-1.069-49.826 15.456-12.554-17.497-48.604 2.583-64.657 20.08-16.053 31.384-9.318 31.384-9.318z" fill="#4A537E"/><path d="m559.031 414.648-17.789 65.032 6.346-7.305c-2.347 1.25-5.069 2.208-8.082 2.889-3.014.68-6.291 1.069-9.721 1.249-3.43.181-6.999.153-10.665 0-3.652-.152-7.388-.43-11.179-.749h-.014a10.174 10.174 0 0 0-10.998 9.262c-.459 5.333 3.332 10.054 8.526 10.901 3.916.625 7.888 1.208 11.971 1.681 4.082.472 8.262.819 12.595.916 4.333.097 8.818-.069 13.456-.736 4.625-.666 9.43-1.875 14.123-3.902 3-1.292 5.138-3.763 6.11-6.638l.223-.68 21.344-63.963c2.402-7.194-1.486-14.956-8.679-17.359-7.194-2.402-14.957 1.486-17.359 8.679-.07.236-.153.5-.208.723z" fill="#F8AE9D"/><path d="M647.531 491.401s.653 4.888-5.902 6.179l-68.198 1.403s-4.583-2.375-3.68-8.068c0-.014 28.982-15.804 77.78.486z" fill="#4A537E"/><path d="M573.612 492.914c15.081-.723 44.743-.667 68.573 8.498a180.295 180.295 0 0 1-1.958-14.47c-15.04-1.014-51.923-3.055-66.421.181l-.194 5.791z" fill="#F8AE9D"/><path d="M571.765 515.516c42.162 4.975 73.6-4.698 73.6-4.698-1.817-4.133-3.149-8.787-4.093-13.019a116.713 116.713 0 0 1-1.956-11.546c-15.025-.809-51.874-2.437-66.358.144l-.194 4.621-.999 24.498z" fill="#F8AE9D"/><path d="M569.446 478.694v.097c.027.264.041.541.055.833.07 1.111.125 2.444.167 3.958.041 1.222.055 2.555.069 3.985 0 1.069.014 2.18.014 3.333 20.108-8.679 61.227-2.513 77.78.5-.166-.833-.319-1.653-.472-2.458-.111-.597-.208-1.18-.319-1.764-1.097-6.346-1.681-12.053-1.875-17.15l-.042-1.361c-.166-7.568.653-18.33 2.32-29.412.111-.764.236-1.528.347-2.278l.25-1.499a199.796 199.796 0 0 1 2.124-10.985c.278-1.222.514-2.458.709-3.68.222-1.361.388-2.722.513-4.069.306-3.416.278-6.749-.166-9.846-.792-5.513-2.944-10.262-6.93-13.317-2.249-1.722-5.096-2.916-8.624-3.388-1.152-.153-2.291-.306-3.388-.431a234.405 234.405 0 0 0-9.221-.916c-.847-.07-1.638-.125-2.347-.181a180.646 180.646 0 0 0-3.791-.236c-.305-.014-.472-.028-.472-.028l-30.87 8.541-2.944.805c-1.25.389-2.431.764-3.528 1.125-2.722.902-5.041 1.763-7.04 2.611-2.472 1.055-4.444 2.083-6 3.166-6.804 4.707-5.832 10.137-5.804 20.83v.736c0 .805-.014 1.611-.042 2.416a53.59 53.59 0 0 1-.167 3.014 104.411 104.411 0 0 1-.597 5.985c-1.472 12.026-4.221 22.747-1.486 28.288 2.931 5.943 8.902 10.665 11.013 12.22.472.361.764.556.764.556z" fill="#acb6e5"/><path d="M626.146 485.998a.697.697 0 0 0 .541-.541.683.683 0 0 0-.541-.806c-14.068-2.777-24.191-7.735-24.289-7.79a.689.689 0 0 0-.916.305.69.69 0 0 0 .305.917c.098.055 10.374 5.096 24.636 7.902.097.027.18.027.264.013zm-11.374-95.083s-2.763 10.457-13.206 13.359c-13.276 3.68-15.275-.777-15.275-.777.333-1.903.444-3.764.361-5.736a33.51 33.51 0 0 0-.181-2.291c-.236-2.139-.68-4.472-1.305-7.138-.139-.625-.306-1.277-.472-1.944l-.014-.083c9.082-3.416 16.206-8.541 20.566-16.123l1.292-1.014.874-.694.25.528.042 1.763c.181 8.291 1.583 13.193 7.068 20.15z" fill="#F8AE9D"/><path d="M599.678 378.208c-1.403 4.722-4.986 13.207-13.207 17.248-.236-2.139-.68-4.472-1.305-7.138-.139-.625-.305-1.278-.472-1.944.18 0 .375-.014.569-.028 5.138-.305 10.346-3.638 14.415-8.138z" fill="#F8AE9D"/><path d="M617.078 353.532c.972 5.027-2.111 12.012-8.652 13.47l-.028.014-.138.028c-.056.305-.125.611-.195.93-.028.139-.069.278-.097.417 0 .014 0 .028-.014.041-2.458 9.332-13.665 16.706-20.219 18.164-2.347.514-4.027.292-4.555.278-7.277-.166-10.401-9.36-10.693-16.789a24.768 24.768 0 0 1 .056-3.083c0-.069.013-.139.013-.194 0 0-4.277-9.638-5.679-13.943-2.694-8.332.527-17.942 18.914-23.246 18.386-5.305 25.107 5.443 27.607 11.345.416.986 1.388 7.138.555 8.318 1.93.57 2.791 2.556 3.125 4.25z" fill="#F8AE9D"/><path d="M585.68 378.903c.916-.416 1.277-1.208 1.305-1.25.097-.236 0-.5-.236-.597a.459.459 0 0 0-.597.222c-.028.056-.5 1.028-1.833.959a.463.463 0 0 0-.486.43c-.014.25.18.472.43.486a3.044 3.044 0 0 0 1.417-.25zm22.732-11.901-.027.014-.139.028c-.056.305-.125.611-.195.93-.027.139-.069.278-.097.417 0 .014 0 .027-.014.041-.777.028-1.763-.069-2.736-.514a4.933 4.933 0 0 1-1.624-1.194.685.685 0 0 1 .055-.972.672.672 0 0 1 .972.056 3.78 3.78 0 0 0 1.889 1.111 4.57 4.57 0 0 0 1.264.138c.25-.027.472-.041.652-.055z" fill="#F8AE9D"/><path opacity=".5" d="M576.028 367.891c.125.75-1.402 1.666-3.555 2.18a25.16 25.16 0 0 1 .056-3.083c1.916-.125 3.374.222 3.499.903z" fill="#F8AE9D"/><path d="M580.875 369.404a.622.622 0 0 1-.32-.014l-2.846-1.013a.586.586 0 0 1-.375-.431.562.562 0 0 1 .18-.541c1.792-1.584 2.652-3.653 2.722-6.513a.597.597 0 0 1 .597-.57.596.596 0 0 1 .569.597c-.069 2.833-.847 4.972-2.43 6.694l1.972.694a.59.59 0 0 1 .361.736.567.567 0 0 1-.43.361z" fill="#F8AE9D"/><path opacity=".5" d="M587.665 365.753c.153.861 2.403 1.18 5.027.722 2.625-.459 4.639-1.528 4.486-2.375-.153-.861-2.403-1.18-5.027-.722-2.625.458-4.624 1.514-4.486 2.375z" fill="#F8AE9D"/><path d="M607.038 363.197a.695.695 0 0 0 .458-.653c0-4.902 5.249-8.04 5.305-8.082a.685.685 0 0 0 .25-.944.685.685 0 0 0-.945-.25c-.25.139-5.999 3.555-5.985 9.276 0 .389.306.695.694.695.07 0 .153-.028.223-.042z" fill="#F8AE9D"/><path d="M612.44 359.406a.546.546 0 0 0 .222-.139.684.684 0 0 0 .041-.972c-.069-.083-1.749-1.874-4.485-1.236a.691.691 0 0 0-.514.834.688.688 0 0 0 .833.513c1.958-.458 3.139.806 3.153.82.194.222.5.277.75.18z" fill="#F8AE9D"/><path d="M589.054 339.492s-.014 5.513 5.069 7.707c4.208 1.82 6.582 2.097 6.582 2.097s-3.346 15.776 2.583 16.831c5.944 1.056 2.222-14.803 10.638-16.845 0 0 2.944-1.222 1.61-6.512-1.333-5.291-8.554-19.109-27.162-15.276-13.957 2.875-24.899 12.748-23.525 22.649 1.375 9.902 3.125 7.583 3.125 7.583s-2.083-5.527 3.86-11.096c4.916-4.624 17.22-7.138 17.22-7.138z" fill="#4A537E"/><path d="M610.759 478.527a.612.612 0 0 0 .306-1.139c-.195-.111-4.68-2.638-9.374-3.013a.607.607 0 0 0-.097 1.208c4.416.347 8.818 2.819 8.874 2.847.083.083.18.097.291.097z" fill="#F8AE9D"/><path d="M603.302 475.819a.649.649 0 0 0 .319-.083c2.833-1.722 6.263-1.972 6.291-1.986a.628.628 0 0 0 .569-.653.617.617 0 0 0-.652-.569c-.153.014-3.764.278-6.833 2.152a.61.61 0 0 0-.208.833.548.548 0 0 0 .514.306z" fill="#F8AE9D"/><path d="m619.938 405.871-20.524 75.058 7.318-8.429c-2.708 1.444-5.846 2.541-9.318 3.333-3.472.778-7.263 1.236-11.207 1.43-3.958.209-8.082.167-12.304 0-4.221-.18-8.526-.486-12.901-.861h-.027c-6.458-.555-12.137 4.236-12.693 10.693-.528 6.152 3.847 11.61 9.846 12.582 4.513.722 9.11 1.402 13.817 1.944 4.708.541 9.541.958 14.54 1.069 4.999.111 10.179-.083 15.525-.861 5.347-.778 10.888-2.166 16.304-4.499a12.794 12.794 0 0 0 7.054-7.652l.264-.778 24.607-73.836c2.764-8.304-1.708-17.261-10.012-20.039-8.29-2.763-17.261 1.708-20.039 10.013-.083.264-.18.583-.25.833z" fill="#F8AE9D"/><path d="m646.575 508.08-1.675-4.043-3.406-6.646s-40.063 6.793-68.843-.292l-.688 3.243s16.558 10.429 42.565 9.726c26.022-.702 32.047-1.988 32.047-1.988z" fill="#4A537E"/><path d="M588.694 503.486h-94.205l-1.026-4.178c-.638-2.627 1.04-5.254 3.357-5.254h86.921c1.554 0 2.927 1.207 3.357 2.97l1.596 6.462z" fill="#E1E4E5"/><path d="m425.12 405.914 16.108 68.129.431 1.791 1.083 4.583a4.395 4.395 0 0 0 4.277 3.388h108.526c2.833 0 4.944-2.652 4.291-5.416l-17.622-74.503a4.395 4.395 0 0 0-4.277-3.388H429.411c-2.847.014-4.944 2.666-4.291 5.416z" fill="#acb6e5"/><path d="M477.848 445.075c.514 4.694 4.736 8.485 9.429 8.485 4.694 0 8.069-3.805 7.555-8.485-.514-4.694-4.736-8.485-9.429-8.485-4.694 0-8.069 3.791-7.555 8.485z" fill="#fff"/><path d="m533.617 400.512 18.762 83.307h3.166c2.833 0 4.93-2.653 4.277-5.416L542.2 403.9a4.397 4.397 0 0 0-4.278-3.388h-4.305zm-31.425 83.307 3.291 18.511H494.61l-3.292-18.511h10.874z" fill="#4A537E"/><path d="m521.758 499.136-2.221-3.124a4.252 4.252 0 0 0-3.458-1.778h-29.815a4.207 4.207 0 0 0-3.75 2.278l-1.5 2.874c-.708 1.347.278 2.944 1.792 2.944h37.3c1.639 0 2.597-1.86 1.652-3.194z" fill="#4A537E"/><path d="M400.841 507.395v4.758c0 2.743 1.989 4.957 4.463 4.957h310.187c2.461 0 4.464-2.214 4.464-4.957v-4.758c0-2.731-1.99-4.957-4.464-4.957H405.304c-2.461.013-4.463 2.226-4.463 4.957z" fill="#fff"/><path d="M136 369.058h364.622c10.818 0 19.591-8.773 19.591-19.59v-228.46c0-10.818-8.773-19.591-19.591-19.591H136c-10.818 0-19.591 8.773-19.591 19.591v228.46c0 10.817 8.773 19.59 19.591 19.59z" fill="#fff" stroke="#E1E4E5" stroke-width="2.819"/><path d="M116.409 121.008a6.227 6.227 0 0 0 6.226 6.226h391.351a6.227 6.227 0 0 0 6.227-6.226c0-10.818-8.773-19.591-19.591-19.591H136c-10.818 0-19.591 8.773-19.591 19.591z" fill="#fff" stroke="#E1E4E5" stroke-width="2.819"/><path d="M177.299 119.756a4.51 4.51 0 1 1 0-9.02 4.51 4.51 0 0 1 0 9.02zm-18.79 0a4.51 4.51 0 1 1 0-9.02 4.51 4.51 0 0 1 0 9.02zm-18.039 0a4.51 4.51 0 1 1 0-9.02 4.51 4.51 0 0 1 0 9.02z" fill="#E1E4E5"/><path d="M311.071 226.262c-2.423 3.801-8.751 8.229-13.24 8.169-15.292-.281-20.326-10.697-21.976-14.49.31-.075.832-.136 1.203-.181 2.816-.409 5.693-3.195 6.533-6.337 1.083-4.087 2.415-12.081 2.256-17.161l19.342 10.704a76.463 76.463 0 0 1-.265 4.694c-.099.984-.197 1.953-.311 2.891a99.528 99.528 0 0 1-.34 2.544c-.356 2.65.825 5.276 3.058 6.737l3.74 2.43z" fill="#F8AE9D"/><path d="M312.735 184.627c-1.044 2.74-.605 5.852.455 8.584.749 1.931 2.415.227 4.489.265 3.209.053 5.715-3.285 7.653-12.135 1.234-6.495 1.544-9.788 1.295-10.416-.886-2.248-3.808-3.452-6.215-3.664" fill="#4A537E"/><path d="M317.619 165.164c5.057 6.094 6.896 23.24 2.627 35.186-3.036 8.493-6.564 13.974-10.682 13.8-6.253-.265-18.372-5.405-22.316-9.697-7.109-7.729-5.042-22.885-3.574-32.423 1.333-8.668 5.39-19.925 16.284-17.782 7.161 1.4 13.126 5.443 17.661 10.916z" fill="#F8AE9D"/><path d="M289.009 171.895c1.121 1.441 3.098 1.759 4.727 2.044 2.19.382 3.274 1.18 4.41 3.322.72 1.367 1.44 2.865 2.728 3.606 1.046.605 1.007-.94 1.176-2.136a2.586 2.586 0 0 1 .063-.31c.255-.956 1.272-.792 1.572.15.273.847.856 1.564 1.598 1.962.122.066.25.123.379.098.175-.024.311-.187.425-.334.238-.307.475-.698.72-1.111.804-1.358 2.322-.87 3.219.427.561.806 1.228 1.637 2.145 1.824.295.065.666.016.803-.268.174-.351-.099-.701-.053-1.059.038-.334.182-.48.341-.765.625-1.108 2.051-1.148 2.93-.228.613.64 1.251 1.253 1.911 1.84.281.244.69.488.97.244.152-.13.19-.35.22-.562.159-1.034.31-2.068.47-3.102.091-.578.401-1.335.932-1.188.257.073.409.342.553.586.174.309 3.288 3.835 3.349 3.566.484-2.003 1.477-3.827 1.962-5.829 3.137-12.889-10.782-23.253-21.412-23.31-2.364-.016-4.523.022-6.819.568-2.447.586-5.031 1.517-7.251 2.827-3.114 1.832-5.47 5.162-4.864 9.135" fill="#4A537E"/><path d="M294.015 167.473c1.544 1.749 1.953 4.209 2.097 6.533.212 3.505-.076 7.146-1.696 10.257-.462.886-.802 5.269-1.514 5.027-.227-.076-.189-3.475-.787-5.307-.924-2.838-5.178-3.921-7.093-2.127-3.059 2.854-1.265 6.321-.25 8.479.605 1.302 1.567 2.763 1.733 4.14.205 1.764.265 8.191-.885 9.69-.962 1.257-1.984-4.814-2.854-6.01-6.443-8.91-12.62-31.598-1.62-36.519 1.673-.749 6.835-1.135 8.402-.181m45.195 186.368c.635.106 1.279.197 1.945.22 3.543.113 6.965-.666 10.424-1.257 3.043-.522 3.868-.81 3.808-4.481-.53-29.077-4.807-58.078-12.498-86.125-1.174-4.285-2.453-8.6-4.701-12.431-3.838-6.533-12.65-12.172-19.41-15.337-.954-.446-4.906 2.067-5.867 1.636-.84-.379-1.582-.969-2.43-1.34-2.483-1.083-4.148 1.181-6.223 2.127-1.075.484-2.271.795-3.452.742-.961-.038-1.832-.621-2.71-.167-3.951 2.044-13.762-13.126-13.762-13.126l-4.262 4.428-12.438 13.028-31.083 42.824s-5.639 35.095-9.515 58.101c-.674 3.967-3.339 12.543-3.868 15.549.113-.651 26.533-.825 27.956-.825h53.846c3.02 0 11.143 1.279 13.263-.939 2.611-2.725 5.632-15.231 5.791-18.736.522-11.787-.288-23.482-.447-35.337.068 4.822 1.454 9.182 2.044 13.906.765 6.079 1.855 12.15 2.839 18.199.787 4.86 1.544 9.735 2.15 14.625.272 2.203-.076 3.513 1.786 4.376 1.567.719 4.982.03 6.814.34z" fill="#4A537E"/><path d="M321.624 337.755c-1.438-.591-10.318-2.794-14.322-3.626-2.097-.432-11.605-2.9-13.808-2.9-2.203 0-5.201 3.149-5.201 3.149l.795 10.833c2.12-.212 4.958.886 6.48 1.098 1.522.212 6.692.242 9.871-1.355.182-.091.349-.189.515-.288 1.28 1.136 2.884 2.241 4.663 2.332 0 0 1.393-.144 1.257-.704-.061-.273-.984-1.681-1.908-3.059 1.363 1.386 3.589 3.634 6.155 3.763 0 0 1.393-.144 1.256-.704-.075-.333-1.408-2.324-2.483-3.906.016.015.038.022.046.037 1.128.992 3.808 4.414 6.98 4.573 0 0 1.392-.144 1.256-.704-.045-.205-.575-1.045-1.219-2.021.81.62 1.802 1.279 3.006 1.877 3.429 1.696 5.382.409 5.382 0 .008-.416-7.282-7.805-8.721-8.395z" fill="#F8AE9D"/><path d="M290.747 325.173s5.526 3.134 5.034 9.796c-.492 6.661-2.491 14.383-10.833 13.573-8.342-.802 5.799-23.369 5.799-23.369z" fill="#4A537E"/><path d="M286.294 347.884c-20 6.942-46.761.31-63.725-11.219-10.629-7.207-17.411-16.359-16.268-25.299 2.96-23.225 21.211-76.458 37.002-84.225 10.735-5.284 23.755-7.472 31.015-8.35 3.407-.416 5.534-.515 5.534-.515l-2.635 7.434-13.187 37.184c-.492 22.067-16.283 35.171-13.141 40.311 3.141 5.125 27.948 10.659 40.977 19.432 3.603 2.438 8.175 20.069-5.572 25.247z" fill="#4A537E"/><path d="M264.03 262.894c.015 4.186-.568 8.38-1.658 12.438-1.097 4.057-2.702 7.971-4.564 11.741a121.964 121.964 0 0 1-2.945 5.556c-1.007 1.832-2.044 3.649-2.892 5.512-.416.931-.78 1.892-.923 2.838-.038.462-.076.939.053 1.34.03.22.158.386.234.583.144.174.242.363.424.53 1.355 1.355 3.293 2.271 5.133 3.157 7.555 3.444 15.579 5.995 23.225 9.432 3.823 1.718 7.608 3.573 11.128 5.89l.651.439c.219.151.424.348.636.522.393.386.734.81 1.006 1.272.561.916.939 1.915 1.234 2.929.561 2.037.795 4.134.81 6.231-.136-2.082-.484-4.164-1.097-6.14-.651-1.96-1.658-3.868-3.543-4.784-3.535-2.195-7.328-3.944-11.174-5.556a367.298 367.298 0 0 0-11.665-4.558c-3.914-1.483-7.85-2.899-11.696-4.655-1.892-.939-3.838-1.825-5.45-3.452-.205-.197-.371-.47-.545-.704-.129-.288-.303-.56-.349-.863-.181-.606-.121-1.204-.068-1.772.182-1.12.591-2.134 1.03-3.103.901-1.938 1.953-3.748 2.975-5.572 1.022-1.824 2.051-3.634 3.028-5.473 3.898-7.328 6.609-15.39 7.002-23.778z" fill="#fff"/><path d="M315.862 229.131c-1.907 1.893-10.401 7.941-18.501 7.941-1.347 0-2.771-.121-4.277-.401-6.798-1.241-12.521-5.776-15.867-10.969a22.82 22.82 0 0 1-1.612-2.99 17.072 17.072 0 0 1-1.287-3.921c3.406-.417 6.661-1.272 7.191-1.878.576 3.967 5.473 11.128 12.892 12.476.931.174 1.809.25 2.65.265h.015a14.58 14.58 0 0 0 7.979-2.173c.015 0 3.55-2.786 3.565-2.801l7.252 4.451z" fill="#4A537E"/><path d="M321.193 315.611c-.021-.37.027-.736.013-1.107-.015-.401-.059-.793-.089-1.193l-.22-2.293a333.775 333.775 0 0 1-.401-4.686 192.645 192.645 0 0 1-.478-9.306c-.16-6.209-.07-12.431.347-18.626.115-1.735.26-3.465.421-5.195.086-.884.18-1.777.274-2.661.096-.87.237-1.735.248-2.615.007-.546-.814-.584-.937-.076-.363 1.506-.416 3.124-.572 4.665a230.937 230.937 0 0 0-.398 4.647 193.914 193.914 0 0 0-.449 9.397c-.134 6.24.088 12.483.62 18.708.152 1.75.326 3.492.537 5.232.111.888.221 1.769.354 2.656.06.391.113.782.187 1.165.094.449.261.865.355 1.314.051.104.201.065.188-.026z" fill="#fff"/><path d="M319.45 194.793c.053 0 .197-.083.076-.083-.061 0-.196.083-.076.083z" fill="#CC6144"/><path d="M309.364 352.064h93.182l28.033-69.706h-93.044l-28.171 69.706z" fill="#acb6e5"/><path d="M403.639 349.35H280.585v2.714h121.96l1.094-2.714z" fill="#acb6e5"/><path d="M382.007 317.035c1.195-4.197-1.215-7.6-5.375-7.6-4.159 0-8.494 3.403-9.689 7.6-1.195 4.198 1.215 7.601 5.374 7.601 4.16 0 8.494-3.403 9.69-7.601z" fill="#fff"/><path fill-rule="evenodd" clip-rule="evenodd" d="M554.11 262.971c0 21.128-17.124 38.252-38.252 38.252-21.128 0-38.252-17.124-38.252-38.252 0-21.128 17.124-38.252 38.252-38.252 21.128 0 38.252 17.124 38.252 38.252z" fill="#acb6e5" stroke="#acb6e5" stroke-width="8.398" stroke-linecap="round" stroke-linejoin="round"/><path fill-rule="evenodd" clip-rule="evenodd" d="m511.357 250.466 16.499 9.759c2.087 1.233 2.087 4.254 0 5.487l-16.499 9.758c-2.125 1.258-4.811-.276-4.811-2.745v-19.513c0-2.469 2.686-4.004 4.811-2.746z" fill="#fff"/><path fill-rule="evenodd" clip-rule="evenodd" d="M314.947 421.541h-2.929a1.28 1.28 0 0 1-1.279-1.279v-2.929a1.28 1.28 0 0 1 1.279-1.278h2.929c.702 0 1.278.576 1.278 1.278v2.929a1.275 1.275 0 0 1-1.278 1.279zm-10.156 0h-2.929a1.284 1.284 0 0 1-1.279-1.279v-2.929a1.28 1.28 0 0 1 1.279-1.278h2.929c.702 0 1.279.576 1.279 1.278v2.929c0 .703-.577 1.279-1.279 1.279zm-10.162 0H291.7a1.284 1.284 0 0 1-1.279-1.279v-2.929a1.28 1.28 0 0 1 1.279-1.278h2.929c.702 0 1.279.576 1.279 1.278v2.929a1.276 1.276 0 0 1-1.279 1.279zm-10.156 0h-2.929a1.284 1.284 0 0 1-1.279-1.279v-2.929a1.28 1.28 0 0 1 1.279-1.278h2.929c.708 0 1.285.576 1.285 1.278v2.929a1.293 1.293 0 0 1-1.285 1.279zm-10.156 0h-2.929a1.285 1.285 0 0 1-1.285-1.279v-2.929a1.28 1.28 0 0 1 1.285-1.278h2.929c.702 0 1.278.576 1.278 1.278v2.929c0 .703-.576 1.279-1.278 1.279zm30.102-11.074h-2.929a1.283 1.283 0 0 1-1.279-1.279v-2.935c0-.702.576-1.278 1.279-1.278h2.929c.708 0 1.278.576 1.278 1.278v2.929a1.277 1.277 0 0 1-1.278 1.285zm-10.156 0h-2.929a1.283 1.283 0 0 1-1.279-1.279v-2.935c0-.702.576-1.278 1.279-1.278h2.929c.702 0 1.278.576 1.278 1.278v2.929a1.277 1.277 0 0 1-1.278 1.285zm-10.156 0h-2.929a1.285 1.285 0 0 1-1.285-1.279v-2.935c0-.702.576-1.278 1.285-1.278h2.929c.702 0 1.278.576 1.278 1.278v2.929c0 .709-.576 1.285-1.278 1.285zm10.522 22.971H291.7a1.284 1.284 0 0 1-1.279-1.279v-2.929a1.28 1.28 0 0 1 1.279-1.278h2.929c.702 0 1.279.576 1.279 1.278v2.929a1.276 1.276 0 0 1-1.279 1.279zm-10.156 0h-2.929a1.284 1.284 0 0 1-1.279-1.279v-2.929a1.28 1.28 0 0 1 1.279-1.278h2.929c.708 0 1.285.576 1.285 1.278v2.929a1.293 1.293 0 0 1-1.285 1.279z" fill="#E1E4E5"/><path d="M726.275 195.283c-19.261 4.562-39.632-11.772-39.632-11.772s10.871-23.724 30.138-28.272c19.261-4.563 39.626 11.757 39.626 11.757s-10.871 23.724-30.132 28.287z" fill="url(#b)"/><path d="M748.564 406.788c11.394 7.847 28.8 2.362 28.8 2.362s-1.078-18.208-12.479-26.048c-11.394-7.847-28.792-2.369-28.792-2.369s1.078 18.207 12.471 26.055z" fill="url(#c)"/><path d="M386.809 479.79c8.791 8.947 25.23 7.061 25.23 7.061s2.175-16.393-6.624-25.335c-8.791-8.947-25.221-7.066-25.221-7.066s-2.176 16.393 6.615 25.34z" fill="url(#d)"/><circle cx="697.16" cy="331.091" r="7.86" transform="rotate(180 697.16 331.091)" fill="#acb6e5"/><circle r="13.809" transform="matrix(-1 0 0 1 177.017 194.513)" fill="#acb6e5"/><circle r="12.845" transform="matrix(-1 0 0 1 586.866 141.149)" fill="#acb6e5"/><circle r="6.812" transform="matrix(1 0 0 -1 236.043 398.162)" fill="#acb6e5"/><circle r="11.553" transform="matrix(-1 0 0 1 681.808 462.485)" fill="#E1E4E5"/><circle r="7.76" transform="matrix(-1 0 0 1 164.879 325.951)" fill="#E1E4E5"/><circle r="5.987" transform="matrix(-1 0 0 1 485.689 325.026)" fill="#E1E4E5"/><circle r="9.138" transform="matrix(-1 0 0 1 647.087 174.122)" fill="#E1E4E5"/><circle r="19.912" transform="matrix(1 0 0 -1 176.832 433.27)" fill="url(#e)"/><circle r="7.952" transform="matrix(-1 0 0 1 388.094 229.527)" fill="#E1E4E5"/><ellipse rx="9.956" ry="7.86" transform="matrix(-1 0 0 1 677.249 346.811)" fill="#fff"/><circle r="11.576" transform="scale(1 -1) rotate(-75 213.075 -402.051)" fill="#E1E4E5"/><circle r="6.505" transform="scale(-1 1) rotate(-75 133.572 442.451)" fill="#E1E4E5"/><path d="M739.005 291.791h.16c.947 13.426 10.932 13.633 10.932 13.633s-11.01.215-11.01 15.728c0-15.513-11.011-15.728-11.011-15.728s9.981-.207 10.929-13.633zM425.163 160.792h.275c1.632 23.495 18.829 23.857 18.829 23.857s-18.963.376-18.963 27.524c0-27.148-18.962-27.524-18.962-27.524s17.189-.362 18.821-23.857z" fill="#E1E4E5"/><defs><linearGradient id="a" x1="448.172" y1="694.672" x2="441.154" y2="-266.808" gradientUnits="userSpaceOnUse"><stop stop-color="#fff"/><stop offset="1" stop-color="#EEE"/></linearGradient><linearGradient id="b" x1="653.744" y1="206.628" x2="822.353" y2="126.971" gradientUnits="userSpaceOnUse"><stop stop-color="#fff"/><stop offset="1" stop-color="#EEE"/></linearGradient><linearGradient id="c" x1="792.946" y1="432.537" x2="703.261" y2="337.966" gradientUnits="userSpaceOnUse"><stop stop-color="#fff"/><stop offset="1" stop-color="#EEE"/></linearGradient><linearGradient id="d" x1="421.883" y1="510.352" x2="358.33" y2="410.727" gradientUnits="userSpaceOnUse"><stop stop-color="#fff"/><stop offset="1" stop-color="#EEE"/></linearGradient><linearGradient id="e" x1="20.761" y1="62.151" x2="19.533" y2="-43.322" gradientUnits="userSpaceOnUse"><stop stop-color="#fff"/><stop offset="1" stop-color="#EEE"/></linearGradient></defs></svg>