<svg width="501" height="329" viewBox="0 0 501 329" fill="none" xmlns="http://www.w3.org/2000/svg">
<path d="M488.736 329H12.4356C9.18425 328.996 6.0671 327.679 3.76803 325.337C1.46896 322.995 0.175733 319.82 0.172058 316.508V17.3332C0.174708 14.9068 1.12211 12.5805 2.8064 10.8647C4.49069 9.14893 6.77434 8.18377 9.15634 8.18097H491.86C494.283 8.18377 496.607 9.1656 498.32 10.911C500.034 12.6565 500.997 15.023 501 17.4914V316.508C500.996 319.82 499.703 322.995 497.404 325.337C495.105 327.679 491.988 328.996 488.736 329Z" fill="#F2F2F2"/>
<path d="M473.337 313.228H29.4367C22.9296 313.228 17.6358 308.178 17.6358 301.971V41.4459C17.6358 36.8427 21.5586 33.0974 26.3806 33.0974H476.248C481.15 33.0974 485.138 36.9044 485.138 41.5835V301.971C485.138 308.178 479.844 313.228 473.337 313.228Z" fill="white"/>
<path d="M500.829 18.89H0V12.53C0.00471488 9.20697 1.30322 6.02154 3.61065 3.67253C5.91807 1.32351 9.04597 0.0027554 12.3082 0H488.521C491.783 0.00272738 494.911 1.32347 497.219 3.67249C499.526 6.02151 500.825 9.20696 500.829 12.53V18.89Z" fill="#0078D4"/>
<path d="M22.3681 12.707C24.1264 12.707 25.5518 11.255 25.5518 9.46396C25.5518 7.67289 24.1264 6.22095 22.3681 6.22095C20.6099 6.22095 19.1845 7.67289 19.1845 9.46396C19.1845 11.255 20.6099 12.707 22.3681 12.707Z" fill="white"/>
<path d="M34.4525 12.707C36.2108 12.707 37.6362 11.255 37.6362 9.46396C37.6362 7.67289 36.2108 6.22095 34.4525 6.22095C32.6943 6.22095 31.2689 7.67289 31.2689 9.46396C31.2689 11.255 32.6943 12.707 34.4525 12.707Z" fill="white"/>
<path d="M46.5369 12.707C48.2952 12.707 49.7205 11.255 49.7205 9.46396C49.7205 7.67289 48.2952 6.22095 46.5369 6.22095C44.7786 6.22095 43.3533 7.67289 43.3533 9.46396C43.3533 11.255 44.7786 12.707 46.5369 12.707Z" fill="white"/>
<path d="M240.855 90.0614H154.038C152.744 90.0614 151.503 89.5377 150.587 88.6054C149.672 87.6731 149.158 86.4086 149.158 85.0902C149.158 83.7717 149.672 82.5073 150.587 81.575C151.503 80.6427 152.744 80.1189 154.038 80.1189H240.855C242.15 80.1189 243.391 80.6427 244.306 81.575C245.222 82.5073 245.736 83.7717 245.736 85.0902C245.736 86.4086 245.222 87.6731 244.306 88.6054C243.391 89.5377 242.15 90.0614 240.855 90.0614Z" fill="#CCCCCC"/>
<path d="M348.735 90.0614H261.918C260.623 90.0614 259.382 89.5377 258.467 88.6054C257.552 87.6731 257.037 86.4086 257.037 85.0902C257.037 83.7717 257.552 82.5073 258.467 81.575C259.382 80.6427 260.623 80.1189 261.918 80.1189H348.735C350.029 80.1189 351.27 80.6427 352.186 81.575C353.101 82.5073 353.615 83.7717 353.615 85.0902C353.615 86.4086 353.101 87.6731 352.186 88.6054C351.27 89.5377 350.029 90.0614 348.735 90.0614Z" fill="#CCCCCC"/>
<path d="M348.735 108.9H197.704C196.41 108.9 195.168 108.376 194.253 107.444C193.338 106.512 192.824 105.247 192.824 103.929C192.824 102.61 193.338 101.346 194.253 100.413C195.168 99.4812 196.41 98.9575 197.704 98.9575H348.735C350.029 98.9575 351.271 99.4812 352.186 100.413C353.101 101.346 353.615 102.61 353.615 103.929C353.615 105.247 353.101 106.512 352.186 107.444C351.271 108.376 350.029 108.9 348.735 108.9Z" fill="#CCCCCC"/>
<path d="M240.856 70.9613H154.038C152.745 70.9597 151.505 70.4352 150.591 69.5031C149.677 68.571 149.164 67.3074 149.164 65.99C149.164 64.6726 149.677 63.4091 150.591 62.477C151.505 61.5448 152.745 61.0204 154.038 61.0187H240.856C241.497 61.0179 242.132 61.1459 242.725 61.3954C243.318 61.6449 243.857 62.0109 244.31 62.4726C244.764 62.9343 245.124 63.4826 245.37 64.0862C245.615 64.6897 245.742 65.3367 245.742 65.99C245.742 66.6434 245.615 67.2903 245.37 67.8939C245.124 68.4974 244.764 69.0457 244.31 69.5074C243.857 69.9691 243.318 70.3352 242.725 70.5846C242.132 70.8341 241.497 70.9621 240.856 70.9613Z" fill="#CCCCCC"/>
<path d="M288.631 71.2229H263.973C262.678 71.2229 261.437 70.6991 260.522 69.7668C259.606 68.8345 259.092 67.5701 259.092 66.2516C259.092 64.9331 259.606 63.6687 260.522 62.7364C261.437 61.8041 262.678 61.2803 263.973 61.2803H288.631C289.925 61.2803 291.166 61.8041 292.082 62.7364C292.997 63.6687 293.511 64.9331 293.511 66.2516C293.511 67.5701 292.997 68.8345 292.082 69.7668C291.166 70.6991 289.925 71.2229 288.631 71.2229Z" fill="#CCCCCC"/>
<path d="M178.696 108.9H154.038C152.745 108.898 151.505 108.374 150.591 107.442C149.677 106.51 149.164 105.246 149.164 103.929C149.164 102.611 149.677 101.348 150.591 100.416C151.505 99.4836 152.745 98.9591 154.038 98.9575H178.696C179.338 98.9567 179.973 99.0847 180.566 99.3341C181.159 99.5836 181.697 99.9496 182.151 100.411C182.605 100.873 182.965 101.421 183.211 102.025C183.456 102.628 183.583 103.275 183.583 103.929C183.583 104.582 183.456 105.229 183.211 105.833C182.965 106.436 182.605 106.984 182.151 107.446C181.697 107.908 181.159 108.274 180.566 108.523C179.973 108.773 179.338 108.901 178.696 108.9Z" fill="#CCCCCC"/>
<path d="M240.855 266.468H154.038C152.744 266.468 151.503 265.944 150.587 265.012C149.672 264.08 149.158 262.815 149.158 261.497C149.158 260.178 149.672 258.914 150.587 257.981C151.503 257.049 152.744 256.525 154.038 256.525H240.855C241.496 256.525 242.131 256.654 242.723 256.904C243.315 257.154 243.853 257.52 244.306 257.981C244.759 258.443 245.119 258.991 245.364 259.594C245.609 260.197 245.736 260.844 245.736 261.497C245.736 262.149 245.609 262.796 245.364 263.399C245.119 264.002 244.759 264.55 244.306 265.012C243.853 265.474 243.315 265.84 242.723 266.09C242.131 266.339 241.496 266.468 240.855 266.468Z" fill="#CCCCCC"/>
<path d="M348.735 266.468H261.918C260.623 266.468 259.382 265.944 258.467 265.012C257.552 264.08 257.037 262.815 257.037 261.497C257.037 260.178 257.552 258.914 258.467 257.981C259.382 257.049 260.623 256.525 261.918 256.525H348.735C349.376 256.525 350.01 256.654 350.602 256.904C351.195 257.154 351.733 257.52 352.186 257.981C352.639 258.443 352.998 258.991 353.244 259.594C353.489 260.197 353.615 260.844 353.615 261.497C353.615 262.149 353.489 262.796 353.244 263.399C352.998 264.002 352.639 264.55 352.186 265.012C351.733 265.474 351.195 265.84 350.602 266.09C350.01 266.339 349.376 266.468 348.735 266.468Z" fill="#CCCCCC"/>
<path d="M348.735 285.307H197.704C196.41 285.307 195.168 284.783 194.253 283.85C193.338 282.918 192.824 281.654 192.824 280.335C192.824 279.017 193.338 277.752 194.253 276.82C195.168 275.888 196.41 275.364 197.704 275.364H348.735C349.376 275.363 350.012 275.491 350.604 275.741C351.197 275.99 351.736 276.356 352.19 276.818C352.644 277.28 353.004 277.828 353.249 278.431C353.495 279.035 353.621 279.682 353.621 280.335C353.621 280.989 353.495 281.636 353.249 282.239C353.004 282.843 352.644 283.391 352.19 283.853C351.736 284.314 351.197 284.68 350.604 284.93C350.012 285.179 349.376 285.307 348.735 285.307Z" fill="#CCCCCC"/>
<path d="M240.855 247.368H154.038C152.744 247.368 151.503 246.844 150.587 245.912C149.672 244.979 149.158 243.715 149.158 242.396C149.158 241.078 149.672 239.814 150.587 238.881C151.503 237.949 152.744 237.425 154.038 237.425H240.855C242.15 237.425 243.391 237.949 244.306 238.881C245.222 239.814 245.736 241.078 245.736 242.396C245.736 243.715 245.222 244.979 244.306 245.912C243.391 246.844 242.15 247.368 240.855 247.368Z" fill="#CCCCCC"/>
<path d="M288.631 247.629H263.973C262.678 247.629 261.437 247.106 260.522 246.173C259.606 245.241 259.092 243.977 259.092 242.658C259.092 241.34 259.606 240.075 260.522 239.143C261.437 238.211 262.678 237.687 263.973 237.687H288.631C289.925 237.687 291.166 238.211 292.082 239.143C292.997 240.075 293.511 241.34 293.511 242.658C293.511 243.977 292.997 245.241 292.082 246.173C291.166 247.106 289.925 247.629 288.631 247.629Z" fill="#CCCCCC"/>
<path d="M178.696 285.307H154.038C152.744 285.307 151.503 284.783 150.587 283.85C149.672 282.918 149.158 281.654 149.158 280.335C149.158 279.017 149.672 277.752 150.587 276.82C151.503 275.888 152.744 275.364 154.038 275.364H178.696C179.338 275.363 179.973 275.491 180.566 275.741C181.159 275.99 181.697 276.356 182.151 276.818C182.605 277.28 182.965 277.828 183.211 278.431C183.456 279.035 183.583 279.682 183.583 280.335C183.583 280.989 183.456 281.636 183.211 282.239C182.965 282.843 182.605 283.391 182.151 283.853C181.697 284.314 181.159 284.68 180.566 284.93C179.973 285.179 179.338 285.307 178.696 285.307Z" fill="#CCCCCC"/>
<path d="M218.182 213.097C216.339 213.101 214.57 212.364 213.259 211.045L180.624 178.218C179.983 177.573 179.474 176.806 179.127 175.959C178.78 175.113 178.601 174.205 178.601 173.288C178.601 172.37 178.78 171.462 179.127 170.616C179.474 169.77 179.983 169.002 180.624 168.358L213.127 135.662C214.481 134.307 216.305 133.55 218.204 133.556C220.102 133.562 221.922 134.331 223.267 135.695C224.614 137.07 225.371 138.933 225.371 140.876C225.371 142.819 224.614 144.682 223.267 146.057L199.115 170.661C198.362 171.429 197.94 172.47 197.94 173.555C197.94 174.641 198.362 175.682 199.115 176.45L223.136 200.92C224.117 201.917 224.786 203.188 225.057 204.573C225.328 205.958 225.189 207.393 224.658 208.697C224.128 210.001 223.229 211.115 222.076 211.899C220.923 212.682 219.568 213.099 218.182 213.097V213.097Z" fill="#0078D4"/>
<path d="M270.183 213.097C268.797 213.099 267.442 212.682 266.289 211.899C265.136 211.115 264.237 210.001 263.707 208.697C263.176 207.393 263.037 205.957 263.308 204.573C263.579 203.188 264.247 201.917 265.228 200.92L289.25 176.45C290.002 175.681 290.425 174.64 290.425 173.555C290.425 172.47 290.002 171.429 289.25 170.661L265.097 146.057C264.429 145.377 263.9 144.569 263.538 143.68C263.177 142.791 262.991 141.838 262.991 140.876C262.991 139.914 263.177 138.961 263.538 138.072C263.9 137.183 264.43 136.375 265.098 135.695C266.443 134.331 268.263 133.562 270.161 133.556C272.06 133.55 273.884 134.307 275.238 135.662L307.741 168.357C308.382 169.002 308.891 169.77 309.238 170.616C309.585 171.462 309.764 172.37 309.764 173.287C309.764 174.205 309.585 175.113 309.238 175.959C308.891 176.805 308.382 177.573 307.741 178.218L275.106 211.045C273.795 212.364 272.026 213.101 270.183 213.097Z" fill="#0078D4"/>
</svg>
