<svg width="300" height="100" viewBox="0 0 300 100" fill="none" xmlns="http://www.w3.org/2000/svg">
<path d="M101.239 91.9162C101.239 96.3808 97.6814 100 93.2929 100C88.9044 100 85.3468 96.3808 85.3468 91.9162C85.3468 87.4516 88.9044 83.8324 93.2929 83.8324C97.6814 83.8324 101.239 87.4516 101.239 91.9162Z" fill="black"/>
<path d="M80.1199 88.8227C89.9688 80.6906 96.3459 68.9996 97.9173 56.1946C99.4888 43.3896 96.1331 30.4623 88.5518 20.1164C80.9706 9.77041 69.7511 2.80701 57.2396 0.682467C44.7282 -1.44208 31.8938 1.43678 21.4207 8.71697C10.9475 15.9972 3.64668 27.1148 1.04503 39.7449C-1.55661 52.375 0.742419 65.5393 7.46132 76.4847C14.1802 87.4301 24.7986 95.3089 37.0959 98.4733C49.3931 101.638 64.1573 99.4012 75.5477 91.9162L65.4252 79.1198C58.0378 83.3936 49.3122 84.5961 41.0734 82.476C32.8345 80.3559 25.7204 75.0773 21.2189 67.7441C16.7174 60.411 15.1771 51.5912 16.9202 43.1294C18.6632 34.6675 23.5546 27.2189 30.5714 22.3414C37.5881 17.4638 46.1869 15.5351 54.5692 16.9584C62.9516 18.3818 70.4684 23.0472 75.5477 29.9787C80.6269 36.9103 82.8752 45.5712 81.8223 54.1503C81.4511 57.175 80.6797 60.1069 79.5472 62.8743L74.91 57.1871C76.4279 51.7195 76.2467 45.9082 74.3913 40.5494C72.5359 35.1906 69.0971 30.5467 64.546 27.2538C59.9949 23.961 54.5544 22.1804 48.9697 22.1561C43.3851 22.1317 37.9297 23.8648 33.3511 27.1179C28.7725 30.3709 25.2947 34.9848 23.3942 40.3272C21.4938 45.6696 21.2636 51.4791 22.7354 56.9597C24.2071 62.4404 27.3088 67.3239 31.6152 70.9412L41.653 58.5731C39.8542 57.0621 38.5586 55.0222 37.9438 52.7329C37.3291 50.4436 37.4252 48.0168 38.219 45.7853C39.0129 43.5537 40.4656 41.6264 42.3781 40.2676C44.2907 38.9088 46.5694 38.1848 48.9022 38.195C51.235 38.2052 53.5076 38.9489 55.4086 40.3244C57.3096 41.6998 58.7461 43.6397 59.5211 45.8781C60.2961 48.1165 60.3718 50.544 59.7378 52.8279C59.1037 55.1117 57.791 57.1403 55.9795 58.6355L65.9128 71.0907L69.8984 76.0103L80.1199 88.8227Z" fill="black"/>
<path d="M135.142 99.8801C150.799 99.8801 164.69 88.3831 164.69 70.7783C164.69 53.0538 150.799 41.5568 135.142 41.5568C119.485 41.5568 105.594 53.0538 105.594 70.7783C105.594 88.3831 119.485 99.8801 135.142 99.8801ZM135.142 85.2693C127.49 85.2693 121.251 79.4011 121.251 70.7783C121.251 62.0358 127.49 56.1676 135.142 56.1676C142.794 56.1676 149.033 62.0358 149.033 70.7783C149.033 79.4011 142.794 85.2693 135.142 85.2693Z" fill="black"/>
<path d="M218.155 13.1736V49.7005C214.27 44.0718 206.853 41.6766 200.497 41.6766C186.37 41.6766 173.539 52.8143 173.539 70.7783C173.539 88.7424 186.37 99.8801 200.497 99.8801C206.618 99.8801 214.27 97.3651 218.155 91.8561L217.684 99.8801L233.576 100V13.1736H218.155ZM203.44 85.2693C195.67 85.2693 189.196 78.922 189.196 70.7783C189.196 62.5149 195.67 56.4071 203.44 56.4071C210.621 56.4071 217.684 62.1556 217.684 70.7783C217.684 79.2813 210.974 85.2693 203.44 85.2693Z" fill="black"/>
<path d="M300 69.94C300 52.8143 287.169 41.5568 271.512 41.5568C255.737 41.5568 242.317 52.8143 242.317 70.8981C242.317 88.1436 254.678 99.8801 271.512 99.8801C281.165 99.8801 290.818 96.0477 295.998 88.9819L286.933 79.7603C283.637 83.7124 278.104 85.9879 272.571 85.9879C265.155 85.9879 259.975 82.3951 258.327 75.928H299.765C299.882 73.413 300 71.4969 300 69.94ZM258.327 65.7484C259.975 58.2035 265.508 55.2095 271.747 55.2095C278.693 55.2095 284.108 59.1616 284.579 65.7484H258.327Z" fill="black"/>
</svg>
