<svg width="100" height="300" viewBox="0 0 100 300" fill="none" xmlns="http://www.w3.org/2000/svg">
<path d="M8.08382 101.239C3.61925 101.239 0 97.6814 0 93.2929C0 88.9044 3.61925 85.3468 8.08382 85.3468C12.5484 85.3468 16.1676 88.9044 16.1676 93.2929C16.1676 97.6814 12.5484 101.239 8.08382 101.239Z" fill="#D3CCE3"/>
<path d="M11.1773 80.1199C19.3094 89.9688 31.0004 96.3459 43.8054 97.9174C56.6104 99.4888 69.5377 96.1331 79.8836 88.5518C90.2296 80.9706 97.193 69.7511 99.3175 57.2396C101.442 44.7282 98.5632 31.8938 91.283 21.4207C84.0028 10.9475 72.8852 3.64668 60.2551 1.04503C47.625 -1.55661 34.4607 0.742419 23.5153 7.46132C12.5699 14.1802 4.69114 24.7986 1.52667 37.0959C-1.63779 49.3931 0.5988 64.1573 8.08382 75.5477L20.8802 65.4252C16.6064 58.0378 15.4039 49.3122 17.524 41.0734C19.6441 32.8345 24.9227 25.7204 32.2559 21.2189C39.589 16.7174 48.4088 15.1771 56.8706 16.9202C65.3325 18.6632 72.7811 23.5546 77.6586 30.5714C82.5362 37.5881 84.4649 46.1869 83.0416 54.5692C81.6182 62.9516 76.9528 70.4684 70.0213 75.5477C63.0897 80.6269 54.4288 82.8752 45.8497 81.8223C42.825 81.4511 39.8931 80.6797 37.1257 79.5472L42.8129 74.91C48.2805 76.4279 54.0918 76.2467 59.4506 74.3913C64.8094 72.5359 69.4533 69.0971 72.7462 64.546C76.039 59.9949 77.8196 54.5544 77.8439 48.9697C77.8683 43.3851 76.1352 37.9297 72.8821 33.3511C69.6291 28.7725 65.0152 25.2947 59.6728 23.3942C54.3305 21.4937 48.5209 21.2636 43.0403 22.7354C37.5596 24.2071 32.6761 27.3088 29.0588 31.6152L41.4269 41.653C42.9379 39.8542 44.9778 38.5586 47.2671 37.9438C49.5564 37.3291 51.9832 37.4252 54.2147 38.219C56.4463 39.0129 58.3736 40.4656 59.7324 42.3781C61.0912 44.2907 61.8152 46.5694 61.805 48.9022C61.7948 51.235 61.0511 53.5076 59.6756 55.4086C58.3002 57.3096 56.3603 58.7461 54.1219 59.5211C51.8835 60.2961 49.456 60.3718 47.1721 59.7378C44.8883 59.1037 42.8597 57.791 41.3645 55.9795L28.9093 65.9128L23.9897 69.8984L11.1773 80.1199Z" fill="#D3CCE3"/>
<path d="M0.119942 135.142C0.119942 150.799 11.6169 164.69 29.2217 164.69C46.9462 164.69 58.4432 150.799 58.4432 135.142C58.4432 119.485 46.9462 105.594 29.2217 105.594C11.6169 105.594 0.119942 119.485 0.119942 135.142ZM14.7307 135.142C14.7307 127.49 20.5989 121.251 29.2217 121.251C37.9642 121.251 43.8324 127.49 43.8324 135.142C43.8324 142.794 37.9642 149.033 29.2217 149.033C20.5989 149.033 14.7307 142.794 14.7307 135.142Z" fill="#D3CCE3"/>
<path d="M86.8264 218.155H50.2995C55.9282 214.27 58.3234 206.853 58.3234 200.497C58.3234 186.37 47.1857 173.539 29.2217 173.539C11.2576 173.539 0.119942 186.37 0.119942 200.497C0.119942 206.618 2.63491 214.27 8.14388 218.155L0.119942 217.684L0 233.576H86.8264V218.155ZM14.7307 203.44C14.7307 195.67 21.078 189.196 29.2217 189.196C37.4851 189.196 43.5929 195.67 43.5929 203.44C43.5929 210.621 37.8444 217.684 29.2217 217.684C20.7187 217.684 14.7307 210.974 14.7307 203.44Z" fill="#D3CCE3"/>
<path d="M30.06 300C47.1857 300 58.4432 287.169 58.4432 271.512C58.4432 255.737 47.1857 242.317 29.1019 242.317C11.8564 242.317 0.119942 254.678 0.119942 271.512C0.119942 281.165 3.95226 290.818 11.0181 295.998L20.2397 286.933C16.2876 283.637 14.0121 278.104 14.0121 272.571C14.0121 265.155 17.6049 259.975 24.072 258.327V299.765C26.587 299.882 28.5031 300 30.06 300ZM34.2516 258.327C41.7965 259.975 44.7905 265.508 44.7905 271.747C44.7905 278.693 40.8384 284.108 34.2516 284.579V258.327Z" fill="#D3CCE3"/>
</svg>
