<svg width="1629" height="1599" viewBox="0 0 1629 1599" fill="none" xmlns="http://www.w3.org/2000/svg">
<path d="M1629 1469.74C1629 1541.13 1571.76 1599 1501.14 1599C1430.53 1599 1373.29 1541.13 1373.29 1469.74C1373.29 1398.35 1430.53 1340.48 1501.14 1340.48C1571.76 1340.48 1629 1398.35 1629 1469.74Z" fill="url(#paint0_linear_562_4)" fill-opacity="0.9"/>
<path d="M1289.18 1420.27C1447.66 1290.24 1550.27 1103.3 1575.55 898.552C1600.84 693.8 1546.84 487.093 1424.86 321.661C1302.87 156.229 1122.34 44.8841 921.022 10.9126C719.705 -23.0588 513.192 22.9742 344.672 139.384C176.153 255.794 58.6775 433.566 16.8153 635.521C-25.0469 837.476 11.946 1047.97 120.057 1222.99C228.169 1398.01 399.026 1523.99 596.896 1574.59C794.766 1625.19 1032.33 1589.43 1215.61 1469.74L1052.73 1265.13C933.865 1333.46 793.465 1352.69 660.897 1318.79C528.328 1284.89 413.858 1200.49 341.426 1083.23C268.994 965.972 244.21 824.943 272.256 689.639C300.303 554.334 379.009 435.231 491.913 357.239C604.817 279.246 743.176 248.405 878.054 271.166C1012.93 293.926 1133.88 368.524 1215.61 479.36C1297.34 590.195 1333.52 728.684 1316.57 865.863C1310.6 914.228 1298.19 961.11 1279.97 1005.36L1205.35 914.422C1229.77 826.995 1226.86 734.071 1197 648.385C1167.15 562.698 1111.82 488.441 1038.59 435.789C965.357 383.136 877.815 354.665 787.955 354.276C698.095 353.887 610.314 381.599 536.641 433.615C462.968 485.631 407.008 559.407 376.428 644.831C345.848 730.256 342.145 823.151 365.827 910.786C389.509 998.422 439.416 1076.51 508.71 1134.35L670.224 936.584C641.279 912.423 620.433 879.805 610.541 843.199C600.649 806.592 602.195 767.789 614.969 732.106C627.742 696.423 651.117 665.607 681.891 643.879C712.665 622.151 749.332 610.575 786.868 610.738C824.404 610.901 860.971 622.793 891.56 644.787C922.149 666.78 945.262 697.798 957.733 733.591C970.203 769.383 971.421 808.198 961.219 844.717C951.017 881.237 929.895 913.673 900.746 937.582L1060.58 1136.74L1124.71 1215.4L1289.18 1420.27Z" fill="url(#paint1_linear_562_4)" fill-opacity="0.9"/>
<defs>
<linearGradient id="paint0_linear_562_4" x1="814.5" y1="0" x2="814.5" y2="1599" gradientUnits="userSpaceOnUse">
<stop offset="0.197917" stop-color="#ACB6E5"/>
<stop offset="1" stop-color="#ACB6E5" stop-opacity="0"/>
</linearGradient>
<linearGradient id="paint1_linear_562_4" x1="814.5" y1="0" x2="814.5" y2="1599" gradientUnits="userSpaceOnUse">
<stop offset="0.197917" stop-color="#ACB6E5"/>
<stop offset="1" stop-color="#ACB6E5" stop-opacity="0"/>
</linearGradient>
</defs>
</svg>
