<svg width="940" height="872" viewBox="0 0 940 872" fill="none" xmlns="http://www.w3.org/2000/svg">
<path d="M940 801.509C940 840.44 906.968 872 866.221 872C825.474 872 792.442 840.44 792.442 801.509C792.442 762.578 825.474 731.018 866.221 731.018C906.968 731.018 940 762.578 940 801.509Z" fill="url(#paint0_linear_565_5)" fill-opacity="0.4"/>
<path d="M743.91 774.534C835.357 703.622 894.568 601.677 909.159 490.017C923.75 378.357 892.592 265.632 822.201 175.415C751.809 85.198 647.636 24.4771 531.468 5.95111C415.3 -12.5749 296.133 12.5288 198.89 76.012C101.647 139.495 33.8593 236.441 9.7031 346.576C-14.4531 456.71 6.89334 571.503 69.2781 666.946C131.663 762.39 230.254 831.093 344.434 858.687C458.613 886.282 595.698 866.779 701.457 801.509L607.47 689.925C538.879 727.192 457.862 737.678 381.365 719.191C304.867 700.703 238.813 654.674 197.017 590.729C155.221 526.784 140.919 449.875 157.103 376.088C173.287 302.301 218.704 237.349 283.854 194.817C349.004 152.285 428.843 135.466 506.673 147.878C584.503 160.29 654.297 200.971 701.457 261.414C748.618 321.857 769.493 397.381 759.717 472.19C756.271 498.566 749.108 524.133 738.593 548.264L695.537 498.672C709.63 450.994 707.948 400.319 690.721 353.591C673.493 306.862 641.564 266.367 599.307 237.653C557.051 208.94 506.535 193.413 454.682 193.201C402.829 192.989 352.176 208.101 309.664 236.468C267.152 264.835 234.86 305.067 217.214 351.653C199.569 398.238 197.432 448.898 211.097 496.689C224.762 544.48 253.561 587.065 293.546 618.608L386.747 510.757C370.045 497.582 358.015 479.794 352.307 459.831C346.599 439.868 347.491 418.707 354.862 399.248C362.233 379.788 375.722 362.983 393.479 351.134C411.237 339.284 432.396 332.972 454.055 333.06C475.715 333.149 496.816 339.635 514.467 351.629C532.118 363.623 545.455 380.538 552.651 400.057C559.847 419.576 560.55 440.743 554.663 460.659C548.776 480.574 536.588 498.263 519.768 511.302L611.998 619.911L649.004 662.81L743.91 774.534Z" fill="url(#paint1_linear_565_5)" fill-opacity="0.4"/>
<defs>
<linearGradient id="paint0_linear_565_5" x1="470" y1="0" x2="470" y2="872" gradientUnits="userSpaceOnUse">
<stop offset="0.599866" stop-color="#ACB6E5"/>
<stop offset="1" stop-color="#ACB6E5" stop-opacity="0"/>
</linearGradient>
<linearGradient id="paint1_linear_565_5" x1="470" y1="0" x2="470" y2="872" gradientUnits="userSpaceOnUse">
<stop offset="0.599866" stop-color="#ACB6E5"/>
<stop offset="1" stop-color="#ACB6E5" stop-opacity="0"/>
</linearGradient>
</defs>
</svg>
