<svg width="267" height="212" viewBox="0 0 267 212" fill="none" xmlns="http://www.w3.org/2000/svg">
<g clip-path="url(#clip0_320:153)">
<path d="M64.3782 140.895C64.3823 140.159 64.2312 139.43 63.9348 138.756C63.6384 138.083 63.2034 137.48 62.6583 136.986C62.1133 136.493 61.4704 136.121 60.7718 135.894C60.0732 135.667 59.3347 135.591 58.6047 135.67C58.3737 135.696 58.1448 135.739 57.9197 135.797L40.2797 120.637L41.3339 114.94L32.6394 112.115L30.018 121.245C29.7079 122.34 29.7584 123.507 30.162 124.572C30.5657 125.636 31.3009 126.542 32.2586 127.154L53.9588 140.915C53.959 141.086 53.9679 141.257 53.9855 141.428C54.0647 142.159 54.2974 142.866 54.6681 143.502C55.0389 144.138 55.5393 144.687 56.1368 145.115C56.7343 145.544 57.4152 145.84 58.1351 145.986C58.8549 146.132 59.5973 146.124 60.3137 145.962C60.5219 145.916 60.7271 145.856 60.9278 145.784C61.9322 145.42 62.8012 144.756 63.4181 143.882C64.0349 143.008 64.37 141.966 64.3782 140.895Z" fill="#9F616A"/>
<path d="M20.8014 158.32H43.4341C43.4341 158.98 66.7599 159.516 66.7599 159.516C67.1261 159.796 67.4597 160.116 67.7546 160.472C68.6406 161.544 69.1248 162.899 69.1219 164.297V165.254C69.1213 166.839 68.5003 168.359 67.3953 169.48C66.2903 170.6 64.7918 171.23 63.2292 171.231H20.8014C19.239 171.229 17.7409 170.599 16.6361 169.479C15.5313 168.358 14.91 166.839 14.9087 165.254V164.297C14.9109 162.713 15.5324 161.194 16.637 160.074C17.7417 158.953 19.2392 158.323 20.8014 158.32Z" fill="#3F3D56"/>
<path d="M45.4037 171.231H39.3047V210.641H45.4037V171.231Z" fill="#3F3D56"/>
<path d="M63.023 211.549C63.023 212.336 53.6176 211.854 42.0154 211.854C30.4132 211.854 21.0078 212.336 21.0078 211.549C21.0078 210.763 30.4132 204.526 42.0154 204.526C53.6176 204.526 63.023 210.763 63.023 211.549Z" fill="#3F3D56"/>
<path d="M56.925 205.885L62.8937 205.884L65.7335 190.936L56.9238 190.936L56.925 205.885Z" fill="#9F616A"/>
<path d="M55.5687 211.32L74.543 211.32V211.085C74.543 210.134 74.352 209.193 73.9809 208.315C73.6097 207.436 73.0658 206.638 72.38 205.966C71.6942 205.294 70.8801 204.761 69.9841 204.397C69.0881 204.033 68.1277 203.846 67.1579 203.846H67.1572L55.5684 203.847L55.5687 211.32Z" fill="#2F2E41"/>
<path d="M65.7079 196.463L77.1311 170.407C78.0848 168.211 78.1903 165.73 77.4264 163.459C76.6626 161.187 75.0856 159.291 73.0094 158.149L48.2321 144.635L36.9256 143.657L26.4962 142.692L26.421 142.822C26.3248 142.987 24.0824 146.927 25.5982 151.247C26.7479 154.524 29.7386 157.083 34.4872 158.854C45.5708 162.988 58.3745 166.521 63.3648 167.848C63.5854 167.905 63.7915 168.009 63.9696 168.154C64.1477 168.298 64.2938 168.479 64.3983 168.684C64.503 168.888 64.5653 169.111 64.581 169.34C64.5968 169.569 64.5658 169.799 64.49 170.015L53.8775 194.267C53.7666 194.575 53.7267 194.904 53.7608 195.23C53.7949 195.556 53.9021 195.869 54.0742 196.146C54.2462 196.423 54.4785 196.656 54.753 196.827C55.0276 196.999 55.3372 197.103 55.6579 197.134L63.5877 197.721C63.655 197.728 63.722 197.731 63.7888 197.731C64.1949 197.731 64.5923 197.611 64.9328 197.386C65.2734 197.161 65.5426 196.84 65.7079 196.463Z" fill="#CBCBCB"/>
<path d="M53.5365 205.885L59.046 205.884L61.6676 190.936L53.5356 190.936L53.5365 205.885Z" fill="#9F616A"/>
<path d="M52.1805 211.32L70.4771 211.32V211.085C70.4772 210.134 70.293 209.193 69.9351 208.315C69.5772 207.436 69.0527 206.638 68.3914 205.966C67.7301 205.294 66.9451 204.761 66.0811 204.397C65.2171 204.033 64.291 203.846 63.3558 203.846H63.3551L52.1802 203.847L52.1805 211.32Z" fill="#2F2E41"/>
<path d="M61.5682 197.835L73.0601 172.04C74.0195 169.866 74.1256 167.41 73.3572 165.161C72.5888 162.912 71.0023 161.035 68.9136 159.905L43.9872 146.526L32.6127 145.557L24.3948 144.844L24.3959 144.731C24.2991 144.894 22.0432 148.795 23.5681 153.071C24.7248 156.315 25.3825 158.849 30.1596 160.602C41.3099 164.695 54.1907 168.192 59.211 169.506C59.4329 169.563 59.6402 169.666 59.8194 169.809C59.9986 169.951 60.1456 170.131 60.2507 170.334C60.3561 170.536 60.4187 170.757 60.4345 170.983C60.4504 171.21 60.4193 171.437 60.343 171.651L49.6666 195.661C49.5551 195.966 49.5149 196.292 49.5493 196.614C49.5836 196.937 49.6914 197.247 49.8645 197.521C50.0375 197.795 50.2712 198.026 50.5474 198.195C50.8236 198.365 51.1351 198.469 51.4577 198.499L59.4352 199.08C59.5029 199.087 59.5704 199.09 59.6375 199.09C60.0461 199.09 60.4458 198.971 60.7885 198.748C61.1311 198.525 61.4019 198.208 61.5682 197.835Z" fill="#CBCBCB"/>
<path d="M39.6146 144.958C40.1645 144.562 48.0616 148.776 49.4695 145.435C42.8995 128.733 47.4269 121.521 43.4025 111.943C42.6937 110.291 41.6258 108.824 40.2793 107.652C38.9327 106.48 37.3424 105.634 35.628 105.177L25.1867 104.641L25.1326 104.668C22.7764 105.841 20.8549 107.755 19.653 110.127C18.451 112.498 18.0326 115.2 18.4597 117.833C18.4969 128.256 24.6301 136.206 22.4855 143.766C22.3956 144.083 22.3694 144.414 22.4084 144.74C22.4474 145.067 22.5509 145.382 22.7126 145.667C22.8694 145.943 23.08 146.183 23.3315 146.372C23.583 146.562 23.87 146.697 24.1748 146.769L37.9615 144.899C38.2836 144.977 38.6183 144.984 38.9433 144.92C39.2683 144.856 39.5762 144.723 39.8464 144.528L39.6146 144.958Z" fill="#2F2E41"/>
<path d="M28.8005 101.244C35.3502 101.244 40.6597 95.9198 40.6597 89.3526C40.6597 82.7853 35.3502 77.4615 28.8005 77.4615C22.2509 77.4615 16.9414 82.7853 16.9414 89.3526C16.9414 95.9198 22.2509 101.244 28.8005 101.244Z" fill="#9F616A"/>
<path d="M25.3821 99.8739C26.0004 100.143 27.2667 95.2359 26.6995 94.2543C25.8559 92.7946 25.9058 92.8051 25.3458 91.8394C24.7858 90.8736 24.6605 89.5518 25.3857 88.702C26.1108 87.8523 27.789 87.965 28.1199 89.0304C27.907 87.0068 29.9167 85.3801 31.9073 84.923C33.8979 84.4658 35.9977 84.7496 37.9993 84.3428C40.3222 83.8707 42.7391 81.9313 41.8123 79.387C41.6533 78.9634 41.4152 78.5736 41.1105 78.2383C40.0397 77.039 38.5418 76.527 37.0772 76.0319C34.0304 75.0019 30.9002 73.9589 27.6848 74.0726C22.4014 74.2594 17.4074 77.8971 15.6274 82.8553C15.4058 83.4739 15.2341 84.1092 15.114 84.755C14.0103 90.6659 17.4565 96.4962 23.0537 98.747L25.3821 99.8739Z" fill="#2F2E41"/>
<path d="M86.0425 118.641L87.4117 126.626C87.427 126.716 87.417 126.807 87.3829 126.891L76.6408 153.255C76.5983 153.36 76.5206 153.446 76.4207 153.501C76.3208 153.556 76.2048 153.576 76.0919 153.557C75.979 153.538 75.8762 153.482 75.8006 153.397C75.7249 153.313 75.681 153.206 75.6762 153.093L75.2211 142.499C75.2181 142.428 75.2305 142.358 75.2575 142.293L85.0854 118.537C85.1264 118.438 85.1992 118.355 85.2927 118.3C85.3863 118.245 85.4955 118.222 85.6037 118.234C85.712 118.245 85.8134 118.291 85.8926 118.365C85.9718 118.438 86.0244 118.535 86.0425 118.641Z" fill="#3F3D56"/>
<path d="M85.4312 119.59L86.7411 126.375L77.1444 150.167L75.8984 142.513L85.4312 119.59Z" fill="#0078D4"/>
<path d="M44.7334 153.288C44.9617 154.181 74.9394 155.147 75.2502 154.877C75.5291 154.531 75.7708 154.156 75.9713 153.759C76.2854 153.197 76.5763 152.634 76.5763 152.634L76.0836 143.136L46.5534 139.974C46.5534 139.974 45.247 147.9 44.8369 151.542C44.7442 152.119 44.7095 152.704 44.7334 153.288Z" fill="#3F3D56"/>
<path opacity="0.1" d="M71.8301 143.625L71.8327 152.205L58.957 151.23L59.5268 142.692L71.8301 143.625Z" fill="black"/>
<path opacity="0.1" d="M55.4869 145.278L55.5685 145.268L54.9315 148.808L47.4365 148.282L47.6924 144.731L55.4869 145.278Z" fill="black"/>
<path opacity="0.1" d="M44.7333 153.28C44.9611 154.177 74.8691 155.148 75.1793 154.877C75.4575 154.529 75.6987 154.153 75.8987 153.754L44.8366 151.526C44.7442 152.105 44.7096 152.693 44.7333 153.28Z" fill="black"/>
<path d="M32.8524 138.878L57.8587 143.56C57.9212 143.717 57.9918 143.871 58.0701 144.02C58.4099 144.662 58.8804 145.224 59.451 145.671C60.0216 146.118 60.6795 146.439 61.3821 146.615C62.0874 146.792 62.8225 146.817 63.5382 146.687C64.2539 146.557 64.9336 146.275 65.5319 145.86C66.6156 145.114 67.3737 143.98 67.6508 142.691C67.9278 141.402 67.7028 140.055 67.022 138.927C66.3411 137.799 65.2559 136.975 63.9888 136.624C62.7217 136.273 61.3688 136.421 60.2072 137.039C60.0049 137.148 59.8103 137.271 59.625 137.407L37.9052 129.963L36.7935 124.346L27.7842 124.944L28.7177 134.361C28.831 135.46 29.2944 136.493 30.0392 137.306C30.784 138.12 31.7705 138.671 32.8524 138.878Z" fill="#9F616A"/>
<path d="M27.2348 129.103L40.6597 124.694L37.5281 115.709C37.1123 114.516 36.2878 113.509 35.2003 112.864C34.1128 112.22 32.8324 111.981 31.5852 112.188C30.3237 112.398 29.1789 113.052 28.3576 114.032C27.5363 115.011 27.0926 116.252 27.1068 117.53L27.2348 129.103Z" fill="#2F2E41"/>
<path d="M110.847 212H0.290175C0.213216 212 0.139408 211.964 0.0849901 211.9C0.0305717 211.837 0 211.75 0 211.66C0 211.57 0.0305717 211.484 0.0849901 211.42C0.139408 211.356 0.213216 211.32 0.290175 211.32H110.847C110.924 211.32 110.998 211.356 111.052 211.42C111.106 211.484 111.137 211.57 111.137 211.66C111.137 211.75 111.106 211.837 111.052 211.9C110.998 211.964 110.924 212 110.847 212Z" fill="#CBCBCB"/>
<path d="M183.111 201.065C189.422 204.347 192.227 211.494 192.227 211.494C192.227 211.494 184.801 213.319 178.49 210.037C172.179 206.754 169.374 199.607 169.374 199.607C169.374 199.607 176.8 197.782 183.111 201.065Z" fill="#F1F1F1"/>
<path d="M181.092 203.429C184.858 209.485 192.173 211.718 192.173 211.718C192.173 211.718 193.383 204.131 189.617 198.075C185.851 192.019 178.536 189.786 178.536 189.786C178.536 189.786 177.326 197.373 181.092 203.429Z" fill="#F1F1F1"/>
<path d="M203.76 211.862H164.39C164.298 211.862 164.21 211.826 164.146 211.761C164.081 211.696 164.044 211.607 164.044 211.515C164.044 211.423 164.081 211.335 164.146 211.27C164.21 211.205 164.298 211.168 164.39 211.168H203.76C203.852 211.168 203.94 211.205 204.005 211.27C204.069 211.335 204.106 211.423 204.106 211.515C204.106 211.607 204.069 211.696 204.005 211.761C203.94 211.826 203.852 211.862 203.76 211.862Z" fill="#CBCBCB"/>
<path d="M267 0H95.5508V113.474H267V0Z" fill="#E6E6E6"/>
<path d="M261.579 14.2692H100.294V106.679H261.579V14.2692Z" fill="white"/>
<path d="M271.45 0H95.3184V7.63584H271.45V0Z" fill="#0078D4"/>
<path d="M100.844 5.2063C101.607 5.2063 102.226 4.58472 102.226 3.81796C102.226 3.05121 101.607 2.42963 100.844 2.42963C100.081 2.42963 99.4629 3.05121 99.4629 3.81796C99.4629 4.58472 100.081 5.2063 100.844 5.2063Z" fill="white"/>
<path d="M106.197 5.2063C107.055 5.2063 107.751 4.58472 107.751 3.81796C107.751 3.05121 107.055 2.42963 106.197 2.42963C105.339 2.42963 104.643 3.05121 104.643 3.81796C104.643 4.58472 105.339 5.2063 106.197 5.2063Z" fill="white"/>
<path d="M111.55 5.2063C112.313 5.2063 112.932 4.58472 112.932 3.81796C112.932 3.05121 112.313 2.42963 111.55 2.42963C110.787 2.42963 110.169 3.05121 110.169 3.81796C110.169 4.58472 110.787 5.2063 111.55 5.2063Z" fill="white"/>
<path d="M219.575 22.9075H165.498C165.382 22.8909 165.276 22.8289 165.2 22.7331C165.123 22.6373 165.081 22.5143 165.081 22.3869C165.081 22.2595 165.123 22.1365 165.2 22.0407C165.276 21.9449 165.382 21.8829 165.498 21.8663H219.575C219.69 21.8829 219.796 21.9449 219.873 22.0407C219.95 22.1365 219.992 22.2595 219.992 22.3869C219.992 22.5143 219.95 22.6373 219.873 22.7331C219.796 22.8289 219.69 22.8909 219.575 22.9075Z" fill="#CCCCCC"/>
<path d="M182.276 28.4592H147.885C147.769 28.4426 147.663 28.3807 147.586 28.2851C147.51 28.1895 147.467 28.0666 147.467 27.9394C147.467 27.8122 147.51 27.6894 147.586 27.5938C147.663 27.4981 147.769 27.4362 147.885 27.4196H182.276C182.392 27.4362 182.498 27.4981 182.575 27.5938C182.651 27.6894 182.694 27.8122 182.694 27.9394C182.694 28.0666 182.651 28.1895 182.575 28.2851C182.498 28.3807 182.392 28.4426 182.276 28.4592Z" fill="#CCCCCC"/>
<path d="M219.575 28.4609H185.183C185.068 28.4442 184.962 28.3822 184.885 28.2864C184.808 28.1907 184.766 28.0676 184.766 27.9402C184.766 27.8129 184.808 27.6898 184.885 27.594C184.962 27.4982 185.068 27.4363 185.183 27.4196H219.575C219.69 27.4363 219.796 27.4982 219.873 27.594C219.95 27.6898 219.992 27.8129 219.992 27.9402C219.992 28.0676 219.95 28.1907 219.873 28.2864C219.796 28.3822 219.69 28.4442 219.575 28.4609H219.575Z" fill="#CCCCCC"/>
<path d="M182.276 33.6671H147.885C147.769 33.6505 147.663 33.5885 147.586 33.4927C147.51 33.3969 147.467 33.2739 147.467 33.1465C147.467 33.0191 147.51 32.896 147.586 32.8003C147.663 32.7045 147.769 32.6425 147.885 32.6259H182.276C182.392 32.6425 182.498 32.7045 182.575 32.8003C182.651 32.896 182.694 33.0191 182.694 33.1465C182.694 33.2739 182.651 33.3969 182.575 33.4927C182.498 33.5885 182.392 33.6505 182.276 33.6671Z" fill="#CCCCCC"/>
<path d="M182.276 38.8734H147.885C147.769 38.8568 147.663 38.7948 147.586 38.699C147.51 38.6032 147.467 38.4802 147.467 38.3528C147.467 38.2254 147.51 38.1024 147.586 38.0066C147.663 37.9108 147.769 37.8488 147.885 37.8322H182.276C182.392 37.8488 182.498 37.9108 182.575 38.0066C182.651 38.1024 182.694 38.2254 182.694 38.3528C182.694 38.4802 182.651 38.6032 182.575 38.699C182.498 38.7948 182.392 38.8568 182.276 38.8734Z" fill="#CCCCCC"/>
<path d="M197.816 33.6671H187.947C187.831 33.6505 187.725 33.5885 187.648 33.4927C187.571 33.3969 187.528 33.2739 187.528 33.1465C187.528 33.0191 187.571 32.896 187.648 32.8003C187.725 32.7045 187.831 32.6425 187.947 32.6259H197.816C197.932 32.6425 198.038 32.7045 198.115 32.8003C198.192 32.896 198.234 33.0191 198.234 33.1465C198.234 33.2739 198.192 33.3969 198.115 33.4927C198.038 33.5885 197.932 33.6505 197.816 33.6671Z" fill="#CCCCCC"/>
<path d="M197.816 38.8718H187.947C187.831 38.8551 187.725 38.7933 187.648 38.6976C187.571 38.602 187.528 38.4791 187.528 38.352C187.528 38.2248 187.571 38.1019 187.648 38.0063C187.725 37.9107 187.831 37.8488 187.947 37.8322H197.816C197.932 37.8488 198.038 37.9107 198.115 38.0063C198.192 38.1019 198.234 38.2248 198.234 38.352C198.234 38.4791 198.192 38.602 198.115 38.6976C198.038 38.7933 197.932 38.8551 197.816 38.8718Z" fill="#CCCCCC"/>
<path d="M214.393 38.8718H204.524C204.408 38.8551 204.302 38.7933 204.225 38.6976C204.148 38.602 204.105 38.4791 204.105 38.352C204.105 38.2248 204.148 38.1019 204.225 38.0063C204.302 37.9107 204.408 37.8488 204.524 37.8322H214.393C214.509 37.8488 214.615 37.9107 214.692 38.0063C214.769 38.1019 214.812 38.2248 214.812 38.352C214.812 38.4791 214.769 38.602 214.692 38.6976C214.615 38.7933 214.509 38.8551 214.393 38.8718Z" fill="#CCCCCC"/>
<path d="M157.41 22.9075H147.54C147.425 22.8909 147.318 22.8289 147.241 22.7331C147.164 22.6373 147.122 22.5143 147.122 22.3869C147.122 22.2595 147.164 22.1365 147.241 22.0407C147.318 21.9449 147.425 21.8829 147.54 21.8663H157.41C157.526 21.8829 157.632 21.9449 157.709 22.0407C157.786 22.1365 157.828 22.2595 157.828 22.3869C157.828 22.5143 157.786 22.6373 157.709 22.7331C157.632 22.8289 157.526 22.8909 157.41 22.9075Z" fill="#CCCCCC"/>
<path d="M181.931 83.3001H147.539C147.424 83.2834 147.318 83.2215 147.241 83.1257C147.164 83.0299 147.122 82.9069 147.122 82.7795C147.122 82.6521 147.164 82.529 147.241 82.4333C147.318 82.3375 147.424 82.2755 147.539 82.2589H181.931C182.047 82.2755 182.153 82.3375 182.229 82.4333C182.306 82.529 182.348 82.6521 182.348 82.7795C182.348 82.9069 182.306 83.0299 182.229 83.1257C182.153 83.2215 182.047 83.2834 181.931 83.3001H181.931Z" fill="#CCCCCC"/>
<path d="M181.931 94.0581H147.539C147.424 94.0414 147.318 93.9795 147.241 93.8839C147.164 93.7883 147.122 93.6654 147.122 93.5382C147.122 93.411 147.164 93.2882 147.241 93.1926C147.318 93.0969 147.424 93.0351 147.539 93.0184H181.931C182.047 93.0351 182.153 93.0969 182.229 93.1926C182.306 93.2882 182.348 93.411 182.348 93.5382C182.348 93.6654 182.306 93.7883 182.229 93.8839C182.153 93.9795 182.047 94.0414 181.931 94.0581H181.931Z" fill="#CCCCCC"/>
<path d="M181.931 99.2643H147.539C147.424 99.2477 147.318 99.1858 147.241 99.0902C147.164 98.9946 147.122 98.8717 147.122 98.7445C147.122 98.6174 147.164 98.4945 147.241 98.3989C147.318 98.3032 147.424 98.2413 147.539 98.2247H181.931C182.047 98.2413 182.153 98.3032 182.229 98.3989C182.306 98.4945 182.348 98.6174 182.348 98.7445C182.348 98.8717 182.306 98.9946 182.229 99.0902C182.153 99.1858 182.047 99.2477 181.931 99.2643H181.931Z" fill="#CCCCCC"/>
<path d="M196.449 94.0597H186.897C186.785 94.043 186.683 93.981 186.608 93.8853C186.534 93.7895 186.493 93.6664 186.493 93.5391C186.493 93.4117 186.534 93.2886 186.608 93.1928C186.683 93.0971 186.785 93.0351 186.897 93.0184H196.449C196.561 93.0351 196.663 93.0971 196.738 93.1928C196.812 93.2886 196.853 93.4117 196.853 93.5391C196.853 93.6664 196.812 93.7895 196.738 93.8853C196.663 93.981 196.561 94.043 196.449 94.0597Z" fill="#CCCCCC"/>
<path d="M196.449 99.2643H186.897C186.785 99.2477 186.683 99.1858 186.608 99.0902C186.534 98.9946 186.493 98.8717 186.493 98.7445C186.493 98.6174 186.534 98.4945 186.608 98.3989C186.683 98.3032 186.785 98.2413 186.897 98.2247H196.449C196.561 98.2413 196.663 98.3032 196.738 98.3989C196.812 98.4945 196.853 98.6174 196.853 98.7445C196.853 98.8717 196.812 98.9946 196.738 99.0902C196.663 99.1858 196.561 99.2477 196.449 99.2643Z" fill="#CCCCCC"/>
<path d="M213.012 94.0597H203.142C203.027 94.043 202.92 93.981 202.843 93.8853C202.767 93.7895 202.724 93.6664 202.724 93.5391C202.724 93.4117 202.767 93.2886 202.843 93.1928C202.92 93.0971 203.027 93.0351 203.142 93.0184H213.012C213.128 93.0351 213.234 93.0971 213.311 93.1928C213.388 93.2886 213.43 93.4117 213.43 93.5391C213.43 93.6664 213.388 93.7895 213.311 93.8853C213.234 93.981 213.128 94.043 213.012 94.0597Z" fill="#CCCCCC"/>
<path d="M219.575 88.5063H165.498C165.382 88.4897 165.276 88.4277 165.2 88.3319C165.123 88.2361 165.081 88.1131 165.081 87.9857C165.081 87.8583 165.123 87.7353 165.2 87.6395C165.276 87.5437 165.382 87.4817 165.498 87.4651H219.575C219.69 87.4817 219.796 87.5437 219.873 87.6395C219.95 87.7353 219.992 87.8583 219.992 87.9857C219.992 88.1131 219.95 88.2361 219.873 88.3319C219.796 88.4277 219.69 88.4897 219.575 88.5063Z" fill="#CCCCCC"/>
<path d="M157.41 88.5063H147.54C147.425 88.4897 147.318 88.4277 147.241 88.3319C147.164 88.2361 147.122 88.1131 147.122 87.9857C147.122 87.8583 147.164 87.7353 147.241 87.6395C147.318 87.5437 147.425 87.4817 147.54 87.4651H157.41C157.526 87.4817 157.632 87.5437 157.709 87.6395C157.786 87.7353 157.828 87.8583 157.828 87.9857C157.828 88.1131 157.786 88.2361 157.709 88.3319C157.632 88.4277 157.526 88.4897 157.41 88.5063Z" fill="#CCCCCC"/>
<path d="M173.709 47.2034L160.246 60.5662L173.709 73.9288L176.739 70.8842L166.557 60.6506L176.823 50.3327L173.709 47.2034Z" fill="#E6E6E6"/>
<path d="M193.405 47.2034L206.869 60.5662L193.405 73.9288L190.376 70.8842L200.558 60.6506L190.292 50.3327L193.405 47.2034Z" fill="#E6E6E6"/>
<path d="M173.709 47.2034L160.246 60.5662L173.709 73.9288L176.739 70.8842L166.557 60.6506L176.823 50.3327L173.709 47.2034Z" fill="#0078D4"/>
<path d="M193.405 47.2034L206.869 60.5662L193.405 73.9288L190.376 70.8842L200.558 60.6506L190.292 50.3327L193.405 47.2034Z" fill="#0078D4"/>
</g>
<defs>
<clipPath id="clip0_320:153">
<rect width="267" height="212" fill="white"/>
</clipPath>
</defs>
</svg>
