<svg width="420" height="420" viewBox="0 0 420 420" fill="none" xmlns="http://www.w3.org/2000/svg">
<path d="M361.717 335.749C361.717 349.142 351.044 360 337.879 360C324.713 360 314.04 349.142 314.04 335.749C314.04 322.355 324.713 311.497 337.879 311.497C351.044 311.497 361.717 322.355 361.717 335.749Z" fill="#0078D4"/>
<path d="M298.36 326.468C327.906 302.072 347.038 266.999 351.752 228.584C356.467 190.169 346.399 151.387 323.656 120.349C300.912 89.3112 267.253 68.421 229.719 62.0474C192.185 55.6738 153.681 64.3104 122.262 86.1509C90.8426 107.991 68.94 141.345 61.1351 179.235C53.3302 217.125 60.2273 256.618 80.384 289.454C100.541 322.29 132.396 345.927 169.288 355.42C206.179 364.913 250.472 358.204 284.643 335.749L254.276 297.359C232.113 310.181 205.937 313.788 181.22 307.428C156.504 301.068 135.161 285.232 121.657 263.232C108.152 241.233 103.531 214.774 108.761 189.388C113.99 164.003 128.664 141.657 149.714 127.024C170.764 112.391 196.561 106.605 221.708 110.875C246.855 115.146 269.405 129.141 284.643 149.936C299.881 170.731 306.626 196.714 303.467 222.451C302.353 231.525 300.039 240.321 296.642 248.623L282.73 231.561C287.284 215.158 286.74 197.724 281.174 181.648C275.608 165.572 265.291 151.64 251.638 141.762C237.985 131.883 221.663 126.541 204.909 126.468C188.155 126.395 171.789 131.595 158.053 141.354C144.318 151.113 133.884 164.954 128.183 180.981C122.481 197.009 121.791 214.437 126.206 230.879C130.621 247.321 139.926 261.972 152.846 272.824L182.959 235.719C177.563 231.186 173.676 225.067 171.831 218.199C169.987 211.331 170.276 204.051 172.657 197.356C175.039 190.661 179.397 184.879 185.134 180.803C190.872 176.726 197.708 174.554 204.707 174.585C211.705 174.615 218.523 176.847 224.226 180.973C229.929 185.1 234.238 190.919 236.563 197.634C238.888 204.35 239.115 211.632 237.213 218.484C235.311 225.335 231.373 231.421 225.939 235.907L255.738 273.272L267.695 288.031L298.36 326.468Z" fill="#0078D4"/>
</svg>
